SplineFontDB: 3.0
FontName: Essays1743-Italic
FullName: Essays 1743 Italic
FamilyName: Essays1743
Weight: Medium
Copyright: Created by John Stracke with PfaEdit 1.0 (http://pfaedit.sf.net)
FontLog: "2010-03-17: Adding 6 arrows.  Want to add more.+AAoACgAA-2010-03-07: Adding a bunch of characters to round out some scripts (pointed out by Fedora's QA bot, which runs fc-query).+AAoACgAA-2010-03-02: A whole bunch of cleanups (prodded by +AAoA-Fedora's font sanity checker, and a couple of people whose OSes were rendering capital O as a solid circle).  Jumping version # to 1.1.+AAoACgAA-2006-01-09: Moved the dot of uni1E46 to the center (thanks to Nathan Hill).  Calling this 1.001.+AAoACgAA-2004-10-09: Added bunch of other Latin-derived chars.  Calling this 0.2; don't expect much change before 1.0.+AAoACgAA-2004-10-04: Finished Latin-1 and Latin Extended A (plus miscellaneous other chars).+AAoACgAA-2004-9-21: Finished the basic alphabet (Roman alphabet +---------------------- +AH8A +---------------------- +AMMAnwAA).+AAoACgAA-2004-6-7: Began." 
Version: 002.000
ItalicAngle: -10
UnderlinePosition: -100
UnderlineWidth: 50
Ascent: 759
Descent: 265
sfntRevision: 0x00020000
LayerCount: 2
Layer: 0 0 "Back"  1
Layer: 1 0 "Fore"  0
XUID: [1021 117 711671440 7125089]
FSType: 0
OS2Version: 0
OS2_WeightWidthSlopeOnly: 0
OS2_UseTypoMetrics: 0
CreationTime: 1168432895
ModificationTime: 1383423017
PfmFamily: 17
TTFWeight: 500
TTFWidth: 5
LineGap: 90
VLineGap: 0
Panose: 2 0 6 2 0 0 0 0 0 0
OS2TypoAscent: 0
OS2TypoAOffset: 1
OS2TypoDescent: 0
OS2TypoDOffset: 1
OS2TypoLinegap: 0
OS2WinAscent: 0
OS2WinAOffset: 1
OS2WinDescent: 0
OS2WinDOffset: 1
HheadAscent: 0
HheadAOffset: 1
HheadDescent: 0
HheadDOffset: 1
OS2Vendor: 'PfEd'
Lookup: 4 0 0 "'dlig' Discretionary Ligatures in Latin lookup 4"  {"'dlig' Discretionary Ligatures in Latin lookup 4-1"  } ['dlig' ('DFLT' <'dflt' > 'latn' <'dflt' > ) ]

StartChar: exclam
Encoding: 33 33 1
Width: 283
Flags: W
HStem: 2 117<65.1825 124.991>
LayerCount: 2
Fore
SplineSet
179.411 237 m 1
 164.411 225 146.411 214 132.411 214 c 0
 127.411 214 122.411 216 118.411 219 c 1
 140.411 324 149.411 323 170.411 390 c 24
 208.411 513 220.411 576 272.411 705 c 1
 297.411 726 321.411 736 342.411 736 c 0
 360.411 736 375.411 729 387.411 714 c 1
 344.411 585 327.411 543 278.411 435 c 24
 244.411 357 246.411 369 179.411 237 c 1
36.4111 12 m 0
 30.4111 17 27.4111 23 27.4111 31 c 0
 27.4111 38 30.4111 47 34.4111 57 c 8
 46.4111 82 62.4111 100 89.4111 111 c 16
 102.411 116 115.411 119 126.411 119 c 0
 141.411 119 152.411 114 158.411 102 c 0
 160.411 97 161.411 92 161.411 86 c 0
 161.411 64 145.411 39 120.411 21 c 0
 103.411 8 85.4111 2 68.4111 2 c 0
 56.4111 2 45.4111 5 36.4111 12 c 0
EndSplineSet
Validated: 1
EndChar

StartChar: numbersign
Encoding: 35 35 3
Width: 560
Flags: W
LayerCount: 2
Fore
SplineSet
441 442 m 1
 452 458 466 473 483 486 c 0
 495 495 506 500 515 500 c 0
 528 500 537 492 543 478 c 0
 546 469 548 460 548 451 c 0
 548 447 548 442 547 438 c 1
 566 435 581 429 591 416 c 0
 598 407 602 397 602 387 c 0
 602 373 593 358 574 344 c 0
 554 329 532 321 510 316 c 1
 509 311 507 307 506 302 c 0
 500 279 497 261 493 243 c 1
 505 239 514 233 521 224 c 0
 528 215 532 205 532 195 c 0
 532 181 523 166 504 152 c 0
 485 138 465 130 444 125 c 1
 435 108 424 94 408 82 c 0
 389 67 372 58 357 58 c 0
 347 58 339 62 333 72 c 0
 326 83 323 96 323 110 c 0
 323 112 323 114 323 116 c 1
 321 116 318 116 315 116 c 0
 291 115 268 114 245 113 c 1
 237 102 228 91 216 82 c 0
 197 67 180 58 165 58 c 0
 155 58 147 62 141 72 c 0
 134 84 131 96 131 110 c 0
 131 114 132 119 132 123 c 1
 114 129 100 138 90 152 c 0
 86 157 85 163 85 168 c 0
 85 184 99 201 122 215 c 0
 136 223 149 229 163 232 c 1
 165 237 167 243 169 248 c 0
 177 272 184 296 192 319 c 1
 179 325 168 333 160 344 c 0
 156 349 155 355 155 360 c 0
 155 376 169 393 192 407 c 0
 207 416 222 422 237 425 c 1
 252 448 269 469 291 486 c 0
 303 495 314 500 323 500 c 0
 336 500 345 492 351 478 c 0
 355 470 356 461 356 452 c 0
 356 445 355 439 354 432 c 1
 362 433 369 433 377 434 c 0
 402 437 421 440 441 442 c 1
380 308 m 1
 358 307 336 306 315 305 c 1
 315 304 314 303 314 302 c 0
 308 278 305 260 300 241 c 1
 303 242 305 242 307 242 c 0
 328 244 345 247 361 249 c 1
 368 269 374 289 380 308 c 1
EndSplineSet
Validated: 1
EndChar

StartChar: dollar
Encoding: 36 36 4
Width: 338
VWidth: 1080
Flags: W
VStem: 263 101<223.771 303.498> 317 68<613.273 668.172>
LayerCount: 2
Fore
SplineSet
154 42 m 1x80
 153 42 135 37 117 37 c 0
 100 37 83 41 79 57 c 1
 84 93 99 117 99 121 c 0
 99 122 l 8
 75 129 55 131 48 154 c 16
 45 165 43 174 43 184 c 0
 43 207 53 230 83 263 c 0
 89 270 94 273 97 273 c 0
 120 273 117 172 165 172 c 0
 167 172 168 172 169 172 c 8
 208 176 243 208 259 246 c 16
 262 253 263 258 263 264 c 0x80
 263 282 248 294 236 309 c 8
 206 342 138 315 130 362 c 16
 128 375 126 385 126 393 c 0
 126 410 131 423 144 453 c 8
 167 510 214 542 274 572 c 16
 282 576 295 618 317 661 c 1
 323 663 346 672 363 672 c 0
 375 672 385 668 385 654 c 0
 385 653 385 653 385 652 c 1x40
 376 619 361 598 361 589 c 0
 361 587 362 585 365 584 c 8
 399 574 419 558 421 521 c 16
 421 519 421 516 421 514 c 0
 421 491 415 481 381 441 c 0
 377 437 374 435 372 435 c 0
 361 435 367 485 351 499 c 0
 337 511 327 523 310 523 c 0
 306 523 301 523 296 521 c 8
 264 512 232 488 228 458 c 16
 228 456 227 453 227 451 c 0
 227 416 280 426 303 401 c 0
 333 368 364 352 364 304 c 0
 364 302 364 301 364 299 c 8
 362 252 344 214 301 174 c 24
 264 139 230 132 184 122 c 16
 178 121 160 43 154 42 c 1x80
EndSplineSet
Validated: 1
EndChar

StartChar: percent
Encoding: 37 37 5
Width: 793
VWidth: 1080
Flags: W
HStem: 17 102<44.75 134.343> 17 92<89.7954 161.477> 49 46<538.357 641.778> 259 43<535.284 640.536> 445 46<250.357 353.778> 655 43<247.284 352.536> 665 80<811.141 862.766>
VStem: 179 43<517.412 629.386> 379 59<516.147 629.659> 467 43<121.412 233.386> 667 59<120.147 233.659>
LayerCount: 2
Fore
SplineSet
524 472 m 0x59e0
 636 575 617 587 720 681 c 1
 719 702 676 685 672 706 c 16
 672 707 672 709 672 710 c 0
 672 722 682 734 695 740 c 1
 765 740 784 745 799 745 c 0
 814 745 825 740 880 720 c 1
 882 716 883 711 883 706 c 0
 883 693 875 678 863 669 c 0
 858 666 854 665 850 665 c 0
 841 665 832 671 821 671 c 0
 818 671 814 671 811 669 c 1
 653 527 674 525 554 403 c 0
 470 312 416 268 301 134 c 1
 296 123 280 112 280 100 c 0
 280 98 280 97 281 95 c 0x3be0
 282 90 287 88 293 88 c 0
 300 88 308 90 315 90 c 0
 321 90 325 89 326 83 c 0
 327 81 327 80 327 78 c 0
 327 55 293 45 274 23 c 1
 205 23 176 17 136 17 c 0x59e0
 116 17 92 18 60 23 c 1
 48 41 26 48 26 68 c 0
 26 70 26 72 27 75 c 8
 32 98 53 108 76 117 c 16
 81 119 85 119 89 119 c 0x99e0
 106 119 121 109 135 109 c 0
 141 109 147 111 153 117 c 0
 336 299 380 347 524 472 c 0x59e0
331 498 m 8
 355 510 368 525 376 551 c 16
 378 558 379 565 379 571 c 0
 379 585 375 598 367 614 c 8
 358 630 350 640 333 647 c 16
 321 652 310 655 298 655 c 0x1de0
 287 655 275 652 263 645 c 8
 242 634 234 619 227 596 c 16
 224 586 222 576 222 567 c 0
 222 556 225 545 232 533 c 8
 245 510 262 500 287 494 c 16
 294 492 300 491 306 491 c 0
 314 491 322 493 331 498 c 8
256 464 m 0
 227 479 203 497 189 531 c 16
 183 548 179 564 179 579 c 0
 179 597 184 615 194 635 c 8
 208 662 223 677 251 689 c 16
 267 695 281 698 295 698 c 0
 311 698 327 694 346 689 c 8
 379 678 402 669 420 639 c 16
 432 619 438 600 438 580 c 0
 438 564 435 548 429 531 c 8
 417 494 400 470 364 455 c 16
 347 448 332 445 318 445 c 0
 298 445 279 451 256 464 c 0
619 102 m 8
 643 114 656 129 664 155 c 16
 666 162 667 169 667 175 c 0
 667 189 663 202 655 218 c 8
 646 234 638 244 621 251 c 16
 609 256 598 259 586 259 c 0
 575 259 563 256 551 249 c 8
 530 238 522 223 515 200 c 16
 512 190 510 180 510 171 c 0
 510 160 513 149 520 137 c 8
 533 114 550 104 575 98 c 16
 582 96 588 95 594 95 c 0x39e0
 602 95 610 97 619 102 c 8
544 68 m 0
 515 83 491 101 477 135 c 16
 471 152 467 168 467 183 c 0
 467 201 472 219 482 239 c 8
 496 266 511 281 539 293 c 16
 555 299 569 302 583 302 c 0
 599 302 615 298 634 293 c 8
 667 282 690 273 708 243 c 16
 720 223 726 204 726 184 c 0
 726 168 723 152 717 135 c 8
 705 98 688 74 652 59 c 16
 635 52 620 49 606 49 c 0
 586 49 567 55 544 68 c 0
EndSplineSet
Validated: 1
EndChar

StartChar: ampersand
Encoding: 38 38 6
Width: 943
Flags: W
HStem: -1 114<283.639 524.645> 280 91<472.675 563.914> 408 118<205.143 300.25> 460 36<702.003 771.78> 468 67<486.854 616.637> 637 98<230.272 336.178>
VStem: 56 96<214.822 354.5> 124 78<531.073 609.241> 407 61<374.266 448.876> 664 47<242.734 414.43> 707 174<572.413 671.152> 782 99<514.08 611>
LayerCount: 2
Fore
SplineSet
366 680 m 0xcd80
 366 659.206 346.952 629 322 629 c 0
 307 629 289 637 273 637 c 0
 265 637 257 635 250 630 c 0
 225 613 202 592 202 565 c 0
 202 532.135 228.414 526 257 526 c 2
 268 526 l 2
 291 526 313 525 322 504 c 0
 325 497 327 489 327 482 c 0
 327 459 309.917 438.091 290 420 c 0
 277.95 409.055 263 407 248 407 c 0
 238 407 228 408 218 408 c 0xe580
 200 408 185.019 404.993 178 387 c 0
 160.048 340.981 152 310 152 285 c 0
 152 253 164 230 186 195 c 0
 217 147 261.017 141.067 316 127 c 0
 351.011 118.043 380 113 408 113 c 0
 435 113 460.959 117.15 493 126 c 0
 551.924 142.275 593.842 156.106 628 207 c 0
 652.885 244.077 664 278 664 315 c 0
 664 335 661 356 655 378 c 0
 645 417 630 446 592 459 c 0
 576 465 561 468 545 468 c 0
 517 468 492 457 475 432 c 0
 470 425 468 418 468 411 c 0
 468 393.149 482.724 371 504 371 c 0
 526 371 552 389 572 389 c 0
 587.928 389 599 372.299 599 356 c 0
 599 316.345 542.828 280 499 280 c 0
 477 280 456 288 439 306 c 0
 416 329 407 356 407 385 c 0
 407 412 415 441 430 468 c 0
 453 511 491 518 538 531 c 0
 547 534 557 535 567 535 c 0xcec0
 625 535 689 496 734 496 c 0
 755 496 771 505 781 531 c 0
 782 534 782 536 782 538 c 0xd6d0
 782 565 716 560 709 594 c 0
 708 601 707 608 707 616 c 0
 707 661.33 737.009 698 790 698 c 0
 832 698 873.93 672.99 880 630 c 0
 880.989 622.998 881 615 881 607 c 0xd4a0
 881 563 866.855 508.159 826 471 c 0
 813.957 460.047 800 457 785 457 c 0
 771 457 756 460 742 460 c 0
 722.214 460 694 448.725 694 423 c 0
 694 404 711 384 711 360 c 0
 712 314 722 278 722 241 c 0
 722 210 714 179 685 141 c 0
 641 85 617 35 547 21 c 0
 486 8 442 -1 392 -1 c 0
 359 -1 323.037 3.15804 277 14 c 0
 208.056 30.2367 160 46 118 103 c 0
 80 155 56 205 56 260 c 0xd6c0
 56 283 61 307 70 333 c 0
 127 492 132 414 169 468 c 1
 159 513 124 519 124 558 c 0
 125 621 143 665 200 702 c 1
 232 719 267 735 299 735 c 0
 326.763 735 366 713.366 366 680 c 0xcd80
EndSplineSet
Validated: 1
EndChar

StartChar: quotesingle
Encoding: 39 39 7
Width: 243
Flags: W
HStem: 273 480<81 267>
VStem: 79 263
LayerCount: 2
Fore
SplineSet
267 753 m 0
 308.652 753 342 718.618 342 672 c 0
 342 638 323 603 299 562 c 1
 280 527 253 515 227 483 c 0
 164 404 197 276 81 273 c 1
 80 275 79 279 79 283 c 0
 79 314 121 395 149 492 c 1
 114 519 114 531 114 567 c 0
 114 604 127.115 629.923 152 667 c 0
 180.586 709.592 203.368 753 267 753 c 0
EndSplineSet
Validated: 1
EndChar

StartChar: parenleft
Encoding: 40 40 8
Width: 256
Flags: W
VStem: -4 96<-198.97 49.3728> 4 118<-236.919 -118.687>
LayerCount: 2
Fore
SplineSet
4 -234 m 0x40
 -1 -188 -4 -153 -4 -117 c 0
 -4 -77 0.227139 -38.0461 11 15 c 0
 40.6246 160.873 63.1752 249.894 150 393 c 0
 222.146 511.912 281 585 394 672 c 0
 397 674 400 675 402 675 c 0
 411 675 419 665 419 656 c 0
 419 652 418 648 415 645 c 0
 304 513 271 474 208 357 c 0
 144 237 113 164 97 45 c 0
 94 20 92 2 92 -14 c 0x80
 92 -65 108 -87 122 -207 c 1
 122 -209 l 2
 122 -234 74 -253 39 -253 c 0
 20 -253 5 -247 4 -234 c 0x40
EndSplineSet
Validated: 1
EndChar

StartChar: asterisk
Encoding: 42 42 10
Width: 534
Flags: W
HStem: 442 83<111.851 272.057> 470 79<489.029 578.722>
VStem: 315 90<267.648 413.158> 318 66<568.03 715.79>
LayerCount: 2
Fore
SplineSet
494 673 m 0x90
 509.557 673 536 657.88 536 639 c 0
 536 607 476 568 447 549 c 1
 509 537 585 560 585 506 c 2
 585 504 l 1
 584 475 569 470 545 470 c 0
 529 470 510 472 488 472 c 0
 474 472 458 471 441 468 c 1
 471 416 528 381 528 350 c 0
 528 337.064 510.465 316 494 316 c 0
 468 316 460 374 405 414 c 1
 390 306 413 261 357 261 c 0
 355 261 353 261 351 261 c 0
 321 262 315 273 315 296 c 0x60
 315 313 318 335 318 366 c 0x50
 318 380 317 396 315 414 c 1x60
 275 383 261 298 216 298 c 0
 203.479 298 161 317.987 161 340 c 0
 161 377 260 411 288 459 c 1
 257 457 205 442 165 442 c 0
 133 442 109 451 107 482 c 1
 107 487 l 2
 107 520 136 525 174 525 c 0
 190 525 207 524 224 524 c 0
 241 524 258 525 273 528 c 1
 231 575 165 593 165 624 c 0
 165 642.718 189.804 663 205 663 c 0
 236 663 271 614 318 564 c 1
 318 583 l 2
 318 628 314 659 314 680 c 0
 314 707 321 716 354 717 c 1
 355 717 l 2
 381 717 386 703 386 681 c 0
 386 667 384 649 384 628 c 0
 384 609 386 589 393 567 c 1
 428 621 458 673 494 673 c 0x90
EndSplineSet
Validated: 1
EndChar

StartChar: plus
Encoding: 43 43 11
Width: 346
Flags: W
VStem: 24 295<169.409 245.483>
LayerCount: 2
Fore
SplineSet
227 283 m 1
 230 283 233 283 237 282 c 0
 265 278 287 277 303 255 c 0
 313 242 319 227 319 213 c 0
 319 203 315.974 193.018 309 183 c 0
 290.933 157.047 267 150 238 148 c 1
 235 121 234 99 212 82 c 0
 199 73 184 67 170 67 c 0
 125.536 67 107.38 111.682 105 145 c 1
 77 147 52 156 33 183 c 0
 27 191 24 200 24 210 c 0
 24 222 30 235 39 246 c 0
 57 266 77 270 100 270 c 1
 102 303 110 331 140 352 c 0
 148 358 158 361 167 361 c 0
 179 361 192 356 202 346 c 1
 223 328 226 307 227 283 c 1
EndSplineSet
Validated: 1
EndChar

StartChar: comma
Encoding: 44 44 12
Width: 250
Flags: W
HStem: 35 155<87.8339 149.988>
VStem: 150 108<-17.0573 106.546>
LayerCount: 2
Fore
SplineSet
178 190 m 0
 231.648 190 258 128.093 258 85 c 0
 258 52 248 16 235 -20 c 0
 220 -64 191.929 -80.907 155 -109 c 0
 137.967 -121.957 128 -130 107 -133 c 0
 90 -135 65 -138 45 -138 c 0
 24 -138 7 -135 7 -125 c 0
 7 -123 8 -120 11 -116 c 0
 51 -58 83 -66 120 -25 c 0
 132 -12 150 -3 150 12 c 0
 150 31.0569 133.169 35 119 35 c 0
 112 35 106 34 100 34 c 0
 87 34 75 36 67 46 c 0
 53 62 46 80 46 99 c 0
 46 111 49 123 55 136 c 0
 67 163 90 170 118 178 c 0
 139 184 160 190 178 190 c 0
EndSplineSet
Validated: 1
EndChar

StartChar: hyphen
Encoding: 45 45 13
Width: 346
Flags: W
HStem: 144 139<57.3669 293.794>
VStem: 24 295<168.704 253.159>
LayerCount: 2
Fore
SplineSet
33 183 m 0
 27 191 24 200 24 210 c 0
 24 222 30 235 39 246 c 0
 70 281 110 265 156 273 c 0
 181 277 198 283 221 283 c 0
 226 283 231 283 237 282 c 0
 265 278 287 277 303 255 c 0
 313 242 319 227 319 213 c 0
 319 203 316 193 309 183 c 0
 282 143 240 149 192 147 c 0
 168 146 145 144 123 144 c 0
 87 144 56 151 33 183 c 0
EndSplineSet
Validated: 1
EndChar

StartChar: period
Encoding: 46 46 14
Width: 236
VWidth: 1080
Flags: W
HStem: 11 200<64.1284 202.321>
VStem: 31 217<40.4255 167.449>
LayerCount: 2
Fore
SplineSet
69 27 m 0
 50 38 44 53 39 75 c 0
 35 93 31 111 31 128 c 0
 31 147 36 165 53 180 c 0
 76 201 104 211 132 211 c 0
 159 211 185.925 201.904 209 184 c 0
 234.916 163.892 248 136 248 106 c 0
 248 90 244 74 238 58 c 0
 229 34 208 29 184 22 c 0
 162 16 143 11 124 11 c 0
 106 11 88 16 69 27 c 0
EndSplineSet
Validated: 1
EndChar

StartChar: slash
Encoding: 47 47 15
Width: 770
VWidth: 1080
Flags: W
HStem: 17 102<45.0011 134.343> 17 92<89.7954 161.477> 665 80<811.141 872.551>
LayerCount: 2
Fore
SplineSet
315 90 m 0x60
 323.039 90 327 86.4072 327 78 c 0
 327 55 293 45 274 23 c 1
 205 23 176 17 136 17 c 0x60
 116 17 92 18 60 23 c 1
 48 41 26 48 26 68 c 0
 26 96.2518 52.6224 107.751 76 117 c 0
 81.0074 118.981 85 119 89 119 c 0xa0
 106 119 121 109 135 109 c 0
 141 109 146.984 111.016 153 117 c 0
 336 299 380 347 524 472 c 1
 636 575 617 587 720 681 c 1
 719 702 676 685 672 706 c 1
 672 710 l 2
 672 722 682 734 695 740 c 1
 765 740 784 745 799 745 c 0
 814 745 825 740 880 720 c 1
 882 716 883 711 883 706 c 0
 883 691.302 870.022 665 850 665 c 0
 841 665 832 671 821 671 c 0
 818 671 814 671 811 669 c 0
 653 527 674 525 554 403 c 1
 470 312 416 268 301 134 c 1
 296 123 280 112 280 100 c 0
 280 91.9819 284.705 88 293 88 c 0
 300 88 308 90 315 90 c 0x60
EndSplineSet
Validated: 1
EndChar

StartChar: zero
Encoding: 48 48 16
Width: 560
Flags: W
HStem: -5 92<171.162 317.627> 415 86<268.875 425.591>
VStem: 41 84<127.439 266.899> 459 128<243.249 381.328>
LayerCount: 2
Fore
SplineSet
300 101 m 0
 357 126 395 155 429 207 c 0
 451 242 459 269 459 298 c 0
 459 347.591 449.878 382.197 413 400 c 0
 392 410 372 415 350 415 c 0
 327 415 302 409 272 396 c 0
 222 374 194.092 342.94 164 297 c 0
 139.076 258.95 125 228 125 194 c 0
 125 131.846 159.438 108.388 210 93 c 0
 222 89 233 87 245 87 c 0
 262 87 279 92 300 101 c 0
125 33 m 0
 80 65 44 99 41 168 c 0
 41 171 41 174 41 177 c 0
 41 247 65.3401 304.707 126 375 c 0
 173.265 429.771 215 460 280 483 c 0
 317 496 347 501 375 501 c 0
 406 501 436 494 469 483 c 0
 541.307 458.489 587 430.718 587 338 c 0
 587 283 564.803 231.136 521 168 c 0
 469.77 94.1595 418 46 335 16 c 0
 296 2 264 -5 234 -5 c 0
 196 -5 162 7 125 33 c 0
EndSplineSet
Validated: 1
Substitution2: "'pnum' Proportional Numbers in Latin lookup 2-1" uniE010
EndChar

StartChar: one
Encoding: 49 49 17
Width: 560
Flags: W
HStem: 15 78<81.0201 116.451 310.012 335.09>
LayerCount: 2
Fore
SplineSet
234 415 m 0
 225.371 415 224 428.589 224 437 c 0
 224 467 244 503 272 519 c 1
 470 519 l 1
 478 510 481 499 481 486 c 0
 481 466 471 442 452 420 c 0
 442 409 460 420 418 405 c 1
 384 284 376 244 310 96 c 1
 310 84 327 95 330 87 c 0
 334 78 337 65 337 53 c 0
 337 34 331 17 314 16 c 2
 70 15 l 2
 62 15 59 19 59 26 c 0
 59 42 78 71 96 87 c 0
 101 92 106 93 111 93 c 1
 153 102 l 1
 266 405 l 1
 265 415 260 418 253 418 c 0
 247 418 240 415 234 415 c 0
EndSplineSet
Validated: 1
Substitution2: "'pnum' Proportional Numbers in Latin lookup 2-1" uniE011
EndChar

StartChar: two
Encoding: 50 50 18
Width: 560
Flags: W
HStem: 25 95<247.462 350.245> 437 84<330.446 451.41>
VStem: 378 132<376.488 471.982>
LayerCount: 2
Fore
SplineSet
431 521 m 0
 471.82 521 510 494.964 510 449 c 0
 510 412 486 370 457 325 c 0
 410 253 348 238 285 176 c 1
 252 126 287 173 247 120 c 1
 343 120 l 1
 354 127 348 157 367 170 c 1
 392 179 409 183 422 183 c 0
 438 183 449 178 462 166 c 1
 394 55 431 105 338 25 c 1
 215 19 185 17 167 17 c 0
 146 17 142 20 22 22 c 0
 18 22 16 24 16 28 c 0
 16 37 28.0389 53.9614 38 64 c 0
 166.502 193.502 229 194 336 315 c 0
 360 343 378 371 378 396 c 0
 378 422.469 361.122 437 337 437 c 0
 322 437 305 433 287 427 c 0
 231 410 225 381 154 334 c 1
 151 347 150 356 150 364 c 0
 150 384 160.065 388.932 177 405 c 0
 246.265 470.72 262 481 322 498 c 0
 362 510 400 521 431 521 c 0
EndSplineSet
Validated: 1
Substitution2: "'pnum' Proportional Numbers in Latin lookup 2-1" uniE012
EndChar

StartChar: three
Encoding: 51 51 19
Width: 560
Flags: W
HStem: -253 101<30.8993 147.128>
VStem: -28 140<-212.215 -129.52>
LayerCount: 2
Fore
SplineSet
316 60 m 0
 316 91.376 288.958 104 261 104 c 0
 250 104 238.003 102.964 225 102 c 0
 183.009 98.8853 178 72 113 66 c 1
 108 71 106 77 106 83 c 0
 106 104 127 132 146 156 c 1
 260 246 265 237 367 318 c 0
 379 327 383 339 383 350 c 0
 383 375.116 365.454 394 340 394 c 0
 332 394 322 393 312 390 c 0
 257 375 244 322 180 300 c 0
 178 299 176 299 175 299 c 0
 172 299 170 301 170 305 c 0
 170 316 183 340 191 354 c 0
 230 420 284 462 342 495 c 1
 418 525 390 518 432 524 c 1
 436 524 l 2
 456 524 495 514 522 498 c 1
 529 488 532 477 532 465 c 0
 532 434 511 396 489 357 c 0
 454 296 397 270 358 219 c 1
 359 209 367 207 376 207 c 0
 384 207 394 208 402 208 c 0
 411 208 418 207 423 201 c 0
 435 187 439 172 439 155 c 0
 439 139 435.921 122.016 432 102 c 0
 417.711 29.0566 398 -18 345 -87 c 0
 303 -143 269 -179 206 -207 c 0
 150 -231 94 -253 50 -253 c 0
 11.7987 -253 -28 -234.431 -28 -190 c 0
 -28 -159 -7 -121 27 -96 c 1
 45 -94 55 -94 62 -94 c 0
 77 -94 75 -97 96 -97 c 0
 101 -97 108 -96 117 -96 c 1
 120 -98 121 -101 121 -105 c 0
 121 -115 112 -128 112 -138 c 0
 112 -148.24 125.131 -152 134 -152 c 0
 149 -152 167 -143 185 -132 c 0
 242 -96 269 -57 296 0 c 0
 307 22 316 42 316 60 c 0
EndSplineSet
Validated: 1
Substitution2: "'pnum' Proportional Numbers in Latin lookup 2-1" uniE013
EndChar

StartChar: four
Encoding: 52 52 20
Width: 560
Flags: W
HStem: 9 104<366.438 507.981> 18 87<126.001 196.402> 25 88<130.781 233 366.375 448.881>
LayerCount: 2
Fore
SplineSet
251 -195 m 1x20
 229 -213 208 -222 189 -222 c 0
 174 -222 161 -216 151 -204 c 1
 197 -69 206 -60 233 30 c 1
 220 31 209 31 199 31 c 0
 143 31 124 18 86 18 c 0x40
 68 18 46 21 14 30 c 0
 7 32 5 36 5 41 c 0
 5 53 16 70 25 84 c 1
 316 381 208 291 476 516 c 1
 483 519 490 520 496 520 c 0
 506 520 514 516 518 507 c 1
 478 357 477 369 366 114 c 1
 374 113 382 113 388 113 c 0
 448 113 440 133 530 133 c 0
 544 133 561 132 581 131 c 1
 582 127 583 123 583 120 c 0
 583 85 539 47 497 24 c 0
 476 13 462 9 450 9 c 0x80
 426 9 410 25 351 25 c 0
 344 25 337 24 330 24 c 1
 270 -141 297 -87 251 -195 c 1x20
267 114 m 1
 316 249 l 1
 313 267 308 286 290 286 c 0
 288 286 286 285 284 285 c 1
 142 141 l 1
 135 131 126 120 126 111 c 0
 126 109 127 107 128 105 c 1
 187 107 267 114 267 114 c 1
EndSplineSet
Validated: 1
Substitution2: "'pnum' Proportional Numbers in Latin lookup 2-1" uniE014
EndChar

StartChar: five
Encoding: 53 53 21
Width: 560
Flags: W
HStem: -260 97<47.2912 145.815> 126 56<196.599 374.5> 349 112<440.77 522.18>
VStem: 327 144<19.4811 112.695>
LayerCount: 2
Fore
SplineSet
-82 -174 m 0
 -82 -131.022 -25.4958 -91 11 -91 c 0
 62.7611 -91 27.2432 -147.703 65 -158 c 0
 78 -161 92 -163 106 -163 c 0
 148 -163 190.94 -146.933 232 -110 c 0
 289.915 -57.9058 327 4 327 59 c 0
 327 76 324 91 317 106 c 0
 310 121 296 126 279 126 c 0
 263 126 244 122 225 118 c 0
 166 105 134 45 77 40 c 0
 64 39 52 41 51 52 c 1
 252 394 206 334 397 534 c 1
 401 535 404 535 407 535 c 0
 438 535 425 481 457 468 c 0
 466 465 473 461 482 461 c 0
 489 461 496 463 505 468 c 0
 545 491 529 541 570 564 c 0
 583 572 592 569 602 564 c 0
 634 548 654 528 654 493 c 0
 654 431.267 563.815 347.26 563 344 c 1
 515 348 488 349 472 349 c 0
 452 349 446 347 435 347 c 0
 425 347 410 348 380 352 c 1
 379 354 378 356 378 359 c 0
 378 375 402 398 402 410 c 0
 402 411 401 412 401 413 c 0
 398 419 395 420 390 420 c 0
 383 420 374 418 359 418 c 2
 354 418 l 1
 230 202 316 346 195 162 c 1
 227 167 246 172 278 174 c 0
 311.992 176.125 340 182 366 182 c 0
 383 182 399 180 416 174 c 0
 444 164 467 156 470 126 c 0
 471 119 471 112 471 105 c 0
 471 40 434 -18 376 -84 c 0
 299 -171 228.821 -209.492 125 -246 c 0
 96.9518 -255.863 75 -260 54 -260 c 0
 37 -260 20 -257 2 -252 c 0
 -42.3852 -239.613 -82 -226.585 -82 -174 c 0
EndSplineSet
Validated: 1
Substitution2: "'pnum' Proportional Numbers in Latin lookup 2-1" uniE015
EndChar

StartChar: six
Encoding: 54 54 22
Width: 560
Flags: W
HStem: 8 74<177.03 331.828> 408 60<347.363 439.976> 718 29<656.235 666.533>
VStem: 42 110<107.357 262.53> 463 117<242.364 386.336>
LayerCount: 2
Fore
SplineSet
295 19 m 0
 262 13 234 8 208 8 c 0
 181 8 155 13 129 27 c 0
 77 53 42 82 42 140 c 0
 42 146 42 152 43 158 c 0
 55 262 71 334 140 441 c 0
 197 528 247 578 340 639 c 1
 443 705 520 746 625 747 c 0
 654 747 671 747 681 718 c 1
 586 661 569.067 672.896 503 630 c 0
 418.086 574.867 373 553 302 464 c 0
 297 457 294 450 294 444 c 0
 294 438 297 433 302 430 c 1
 385 457 398 468 427 468 c 0
 434 468 443 467 453 466 c 0
 512 459 550 442 567 393 c 0
 576 368 580 344 580 320 c 0
 580 268 559 215 508 154 c 0
 472 111 441.877 90.2027 392 60 c 0
 355.911 38.1467 333 27 295 19 c 0
439 388 m 0
 421 402 399 408 376 408 c 0
 349 408 320 400 288 386 c 0
 239 364 211.037 332.98 187 289 c 0
 164.035 246.981 152 212 152 179 c 0
 152 158 157 138 167 118 c 0
 181.448 87.8998 217.463 82 260 82 c 0
 285 82 309 88 336 107 c 0
 406 154 432 207 452 276 c 0
 458 298 463 318 463 336 c 0
 463 357 457 374 439 388 c 0
EndSplineSet
Validated: 1
Substitution2: "'pnum' Proportional Numbers in Latin lookup 2-1" uniE016
EndChar

StartChar: seven
Encoding: 55 55 23
Width: 560
Flags: W
HStem: 598 157<282.135 366.248>
LayerCount: 2
Fore
SplineSet
-32 -18 m 1
 156 250 132.922 188.059 234 322 c 0
 301.948 412.039 365 452 403 556 c 1
 403 587 379 598 346 598 c 0
 281 598 278 574 172 514 c 1
 149 514 129 521 129 542 c 2
 129 544 l 1
 207 682 206 679 298 745 c 1
 311 751 324 755 335 755 c 0
 348 755 359 750 368 741 c 0
 376 734 360 722 370 712 c 1
 676 712 l 1
 372 350 404 404 122 36 c 1
 101 21 78 -7 55 -9 c 0
 -13 -16 28 -18 -32 -18 c 1
EndSplineSet
Validated: 1
Substitution2: "'pnum' Proportional Numbers in Latin lookup 2-1" uniE017
EndChar

StartChar: eight
Encoding: 56 56 24
Width: 560
Flags: W
HStem: -2 85<139.352 271.978> 297 135<262.668 330.724> 636 90<324.886 464.539>
VStem: 46 78<99.58 189.955> 165 84<449.2 566.863> 349 130<184.283 277.792>
LayerCount: 2
Fore
SplineSet
228 358 m 1
 186 392 167 406 165 456 c 1
 165 466 l 2
 165 533 185 590 245 654 c 1
 282 692 317 703 363 714 c 0
 395 722 422 726 447 726 c 0
 481 726 511 718 543 702 c 0
 579 684 598 665 603 624 c 0
 603 619 604 614 604 609 c 0
 604 574 591 543 565 504 c 0
 546 476 526.929 464.099 499 444 c 0
 458.898 415.142 444 414 391 384 c 0
 377 376 394 364 400 354 c 0
 422 319 470 325 477 282 c 0
 478 275 479 268 479 262 c 0
 479 215 452 173 418 120 c 0
 393 80 372.992 51.0172 330 30 c 0
 282.991 7.01877 244 -2 207 -2 c 0
 172 -2 139.038 6.09274 105 20 c 0
 68.0411 35.1007 49 55 46 96 c 0
 46 99 46 102 46 105 c 0
 46 159 70 202 111 258 c 0
 146 305 198 316 228 358 c 1
468 570 m 0
 468 610.2 426.544 636 390 636 c 0
 379 636 367 634 353 630 c 0
 303.907 616.611 249 561.934 249 503 c 2
 249 498 l 2
 249 472 255 455 277 444 c 0
 293 436 309 432 326 432 c 0
 346 432 367.981 438.039 393 450 c 0
 413.984 460.033 423 473 436 492 c 1
 454 516 464 533 467 558 c 0
 467 562 468 566 468 570 c 0
259 98 m 0
 288 112 301.873 131.081 319 158 c 0
 336.868 186.084 349 208 349 233 c 0
 349 264.4 334.877 275.823 310 286 c 0
 293 292 278 297 262 297 c 0
 247 297 232 293 214 286 c 0
 185 274 169 258 152 232 c 0
 132 203 124 181 124 155 c 0
 124 151 125 147 125 142 c 0
 127 118 134.051 104.11 156 94 c 0
 171.035 87.0752 185 83 201 83 c 0
 218 83 237 88 259 98 c 0
EndSplineSet
Validated: 1
Substitution2: "'pnum' Proportional Numbers in Latin lookup 2-1" uniE018
EndChar

StartChar: nine
Encoding: 57 57 25
Width: 560
Flags: W
HStem: 32 37<271.658 353.16> 386 90<329.997 458.697>
VStem: 97 97<87.1406 241.258> 480 102<206.548 364.122>
LayerCount: 2
Fore
SplineSet
420 132 m 0
 465 189 480 236 480 290 c 0
 480 332.038 475.03 358.895 444 373 c 0
 425 381 408 386 389 386 c 0
 371 386 352.035 381.914 330 373 c 0
 300.047 360.883 283 344 264 318 c 0
 218 255 194 206 194 146 c 2
 194 132 l 1
 196 104 207 89 232 78 c 0
 248 72 262 69 278 69 c 0
 299 69 321 74 349 84 c 0
 379 95 400 106 420 132 c 0
354 32 m 1
 350 32 l 2
 329 32 303 18 275 14 c 0
 251 11 232 6 214 6 c 0
 204 6 196 7 186 10 c 0
 147.345 21.5967 119.3 39.2568 108 78 c 0
 101 102 97 125 97 148 c 0
 97 194 112 240 146 296 c 0
 193.03 373.462 235.726 416.683 320 450 c 0
 363 467 401 476 436 476 c 0
 477 476 513 464 546 439 c 0
 575 417 582 389 582 354 c 0
 582 210.478 535.903 147.857 473 36 c 0
 434.947 -31.6679 401.124 -63.8869 341 -113 c 0
 265.57 -174.616 216 -212 129 -245 c 0
 81 -263 68 -263 8 -263 c 1
 2 -258 -2 -251 -2 -244 c 0
 -2 -237 1 -229 6 -221 c 1
 108 -137 134 -149 213 -95 c 0
 270 -57 306 -27 354 32 c 1
EndSplineSet
Validated: 1
Substitution2: "'pnum' Proportional Numbers in Latin lookup 2-1" uniE019
EndChar

StartChar: less
Encoding: 60 60 28
Width: 372
VWidth: 1080
Flags: W
HStem: 372 63<318.1 423.405>
LayerCount: 2
Fore
SplineSet
430 410 m 0
 430 397.088 408.856 372 390 372 c 0
 384 372 377 373 371 373 c 0
 367 373 363 373 359 371 c 0
 300 340 246 318 157 263 c 1
 175 202 236 182 291 122 c 1
 293 115 296 108 296 102 c 0
 296 95 293 89 283 83 c 1
 230 69 217 72 172 69 c 0
 171 69 170 69 169 69 c 0
 129 69 104 111 102 146 c 0
 102 161 54 214 54 247 c 0
 54 256 57 263 67 268 c 1
 88 286 146 326 202 360 c 0
 251 389 271 420 335 431 c 0
 349 434 364 435 377 435 c 0
 400 435 420 430 428 416 c 0
 429 414 430 412 430 410 c 0
EndSplineSet
Validated: 1
EndChar

StartChar: question
Encoding: 63 63 31
Width: 474
Flags: W
HStem: 33 145<101.212 192.164>
VStem: 68 158<67.916 145.179> 178 56<223.178 295.014> 296 178<641.431 725.503> 437 58<513.787 594.526>
LayerCount: 2
Fore
SplineSet
174 178 m 0xc0
 206.558 178 226 158.256 226 123 c 0
 226 103 217 81 197 60 c 0
 178 39 158 35 134 33 c 0
 131 33 128 33 125 33 c 0
 107 33 95 38 86 51 c 0
 76 65 68 79 68 96 c 0
 68 107 71 119 80 132 c 0
 99.7057 163.748 134.2 178 174 178 c 0xc0
234 228 m 1xa8
 226 223 219 221 212 221 c 0
 196 221 184 232 178 246 c 1
 190 354 201 384 248 489 c 1
 289 501 312 504 329 504 c 0
 344 504 354 502 368 502 c 0
 378 502 391 503 408 507 c 1
 427 521 437 539 437 556 c 2
 437 561 l 1xa8
 432 605 384.066 599.085 352 624 c 0
 330.045 641.058 296 638 296 669 c 1
 302 711 317 734 352 750 c 1
 364 751 375 752 384 752 c 0
 424 752 440 741 474 714 c 1x90
 485 674 495 649 495 617 c 0
 495 603 493 588 489 569 c 0
 476 515 478 477 417 432 c 0
 370 398 333 417 287 372 c 1
 271 321 247 288 234 228 c 1xa8
EndSplineSet
Validated: 1
EndChar

StartChar: at
Encoding: 64 64 32
Width: 736
VWidth: 1080
Flags: W
HStem: -10 55<308.832 447.347> 188 77<310.222 376.981> 537 73<445.487 525.337> 646 96<392.68 427.626> 695 64<472.042 591.783>
VStem: 87 117<162.909 425.143> 210 99<253.5 356.151> 675 105<336.362 578.374>
LayerCount: 2
Fore
SplineSet
346 723 m 0xef
 353 726 357 726 364 728 c 1
 374 684 378 671 378 663 c 0
 378 656 375 653 370 638 c 1
 330 594 300 574 268 524 c 0
 242 483 239 454 220 410 c 1
 211 359 204 317 204 275 c 0
 204 234 211 194 232 148 c 1
 273 111 285 72 336 52 c 0
 348 47 358 45 369 45 c 0
 381 45 392 48 406 52 c 0
 482 75 522.921 106.067 574 166 c 0
 620.927 221.062 635 264 652 334 c 0
 665 388 675 431 675 476 c 0
 675 504 671 534 662 568 c 0
 650 616 636 647 596 676 c 0
 578 689 562 695 542 695 c 0xef
 536 695 530 695 524 694 c 0
 474 688 457 655 440 646 c 1
 435 645 431 644 428 644 c 0
 420 644 413 646 404 646 c 1
 393 657 390 671 390 685 c 0
 390 699 393 714 393 729 c 0
 393 733 393 738 392 742 c 1xf7
 426 747 446 756 479 756 c 0
 482 756 485 756 488 756 c 0
 499 758 509 759 517 759 c 0
 560 759 584 741 620 720 c 1
 669 684 713 671 741 616 c 0
 769 560 780 512 780 461 c 0
 780 422 773.828 381.032 765 334 c 0
 748.682 247.06 722.79 199.166 668 130 c 0
 630.858 83.1126 599.987 63.0224 548 34 c 0
 499.609 6.98507 433.181 -10 366 -10 c 0
 343 -10 320 -7 292 0 c 0
 240 13 219 40 172 66 c 1
 108 125 102 171 90 276 c 1
 89 303 87 326 87 348 c 0
 87 384 91 418 102 462 c 0
 118 526 130 566 174 616 c 0
 226 675 274 691 346 723 c 0xef
355 196 m 0
 340 190 328 188 315 188 c 0
 306 188 296 189 285 191 c 0
 258 196 237 198 222 221 c 0
 213 234 210 247 210 260 c 0
 210 277 215 295 220 315 c 0
 236 383 261.063 417.952 303 473 c 0
 341.057 522.956 366 551 420 583 c 0
 448 600 467 610 496 610 c 2
 504 610 l 1
 535 608 547 576 575 576 c 2
 580 576 l 1
 600 578 602 608 620 608 c 0
 621 608 622 608 623 608 c 0
 642 606 653 590 656 571 c 1
 646 497 601 466 575 398 c 1
 560 365 537 347 537 314 c 2
 537 306 l 1
 538 291 547 283 558 274 c 0
 567 266 580 273 585 263 c 0
 588 258 589 252 589 247 c 0
 589 238 585 229 580 220 c 0
 572 205 563 199 548 193 c 0
 530 186 513 179 498 179 c 0
 487 179 477 182 467 189 c 0
 448 201 449 221 447 243 c 0
 447 245 447 247 447 249 c 0
 447 264 453 273 456 290 c 0
 456 291 456 292 456 293 c 0
 456 295 456 296 455 296 c 0
 448 296 422.961 256.042 407 241 c 0
 387.953 223.05 380 207 355 196 c 0
309 296 m 0
 309 278.525 322.697 265 342 265 c 0
 368 265 390 293 414 313 c 0
 462 352 481 384 508 439 c 0
 518 460 529 475 529 496 c 0
 529 520.221 517.659 537 493 537 c 0
 468 537 450 518 427 500 c 0
 389 471 377 444 351 403 c 0
 328.551 366.831 309 347.889 309 296 c 0
EndSplineSet
Validated: 1
EndChar

StartChar: uni007F
Encoding: 127 127 33
Width: 1597
VWidth: 1000
Flags: W
HStem: 9 54<242.561 516.222 1060.03 1313.62> 85 109<1112 1155.5> 149 31<1241.56 1288.51> 323 81<432.372 544.181> 341 64<412.85 512.628> 341 54<407.114 476.966> 354 77<245.527 285.009> 517 85<388 574.667> 570 55<1222.89 1363.45> 573 144<1107 1176> 725 68<397.72 567.85> 755 39<1162.16 1384.29>
VStem: 24 51<199.306 451.882> 319 61<430.423 501.905> 325 75<246.143 338.316> 722 89<293.378 454.157> 953 68<231.327 489.44> 1142 49<194.87 468.79> 1507 69<356.767 627.952>
LayerCount: 2
Fore
SplineSet
1142 521 m 0xc049e0
 1142 562 1133 573 1113 573 c 0
 1101 573 1094 564 1083 558 c 0
 1067 550 1047 551 1044 533 c 0
 1027 429 1030 329 1021 261 c 0
 1021 260 1021 259 1021 258 c 0
 1021 235 1050 230 1072 218 c 0
 1086 211 1106 194 1118 194 c 0
 1136 194 1130.62 266.019 1135 355 c 0
 1137.76 411.012 1140 442 1141 498 c 0
 1141 510 1142 513 1142 521 c 0xc049e0
324 319 m 2
 324 349.672 310.324 367 286 367 c 0
 265 367 235 354 230 354 c 0
 226 354 222 356 219 360 c 0
 213 369 225 377 231 387 c 0
 253 422 257 428 286 431 c 0x820be0
 293 432 299 426 305 430 c 0
 316 439 319 450 319 461 c 0
 319 475 315 489 315 505 c 0
 315 520 318 520 318 543 c 0
 318 551 317 560 317 568 c 0
 317 604 324 607 376 607 c 0
 393 607 402 606 424 606 c 0
 450 605 465 602 489 602 c 0
 556 602 560 615 592 633 c 0
 598 637 599 624 604 618 c 1
 608 611 616 607 614 598 c 0
 612 590 600 594 596 587 c 0
 594 583 593 580 593 577 c 0
 593 561 627 558 630 542 c 0
 632 532 623 527 616 520 c 0
 613 517 600 501 576 501 c 0
 547 501 554 517 493 517 c 0
 450 517 408 510 387 502 c 0
 382 500 380 496 380 492 c 0
 380 483 388 471 389 459 c 0
 392 404 393 395 412 395 c 0x850de0
 430 395 456 405 478 405 c 0x880de0
 485 405 485 404 496 404 c 0
 514 404 532 408 548 408 c 0
 581 408 583 386 583 383 c 0
 583 372 564 370 554 360 c 0
 542 348 540 323 513 323 c 0x900de0
 506 323 439 341 432 341 c 0
 425 341 405 337 405 303 c 0
 405 297 405 291 405 285 c 0
 405 267 400 248 400 224 c 0
 400 195 409 181 409 176 c 0
 409 166 393 162 384 154 c 0
 372 144 366 132 353 132 c 2
 351 132 l 2
 333 132 328 149 314 160 c 0
 294 175 285 196 260 196 c 0
 242 196 208 174 194 159 c 1
 188 151 192 138 182 136 c 0
 173 135 173 147 167 152 c 0
 161 156 149 154 151 161 c 0
 159 193 173 208 199 225 c 0
 255 260 325 225 325 271 c 0x880be0
 325 279 324 287 324 296 c 2
 324 319 l 2
222 93 m 0
 276.07 71.1722 307 63 391 63 c 0
 552 63 622 151 660 201 c 0
 684 233 722 282 722 353 c 0
 722 392 708.804 420.951 698 464 c 0
 681.705 528.926 679 570 642 626 c 0
 615 668 594 694 548 712 c 0
 524 721 503 725 482 725 c 0x8029e0
 461 725 439 721 414 714 c 0
 328 691 286 654 218 596 c 0
 156 543 75 473 75 353 c 0
 75 218 103 181 126 150 c 0
 152 115 182.051 109.127 222 93 c 0
924 582 m 0
 888 538 811 462 811 359 c 0
 811 319 826.012 292.007 848 254 c 0
 885.02 190.011 917.055 156.091 980 118 c 0
 1036.05 84.0814 1077 82.0179 1142 70 c 0
 1169 65.0074 1188 61 1211 61 c 0
 1333 61 1388.81 107.11 1424 168 c 0
 1462.79 235.121 1507 315 1507 511 c 0
 1507 567 1498.84 614.907 1466 672 c 0
 1445.9 706.943 1423 722 1386 736 c 0
 1350 749 1319 755 1288 755 c 0x8019e0
 1258 755 1228.02 749.879 1192 743 c 0
 1128.04 730.786 1094.09 711.853 1038 678 c 0
 988.079 647.869 961 627 924 582 c 0
447 10 m 2
 431 10 390 9 365 9 c 0
 324 9 287.017 12.0685 238 24 c 0
 176.021 39.0867 132 44 88 90 c 0
 45 135 42 178 31 240 c 0
 26 269 24 292 24 315 c 0
 24 413 50.0184 503.984 120 583 c 0
 174.014 643.987 213.122 670.805 282 714 c 0
 385.183 778.708 461 793 506 793 c 0
 513 793 520 793 527 793 c 0x8029e0
 577 793 614 791 652 765 c 0
 703 730 710 686 736 630 c 0
 759 580 781 474 783 474 c 0
 785 474 864.092 619.879 938 676 c 0
 1022.1 739.863 1145 784 1216 790 c 0
 1244 792 1268 794 1290 794 c 0
 1443 794 1502 713 1506 708 c 0
 1541 667 1554 638 1566 582 c 0
 1573 548 1576 520 1576 494 c 0
 1576 430 1558 379 1540 294 c 0
 1522 213 1483 175 1430 112 c 1
 1373 46 1338 23 1196 16 c 0
 1164 14 1135 13 1109 13 c 0
 924 13 844 98 818 123 c 0
 791 149 774 292 759 292 c 0
 754 292 736 241 728 231 c 2
 634 108 l 2
 601 66 557 10 473 10 c 2
 447 10 l 2
1451 530 m 0
 1451 511 1431 493 1417 493 c 0
 1413 493 1409 494 1406 498 c 0
 1392 514 1380 515 1372 532 c 0
 1358 560 1355 570 1292 570 c 0
 1255 570 1221 562 1216 532 c 0
 1201 455 1191 372 1191 252 c 0
 1191 170 1193 170 1203 170 c 0
 1213 170 1227 176 1238 176 c 0
 1239 176 1240 176 1241 176 c 0
 1253 176 1261 180 1272 180 c 0
 1278 180 1296 177 1296 172 c 0
 1296 165 1268 155 1256 149 c 0xa089e0
 1237 139 1221 146 1202 135 c 0
 1178 121 1160 85 1151 85 c 0
 1144 85 1146 94 1118 114 c 2
 1083 138 l 2
 1055 158 1035.03 164.043 1008 185 c 0
 986.027 202.035 953 204 953 231 c 2
 953 231 953 295 956 336 c 0
 960 390 955.153 404.967 970 474 c 0
 980.104 520.978 1011 537 1045 571 c 0
 1078 604 1111 606 1141 642 c 0
 1161 666 1148 717 1168 717 c 0xc049e0
 1184 717 1179 697 1184 684 c 0
 1190 667 1182.03 652.036 1195 640 c 0
 1210.04 626.041 1225 624 1242 624 c 0
 1251 624 1260 625 1269 625 c 0x8089e0
 1287 625 1308 621 1323 621 c 0
 1362 621 1358.07 633.81 1381 642 c 0
 1395 647 1406 658 1417 658 c 0
 1429 658 1436 651 1436 640 c 0
 1436 636 1435 632 1434 628 c 0
 1430 613 1407 620 1407 598 c 0
 1407 569 1451 556 1451 530 c 0
EndSplineSet
Validated: 1
EndChar

StartChar: cent
Encoding: 162 162 35
Width: 313
Flags: W
HStem: 221 44<214 260.26> 459 98<335.078 373.665>
VStem: 71 71<278.272 398.781>
LayerCount: 2
Fore
SplineSet
231 493 m 1
 218 484 210.05 473.963 199 459 c 0
 170.13 419.904 156 394 147 353 c 0
 144 341 142 330 142 321 c 0
 142 307 146 296 154 284 c 0
 156 281 158 279 160 278 c 1
 162 285 165 294 169 304 c 2
 231 493 l 1
385 504 m 0
 385 483.962 369.662 459 350 459 c 0
 349 459 348 459 347 459 c 0
 333 459 335 475 326 484 c 0
 321 489 318 495 314 500 c 1
 296 454 279 413 253 352 c 1
 214 265 l 1
 221 265 229 267 238 272 c 1
 259 281 268 294 281 312 c 0
 287 320 295 324 301 324 c 0
 310 324 316 318 316 311 c 0
 316 309 316 306 315 304 c 0
 298 263 302 268 283 250 c 0
 265 234 250 231 228 224 c 0
 218 221 211 221 204 221 c 2
 193 221 l 1
 154 140 l 1
 141 127 127 116 118 116 c 0
 114 116 111 118 109 121 c 1
 123 172 131 200 139 222 c 1
 137 222 135 223 133 223 c 0
 113 229 103 236 91 251 c 1
 79 271 71 287 71 310 c 0
 71 314 71 319 72 325 c 0
 77 365 87 393 114 434 c 0
 141 475 161 501 204 527 c 0
 221 537 236 545 251 550 c 1
 260 577 272 607 285 640 c 1
 306 662 324 674 339 674 c 0
 352 674 362 666 368 650 c 1
 356 614 345 584 335 557 c 1
 353 555 364 551 376 531 c 1
 382 523 385 514 385 504 c 0
EndSplineSet
Validated: 1
EndChar

StartChar: sterling
Encoding: 163 163 36
Width: 708
VWidth: 1080
Flags: W
HStem: 22 51<274.188 509.083> 38 71<36.8255 158.767> 321 126<200.488 283> 324 137<464 556.053> 632 107<527.034 611.59>
LayerCount: 2
Fore
SplineSet
283 321 m 1x68
 231 321 188.08 329.06 165 360 c 0
 162.01 364.008 161 368 161 372 c 0
 161 389 177 411 197 423 c 0
 234 445 269 447 307 447 c 2
 333 447 l 1x68
 347 484 375 528 379 577 c 1
 379 581 l 2
 379 607 354 617 354 640 c 0
 354 645 355 651 358 657 c 0
 386.762 716.037 456.123 739 536 739 c 0
 617 739 674 704 709 637 c 0
 715 626 718 607 718 590 c 0
 718 570 713 551 700 551 c 0
 698 551 697 552 695 552 c 0
 600 576 624 632 578 632 c 0
 540.807 632 523.874 611.134 508 586 c 1
 464 460 l 1
 470 460 475 461 481 461 c 0
 489 461 497.996 459.962 507 459 c 0
 545.982 454.835 581 462 596 432 c 0
 600 424 603 415 603 405 c 0
 603 389 596 372 579 360 c 0
 531 325 477 325 415 324 c 1
 391 261 325 219 272 95 c 1
 323 81 362 73 401 73 c 0x98
 450 73 497 85 568 112 c 1
 593 175 578 195 610 252 c 0
 619 269 632 273 648 273 c 0
 665 273 684 268 704 268 c 0
 708 268 713 268 718 269 c 1
 698 152 698 152 638 24 c 1
 638 24 606 35 583 38 c 1x48
 436 30 365 22 277 22 c 0x88
 213 22 141 26 24 38 c 1
 19 46 16 52 16 57 c 0
 16 67 28 77 58 109 c 1
 66 109 74 110 80 110 c 0
 98 110 107 108 114 108 c 0
 123 108 128 110 144 121 c 0
 226 174 255 252 283 321 c 1x68
EndSplineSet
Validated: 1
EndChar

StartChar: currency
Encoding: 164 164 37
Width: 340
VWidth: 1000
Flags: W
HStem: 225 35<54.023 101.534> 254 26<187.24 248.823> 425 29<231.353 286.857> 446 33<133.262 169.805> 454 27<218.283 233.093 351.685 396.167>
VStem: 138 44<291.621 372.347> 294.157 36.843<334.922 421.24>
LayerCount: 2
Fore
SplineSet
202 377 m 0x66
 186 353 182 332 182 317 c 0
 182 301 187 291 187 291 c 1
 192 284 205 280 218 280 c 0
 225 280 232 281 237 284 c 0
 276.808 307.695 294.157 368.221 294.157 387.247 c 0
 294.157 388.295 294.104 389.217 294 390 c 0
 290 414 278 425 263 425 c 0
 245 425 222 408 202 377 c 0x66
220 436 m 1
 240 448 262 454 281 454 c 0x26
 297 454 311 449 317 441 c 1
 322 446 329 451 338 459 c 1
 339 466 323 460 323 467 c 0
 323 472 328 477 333 479 c 1x16
 358 479 365 481 370 481 c 0
 376 481 379 479 397 472 c 1
 399 467 395 459 388 454 c 0
 381 450 377 457 369 454 c 1
 350 440 338 429 328 421 c 1
 330 416 331 409 331 402 c 0
 331 366 307 313 279 284 c 1
 283 276 288 266 296 252 c 1
 301 249 310 257 314 252 c 0
 318 248 317 240 310 234 c 1
 288 227 283 225 278 225 c 0x8e
 272 225 266 227 242 227 c 1
 238 230 237 234 240 239 c 0
 245 247 257 241 262 248 c 1
 258 254 256 260 254 264 c 1
 238 255 224 254 213 254 c 2
 202 254 l 2x46
 199 254 194 253 190 253 c 0
 179 253 165 255 155 266 c 1
 152 262 144 257 145 253 c 0
 146 247 160 255 160 248 c 0
 161 239 147 235 138 227 c 1
 114 227 103 225 89 225 c 0
 82 225 74 225 63 227 c 1
 62 230 54 236 54 243 c 0
 54 248 59 254 75 260 c 0
 86 264 92 252 102 260 c 2
 140 292 l 1
 139 297 138 302 138 308 c 0
 138 345 169 390 186 410 c 1
 170 446 l 2
 166 454 151 442 143 446 c 0
 135 450 132 454 132 458 c 0
 132 468 151 476 155 479 c 1x96
 167 481 176 481 183 481 c 0x0e
 197 481 206 479 230 479 c 1x16
 233 471 244 468 237 458 c 0
 232 452 224 460 218 454 c 0x0e
 214 449 219 444 218 440 c 1
 220 436 l 1
EndSplineSet
Validated: 1
EndChar

StartChar: yen
Encoding: 165 165 38
Width: 735
VWidth: 1080
Flags: W
HStem: 4 61 90 94<129.924 197> 92 102<346.421 448.861> 234 94<182.147 257> 236 101<442 501.148> 617 82<582.345 643> 639 69<717.561 840.512> 642 55<342.376 443.014>
VStem: 271 88<332.609 416.544>
LayerCount: 2
Fore
SplineSet
138 609 m 0xd480
 125.416 609 120 627.852 120 639 c 0x8280
 120 657 129 676 148 691 c 1
 227 697 256 699 273 699 c 0x8480
 290 699 294 697 328 697 c 0
 349 697 381 698 435 700 c 1
 441 694 445 685 445 676 c 0
 445 667 442 658 433 649 c 0
 425 640 416 638 406 638 c 0
 394 638 380 642 368 642 c 0x8180
 359 642 350 640 342 631 c 1
 343 505 359 461 359 369 c 0
 359 357 359 345 358 332 c 1
 367 333 l 1
 643 614 l 1
 615 628 570 615 570 649 c 0
 570 669 590 688 614 700 c 1
 697 706 706 708 719 708 c 0
 732 708 748 706 845 700 c 1
 849 695 851 689 851 682 c 0
 851 671 845 659 834 649 c 0
 822 637 810 634 798 634 c 0
 782 634 767 639 750 639 c 0
 739 639 729 637 717 631 c 1
 612 517 541 431 442 337 c 1
 446 337 l 1
 480 334 507 334 521 317 c 0
 527 310 531 302 531 294 c 0
 531 284 524 273 509 263 c 0
 468 235 421 237 366 236 c 1
 346 193 l 1
 355 194 363 194 373 194 c 0
 409.475 194 454.1 191.093 469 173 c 0
 475 166 479 158 479 150 c 0
 479 140 472 129 457 119 c 0
 416 91 368 93 313 92 c 1xaa80
 311 85 309 77 307 68 c 0
 307 66 306 65 306 64 c 0
 306 59 310 57 316 57 c 0
 328 57 350 66 366 66 c 0
 379.987 66 387 55.2757 387 43 c 0
 387 34 383 25 374 17 c 1
 280 8 247 4 212 4 c 0
 180 4 147 7 66 14 c 1
 64 17 64 20 64 24 c 0
 64 43.1048 91.9204 73 118 73 c 0
 134 73 149 65 164 65 c 0
 172 65 181 67 190 74 c 1
 197 90 l 1
 160 91 130 98 112 119 c 0
 108 123 107 128 107 132 c 0
 107 144 118 156 137 166 c 0
 170 184 202 184 238 184 c 1
 245 201 251 217 257 234 c 1
 217 234 183 241 164 263 c 0
 161 267 159 271 159 275 c 0
 159 287 171 300 189 310 c 0
 216 325 242 328 271 328 c 1
 252 436 216 490 188 614 c 1
 185 616 181 617 177 617 c 0
 164 617 149 609 138 609 c 0xd480
EndSplineSet
Validated: 1
EndChar

StartChar: brokenbar
Encoding: 166 166 39
Width: 243
VWidth: 1080
Flags: W
VStem: 23 115<24.7238 102.064>
LayerCount: 2
Fore
SplineSet
292 720 m 0
 323.922 720 335 708.336 335 674 c 0
 335 619 302 523 272 442 c 1
 257 440 241 438 222 435 c 0
 197.967 431.205 177 431 157 430 c 1
 252 696 l 2
 252 697 252 698 252 699 c 0
 252 714 272 720 292 720 c 0
221 307 m 1
 183 208 149 123 138 39 c 0
 136 22 116 16 94 16 c 0
 61 16 23 29 23 43 c 0
 23 45 23 47 25 49 c 1
 70 171 90 233 115 306 c 1
 124 304 133 304 143 304 c 0
 165 304 188 306 212 307 c 0
 215 307 218 307 221 307 c 1
EndSplineSet
Validated: 1
EndChar

StartChar: section
Encoding: 167 167 40
Width: 423
Flags: W
HStem: -235 71<64.5 181.256> 585 124<409.666 492.374> 623 86<352.947 434.883>
VStem: 202 95<-129.124 11.7504> 346 86<131.496 223.746>
LayerCount: 2
Fore
SplineSet
519 656 m 0xd8
 519 611.45 468.958 588.269 433 585 c 1
 431 585 l 2xd8
 407 585 411 623 391 623 c 0xb8
 389 623 386 622 383 621 c 0
 337 604 323 555 317 513 c 0
 316 507 316 502 316 497 c 0
 316 440 363.621 423.881 381 369 c 0
 400 309 432 274 432 218 c 0
 432 201 430 183 423 162 c 0
 401 93 349 51 292 0 c 1
 295 -16 297 -31 297 -47 c 0
 297 -84 286 -122 251 -162 c 0
 205.905 -214.794 156.245 -235 87 -235 c 0
 42 -235 7 -222 1 -180 c 1
 1 -176 l 2
 1 -143.664 47.9903 -112 82 -112 c 0
 92 -112 103 -114 114 -117 c 0
 138 -123 131 -164 152 -164 c 0
 155 -164 158 -163 161 -162 c 0
 187 -152 187 -124 193 -99 c 0
 200 -73 202 -52 202 -32 c 0
 202 -7 198 16 191 45 c 0
 175 118 178.947 158.928 110 210 c 0
 83 230 68 257 68 290 c 0
 68 311 74.1112 334.943 87 360 c 0
 116.252 416.87 186 415 228 468 c 0
 281 535 242 594 305 654 c 0
 344 692 384 709 428 709 c 0
 432 709 437 708 442 708 c 0
 481 705 519 690 519 656 c 0xd8
264 351 m 1
 261 355 258 357 255 357 c 0
 236 357 217 281 217 237 c 0
 217 233 218 229 218 225 c 0
 221 192 256 194 268 165 c 0
 269 162 269 160 269 157 c 0
 269 150 268 144 268 138 c 0
 268 133 269 129 272 126 c 0
 283 113 311 98 328 98 c 0
 336 98 342 101 343 111 c 0
 344 136 346 152 346 164 c 0
 346 187 341 198 326 225 c 1
 279 261 271 288 264 351 c 1
EndSplineSet
Validated: 1
EndChar

StartChar: dieresis
Encoding: 168 168 41
Width: 268
VWidth: 1080
Flags: W
HStem: 355.2 105.6<108.605 179.162 228.605 299.162>
VStem: 99.0557 92.4003<374.934 451.49> 219.056 92.4<374.934 451.49>
LayerCount: 2
Fore
SplineSet
191.456 401.4 m 0
 191.456 374.804 166.398 355.2 142.855 355.2 c 0
 124.292 355.2 112.292 360.312 106.256 374.4 c 0
 102.056 385.8 99.0557 396 99.0557 406.2 c 0
 99.0557 433.5 119.045 460.8 144.056 460.8 c 0
 162.656 460.8 174.056 450 181.855 433.8 c 0
 187.855 423 191.456 412.2 191.456 401.4 c 0
311.456 401.4 m 0
 311.456 374.804 286.398 355.2 262.855 355.2 c 0
 244.292 355.2 232.292 360.312 226.256 374.4 c 0
 222.056 385.8 219.056 396 219.056 406.2 c 0
 219.056 433.5 239.045 460.8 264.056 460.8 c 0
 282.656 460.8 294.056 450 301.855 433.8 c 0
 307.855 423 311.456 412.2 311.456 401.4 c 0
EndSplineSet
Validated: 1
EndChar

StartChar: copyright
Encoding: 169 169 42
Width: 450
VWidth: 1000
Flags: W
HStem: 4 63<154.923 292.961> 165 14.3319<275.652 302.109> 287 54<333.076 361> 334 17<276.504 322.658> 411 67<264.989 386.335>
VStem: 36 100<85.5532 232.792> 197 38.4852<194.131 291.208> 405 88<253.238 393.422>
LayerCount: 2
Fore
SplineSet
187 5 m 0xcf
 174 4 164 4 154 4 c 0
 111 4 83 21 64 47 c 1
 46 74 36 96 36 126 c 0
 36 134 37 142 38 150 c 0
 45 207 59 246 96 303 c 0
 134 361 162 398 222 434 c 0
 276 467 317 478 368 478 c 2
 381 478 l 1
 421 476 441 476 464 440 c 0
 482 412 493 393 493 352 c 0
 493 322 485 298 474 262 c 1
 458 215 448 187 419 142 c 1
 391 101 373 76 333 46 c 0
 305 25 287 18 256 9 c 0
 241 5 230 4 218 4 c 0
 209 4 199 5 187 5 c 0xcf
274 394 m 0
 247 380 234 364 216 339 c 0
 175 284 154 248 142 190 c 0
 138 172 136 157 136 144 c 0
 136 125 140 109 152 93 c 1
 164 75 182 74 207 70 c 0
 218 69 227 67 236 67 c 0
 246 67 257 69 271 76 c 0
 300 89 312 107 331 133 c 0
 370 186 386 222 398 278 c 0
 402 297 405 312 405 326 c 0
 405 342 401 357 394 374 c 0
 386 392 379 403 358 408 c 0
 349 410 341 411 333 411 c 0
 314 411 296 406 274 394 c 0
341 222 m 0
 342 219 342 216 342 212 c 0
 342 205 341 197 340 189 c 0
 339 177 342 169 334 160 c 1
 332 156 328 153 324 155 c 0
 321 156 325 161 322 164 c 0
 318 168 313 165 307 165 c 0
 287 164 276 155 256 155 c 0
 255 155 254 155 253 155 c 0
 240 155 232 157 221 164 c 0
 212 169 210 176 202 183 c 1
 199 192 197 201 197 209 c 0
 197 221 199 233 201 248 c 1
 223 311 l 1
 237 333 252 338 279 345 c 1
 291 350 298 351 310 351 c 2
 327 351 l 1xdf
 334 347 337 343 345 341 c 0
 352 339 356 341 363 341 c 1
 365 337 365 333 365 329 c 0
 365 317 361 303 361 291 c 0
 361 290 361 289 361 288 c 1
 356 288 352 284 346 287 c 0xef
 340 290 341 296 337 302 c 0
 330 313 324 334 305 334 c 0xdf
 273 334 257 310 245 288 c 1
 239.22 274.788 235.485 258.849 235.485 241.871 c 0
 235.485 238.288 235.651 234.659 236 231 c 0
 237 219 236 211 242 201 c 0
 249.287 188.855 260.508 179.332 275.662 179.332 c 0
 279.224 179.332 283.003 179.858 287 181 c 0
 297 184 304 186 312 193 c 0
 322 201 320 213 330 220 c 0
 334 222 340 226 341 222 c 0
EndSplineSet
Validated: 1
EndChar

StartChar: logicalnot
Encoding: 172 172 45
Width: 346
Flags: W
HStem: 86 240<211.64 297.192> 187 129<95.9259 210.999>
VStem: 211 150<179.5 272>
LayerCount: 2
Fore
SplineSet
237 86 m 0xa0
 206.651 86 199 96.734 199 123 c 0
 199 150 211 174 211 185 c 0
 211 188 210 190 207 190 c 2
 206 190 l 1
 182 189 158 187 137 187 c 0
 101 187 72 194 60 226 c 0
 59 230 58 233 58 237 c 0
 58 255 70 273 89 289 c 0
 133 324 167 308 216 316 c 0x60
 243 320 262 326 284 326 c 0
 289 326 294 326 300 325 c 0
 326 321 348 321 356 298 c 0
 360 287 361 277 361 267 c 0
 361 220 326 175 300 113 c 0
 292 95 262 86 237 86 c 0xa0
EndSplineSet
Validated: 1
EndChar

StartChar: registered
Encoding: 174 174 47
Width: 444
VWidth: 1000
Flags: W
HStem: 4 63<157.923 295.273> 149 26<248 264> 150 17<193 218.797> 325.735 10.265<231.398 256.452 273 307.614> 411 67<267.989 389.335>
VStem: 39 100<85.5532 232.792> 301 49<152.391 174.906> 330 31<262.985 323.348> 408 88<255.485 393.422>
LayerCount: 2
Fore
SplineSet
190 5 m 0xbc80
 177 4 166 4 156 4 c 0
 146 4 136 4 126 8 c 1
 98 16 83 25 67 47 c 1
 49 74 39 96 39 126 c 0
 39 134 40 142 41 150 c 0
 47 207 62 246 99 303 c 0
 136 361 165 398 225 434 c 0
 279 467 320 478 371 478 c 2
 384 478 l 1
 424 476 444 476 467 440 c 0
 485 412 496 393 496 352 c 0
 496 322 488 298 476 262 c 0
 461 215 451 187 422 142 c 1
 394 101 376 76 336 46 c 0
 308 25 290 18 259 9 c 0
 244 5 233 4 221 4 c 0
 212 4 202 5 190 5 c 0xbc80
277 394 m 0
 249 380 237 364 218 339 c 0
 177 284 157 248 145 190 c 0
 141 172 139 157 139 144 c 0
 139 125 143 109 155 93 c 1
 167 75 185 74 210 70 c 0
 220 69 229 67 239 67 c 0
 249 67 260 69 274 76 c 0
 302 89 315 107 334 133 c 0
 373 186 389 222 401 278 c 0
 405 297 408 312 408 326 c 0
 408 342 404 357 397 374 c 0
 389 392 382 403 361 408 c 0x9d80
 352 410 344 411 336 411 c 0
 317 411 299 406 277 394 c 0
265 170 m 0
 270 164 264 158 264 150 c 1xbe80
 262 150 261 149 259 149 c 0xde80
 253 149 245 152 236 152 c 0
 232 152 228 151 223 150 c 1
 212 152 202 149 193 150 c 1
 193 157 189 162 193 167 c 0
 199 174 207 169 216 170 c 1
 232 196 230 219 243 248 c 1
 247 265 248 275 253 291 c 0
 256 299 261 302 261 310 c 1
 266 329 239 317 233 322 c 1
 230 326 232 330 231 335 c 1
 233 337 237 338 242 338 c 0
 250 338 261 336 273 336 c 0
 278 336 282 336 287 337 c 1
 310 334 343 338 354 318 c 0
 359 311 361 304 361 297 c 0xbd80
 361 273 347 263 332 252 c 0
 323 246 307 243 304 233 c 0
 302 224 310 219 314 211 c 0
 321 198 321 187 332 178 c 0
 337 175 344 180 347 175 c 0
 349 173 350 170 350 168 c 0xde80
 350 159 339 151 330 151 c 0xdd80
 327 151 324 152 322 153 c 1
 309 158 307 170 301 183 c 0
 294 199 288 207 283 229 c 0
 282 234 276 233 271 232 c 0
 263 230 262 224 256 218 c 1
 255 203 248 190 248 179 c 2
 248 175 l 1xde80
 255 173 261 176 265 170 c 0
269 251 m 2
 267 242 284 247 293 248 c 0
 305 250 312 253 319 262 c 0
 327 272 330 281 330 291 c 0x9d80
 330 305 327 316 317 322 c 1
 313.684 324.595 310.556 325.735 307.614 325.735 c 0
 290.151 325.735 279.279 285.549 275 271 c 2
 269 251 l 2
EndSplineSet
Validated: 1
EndChar

StartChar: macron
Encoding: 175 175 48
Width: 346
Flags: W
HStem: 381.8 77.4<97.2737 370.723>
VStem: 87 295<396.622 447.295>
LayerCount: 2
Fore
SplineSet
96 405.2 m 0
 90 410 87 415.4 87 421.4 c 0
 87 428.6 93 436.4 102 443 c 0
 133 464 173 454.4 219 459.2 c 0
 244 461.6 261 465.2 284 465.2 c 0
 316.117 465.2 348.694 462.677 366 448.4 c 0
 376 440.6 382 431.6 382 423.2 c 0
 382 417.2 379 411.2 372 405.2 c 0
 345 381.2 303 384.8 255 383.6 c 0
 231 383 208 381.8 186 381.8 c 0
 150 381.8 119 386 96 405.2 c 0
EndSplineSet
Validated: 1
EndChar

StartChar: degree
Encoding: 176 176 49
Width: 264
VWidth: 1000
Flags: W
HStem: 322 32<141.319 216.491> 526 34<189.832 261.37>
VStem: 83 50<362.734 459.906> 267 45<420.993 524.12>
LayerCount: 2
Fore
SplineSet
142 322 m 0
 107.437 322 83 351.988 83 384 c 0
 83 419.265 92.3904 441.628 113 472 c 0
 132 501 146.047 519.922 176 538 c 0
 204.044 554.927 224 560 249 560 c 2
 256 560 l 1
 276 559 286 559 297 541 c 0
 305 529 310 521 311 506 c 0
 311 503 312 499 312 496 c 0
 312 481 308 469 302 452 c 0
 287.749 409.246 264.667 369.25 231 344 c 1
 215.468 330.858 197.904 323 173 323 c 2
 159 323 l 2
 152 323 146 322 142 322 c 0
267 484 m 0
 267 507.823 257.576 526 232 526 c 0
 204.304 526 185.44 507.969 173 490 c 1
 152 463 142 445 136 416 c 0
 134 407 133 399 133 392 c 0
 133 383 135 375 141 367 c 0
 147.579 357.132 168.139 354 183 354 c 0
 188 354 194 355 200 359 c 1
 215 365 221 374 230 387 c 0
 250 414 258 432 264 460 c 0
 266 470 267 477 267 484 c 0
EndSplineSet
Validated: 1
EndChar

StartChar: acute
Encoding: 180 180 53
Width: 264
VWidth: 1080
Flags: W
HStem: 508 248
VStem: 127 255
LayerCount: 2
Fore
SplineSet
343 756 m 0
 357.599 756 382 746.322 382 727 c 0
 382 717 376 705 370 695 c 0
 346 651 310 646 271 614 c 0
 220 573 207 550 141 508 c 0
 136 505 132 506 127 505 c 1
 127 568 169 598 195 650 c 1
 228 684 237.092 715.805 280 736 c 0
 301.045 745.905 323 756 343 756 c 0
EndSplineSet
Validated: 1
EndChar

StartChar: mu
Encoding: 181 181 54
Width: 498
VWidth: 1080
Flags: W
HStem: -9 105<229.5 345> 34 62<197.403 283.906> 453.284 20G<259.936 271.134 481.5 495.5>
LayerCount: 2
Fore
SplineSet
452 76 m 1xa0
 393 25 383 13 307 -9 c 1xa0
 282 -8 290 8 277 34 c 1x60
 267 37 258 31 246 28 c 0
 205 18 176 29 139 0 c 0
 49 -72 92 -184 10 -244 c 0
 -4 -254 -14 -258 -21 -258 c 0
 -30 -258 -35 -250 -35 -235 c 0
 -35 -160 74 73 77 95 c 1
 128 226 142 266 178 375 c 1
 174 393 146 385 142 404 c 0
 141 412 143 419 151 427 c 0
 181 459 211 463 250 472 c 0
 253.995 472.869 257.991 473.284 261.881 473.284 c 0
 280.387 473.284 296.521 463.873 299 449 c 1
 187 142 l 1
 193 115 213 96 246 96 c 0
 292 96 318 124 345 159 c 1
 429 393 l 1
 425 402 416 403 405 403 c 2
 389 403 l 2
 378 403 367 404 364 415 c 0
 364 417 363 418 363 420 c 0
 363 432 372 445 385 455 c 0
 406 473 424 471 449 474 c 0
 463 476 476 477 487 477 c 0
 504 477 519 474 537 466 c 0
 548 461 560 458 557 444 c 0
 553 428 532 425 521 410 c 1
 418 127 l 1
 436 82 427 104 452 76 c 1xa0
EndSplineSet
Validated: 1
EndChar

StartChar: paragraph
Encoding: 182 182 55
Width: 595
VWidth: 1080
Flags: W
HStem: -5 76<160.606 244.756> 0 79<118.704 197.255> 333 78<249.515 346.248> 666 82<367.211 475.141> 695.579 51.4212<616.866 659.881>
VStem: 92 141<408.621 518.085> 440 115<4.72383 80.9783>
LayerCount: 2
Fore
SplineSet
728 743 m 1x2e
 730 739 734 738 738 736 c 0
 739 735 740 734 741 733 c 0
 750 728 758 720 751 707 c 1
 752 702 752 697 752 691 c 0
 752 615 705 468 674 382 c 0
 623 242 569 128 555 19 c 0
 553 2 533 -4 510 -4 c 0
 478 -4 440 9 440 23 c 0
 440 25 440 27 442 29 c 1
 535 282 523 314 660 692 c 1
 657.475 694.525 654.648 695.579 651.644 695.579 c 0
 639.182 695.579 623.669 677.446 614 671 c 1
 586 590 564 529 517 424 c 1
 476 304 410 204 392 96 c 1
 410 89 438 98 438 79 c 2
 438 78 l 2
 438 56 407 36 387 9 c 1
 362 0 342 -2 322 -2 c 0
 305 -2 289 -0 271 -0 c 0x6e
 255 -0 238 -1 218 -5 c 1xa6
 176 -4 157 0 113 0 c 2
 90 0 l 1
 107 27 101 50 135 70 c 0
 145 76 153 79 160 79 c 0x66
 173 79 182 71 198 71 c 0
 201 71 204 71 208 72 c 0
 222 75 240 73 245 84 c 0
 268 140 259 148 277 192 c 0
 302 251 310 257 347 326 c 1
 331 331 312 333 292 333 c 0
 265 333 236 330 210 330 c 0
 183 330 158 333 142 346 c 0
 126 360 109 362 102 382 c 0
 96 398 92 413 92 429 c 0
 92 448 97 469 107 496 c 0
 124 546 132 582 188 631 c 0
 257 692 317 712 396 735 c 0
 429 745 454 748 476 748 c 0xb6
 501 748 523 744 552 744 c 0
 559 744 566 745 573 745 c 0
 583 744 592 744 601 744 c 0
 633 744 661 747 687 747 c 0
 702 747 715 746 728 743 c 1x2e
478 628 m 0
 478 651 462 666 439 666 c 0x36
 431 666 421 664 409 661 c 0
 372 651 342 631 311 601 c 0
 257 548 244 511 234 462 c 0
 233 458 233 454 233 451 c 0
 233 433 244 426 249 408 c 1
 260 410 270 411 279 411 c 0
 301 411 321 407 341 407 c 0
 358 407 376 410 395 420 c 1
 431 456 423 487 444 528 c 1
 453 565 478 600 478 628 c 0
EndSplineSet
Validated: 1
EndChar

StartChar: AE
Encoding: 198 198 71
Width: 1066
VWidth: 1080
Flags: W
HStem: 4 87<469.031 543.065> 12 72<24.6823 74.2976 75.8921 89.9856 468 531.061 717.728 940.796> 338 63<791 869.875> 341 51<791.047 872.343> 647 101<535.425 663.869> 654 78<578.361 664.76 863.765 1026.71>
LayerCount: 2
Fore
SplineSet
464 60 m 0x80
 464 74.3713 475.728 91 492 91 c 0x80
 508 91 524 78 544 74 c 1
 631 305 l 1
 604 311 588 322 564 322 c 0
 561 322 558 322 555 322 c 0
 489 313 461 275 402 246 c 1
 355 210 372 205 279 132 c 1
 279 125 l 2
 279 119 278 112 278 107 c 0
 278 101 280 95 284 89 c 0
 294 76 312 87 322 74 c 0
 327 67 329 60 329 52 c 0
 329 44 327 36 327 27 c 0
 327 24 328 21 328 18 c 1
 300 9 237 15 176 8 c 1
 163 11 150 12 137 12 c 0
 115 12 94 9 75 9 c 0
 60 9 46 11 33 17 c 1
 25 31 20 44 20 56 c 0
 20 66 24 75 33 84 c 1
 192 104 l 1
 259 162 342 273 429 387 c 1
 584 547 l 1
 608 581 647 590 665 634 c 1
 660 650 648 654 634 654 c 0x44
 615 654 592 647 571 647 c 0
 557 647 544 650 535 661 c 0
 526 672 521 685 521 697 c 0
 521 726.42 551.062 748 577 748 c 0x08
 606 748 637 732 672 732 c 0
 731 732 765 732 824 733 c 0
 872 734 902 739 946 739 c 2
 981 739 l 2
 1000 739 1017 740 1033 740 c 0
 1055 740 1077 737 1100 722 c 0
 1139.54 697.456 1149 661.056 1149 604 c 0
 1149 563 1138 527 1103 500 c 0
 1099 497 1092 496 1089 500 c 0
 1067 542 1073 581 1040 619 c 1
 1021.74 643.342 984.816 654 947 654 c 0
 927 654 908 652 885 652 c 0
 881 652 877 652 873 652 c 1
 848 598 791 483 791 401 c 1
 792 401 793 401 794 401 c 0x24
 823 401 847 392 871 392 c 0
 884 392 897 395 911 403 c 0
 942 421 927 466 959 483 c 0
 966 487 972 488 978 488 c 0
 993 488 1007 481 1025 480 c 1
 1002 397 987 304 949 258 c 1
 933 258 920 251 907 251 c 0
 890.874 251 879 264.087 879 279 c 0
 879 289 882 300 882 310 c 0
 882 318 880 326 873 332 c 1
 859 339 844 341 828 341 c 0x10
 809 341 789 338 768 338 c 0
 760 338 752 339 743 340 c 1
 716 293 728 213 694 118 c 1
 690 110 688 103 688 98 c 0
 688 80 712 82 716 74 c 1
 753 85 781 89 804 89 c 0
 831 89 853 84 877 84 c 0
 945.185 84 974.76 144.929 992 166 c 1
 1051 156 l 1
 1053 150 1054 144 1054 138 c 0
 1054 94 1009 49 997 20 c 1
 965 14 937 12 910 12 c 0x60
 865 12 825 18 781 18 c 0
 760 18 739 16 716 13 c 1
 701 16 686 18 672 18 c 0
 625 18 581 4 532 4 c 0
 512 4 490 7 468 13 c 1
 468 20 l 2
 468 34 464 48 464 60 c 0x80
596 394 m 0
 603 386 614 390 624 394 c 0
 667 413 683 442 708 482 c 0
 723 506 746 526 746 549 c 0
 746 555 744 561 741 567 c 0
 734 581 718 574 703 578 c 1
 673 543 640 517 605 475 c 1
 596 456 586 437 586 420 c 0
 586 411 589 402 596 394 c 0
EndSplineSet
Validated: 1
LCarets2: 1 0 
Ligature2: "'liga' Standard Ligatures in Latin lookup 0 subtable" A E
EndChar

StartChar: Eth
Encoding: 208 208 80
Width: 732
VWidth: 1080
Flags: W
HStem: -14 104<244 378.781> 740 20G<308 422>
VStem: 92 295<324.113 407.525> 640 153<339.119 566.293>
LayerCount: 2
Fore
SplineSet
156 302 m 1
 131.55 307.821 92 328.692 92 365 c 0
 92 377 98 390 107 401 c 0
 127 423 150 425 175 425 c 0
 181 425 187 425 193 425 c 1
 249 639 l 1
 214 653 176 642 158 676 c 0
 155 682 154 688 154 693 c 0
 154 713 170 730 176 754 c 1
 237 756 278 758 338 760 c 1
 422 742 l 1
 511 724 569 739 650 698 c 1
 707 668 739 640 770 584 c 0
 791 546 792 518 793 475 c 1
 793 446 l 2
 793 388 786.93 347.027 764 288 c 0
 751.963 257.014 737 242 716 216 c 0
 669 158 645 121 584 78 c 0
 513 29 460 24 380 -10 c 1
 354 -8 328 -7 304 -7 c 0
 234 -7 170 -14 108 -14 c 0
 79 -14 51 -12 22 -8 c 1
 14 15 -2 29 -2 49 c 0
 -2 53 -1 58 0 62 c 0
 15 107 70 94 98 132 c 0
 123 166 118 196 132 236 c 2
 156 302 l 1
342 431 m 1
 364.611 422.778 387 395.92 387 368 c 0
 387 358 383.965 348.024 377 338 c 0
 356.899 309.07 330 304 297 303 c 1
 292 288 l 2
 275 240 256 216 246 166 c 0
 244 155 243 145 243 136 c 0
 243 124 244 113 244 98 c 2
 244 90 l 1
 296 79 349 84 400 78 c 1
 435 108 458 122 490 156 c 0
 541 211 571.682 243.154 604 310 c 0
 626.776 357.108 640 389 640 440 c 0
 640 442 640 444 640 446 c 0
 638 515 631.898 562.908 586 614 c 0
 551.924 651.932 517 668 469 668 c 0
 466 668 463 668 460 668 c 0
 434 667 417 658 400 638 c 0
 360 589 376 542 358 482 c 2
 342 431 l 1
EndSplineSet
Validated: 1
EndChar

StartChar: multiply
Encoding: 215 215 86
Width: 430
VWidth: 1080
Flags: W
HStem: 435 19G<118.5 121 328 361.5>
VStem: 71 63<87.9416 137.033> 309 68<106.188 126.645>
LayerCount: 2
Fore
SplineSet
111 86 m 0
 106.828 86 71 89.4186 71 96 c 0
 71 110 104 147 104 162 c 0
 104 163 104 164 104 165 c 0
 155 216 160 220 185 264 c 1
 163 312 128 391 88 445 c 1
 120 453 117 455 120 455 c 0
 122 455 126 454 141 454 c 1
 154 427 193 355 212 343 c 0
 218 339 224 338 229 338 c 0
 235 338 240 339 246 341 c 0
 268 350 259 350 286 382 c 1
 288 391 328 442 328 453 c 2
 328 454 l 1
 355 454 l 2
 368 454 379 452 387 440 c 1
 358 409 299 340 258 286 c 1
 282 225 323 205 369 146 c 1
 372 135 377 126 377 118 c 0
 377 114 376 110 373 106 c 1
 344 92 335 95 309 92 c 1
 309 93 l 2
 309 105 260 155 258 165 c 0
 253 184 245 187 228 194 c 1
 217 195 217 195 196 194 c 1
 181 178 177 187 163 161 c 1
 160 153 134 110 134 91 c 2
 134 87 l 1
 123 86 117 86 111 86 c 0
EndSplineSet
Validated: 1
EndChar

StartChar: Oslash
Encoding: 216 216 87
Width: 736
VWidth: 1080
Flags: W
HStem: -10 55<318.669 443.347> 17 102<45.0011 129.391> 646 96<388.68 423.626> 665 80<811.141 872.551> 695 64<468.042 586.386>
VStem: 83 117<180.904 425.496> 671 105<336.384 525.85>
LayerCount: 2
Fore
SplineSet
318 59 m 1x86
 328.85 50.8624 350.064 45 365 45 c 0
 377 45 388 48 402 52 c 0
 478 75 518.921 106.067 570 166 c 0
 616.927 221.062 631 264 648 334 c 0
 661 389 671 431 671 477 c 0
 671 493 670 510 667 527 c 1
 638 494 613 463 554 403 c 1
 470 312 416 268 301 134 c 1
 296 123 280 112 280 100 c 0
 280 91.9819 284.705 88 293 88 c 0
 300 88 308 90 315 90 c 0
 323.039 90 327 86.4072 327 78 c 0
 327 70 323 64 318 59 c 1x86
646 605 m 1
 632.914 642.948 591.948 695 538 695 c 0x4e
 532 695 526 695 520 694 c 0
 470 688 453 655 436 646 c 1
 431 645 427 644 424 644 c 0
 416 644 409 646 400 646 c 1
 389 657 386 671 386 685 c 0
 386 699 389 714 389 729 c 0
 389 733 389 738 388 742 c 1x26
 422 747 442 756 475 756 c 0
 478 756 481 756 484 756 c 0
 495 758 505 759 513 759 c 0x0e
 556 759 580 741 616 720 c 1
 647 697 676 684 700 663 c 1
 720 681 l 1
 719 702 676 685 672 706 c 1
 672 710 l 2
 672 722 682 734 695 740 c 1
 765 740 784 745 799 745 c 0
 814 745 825 740 880 720 c 1
 882 716 883 711 883 706 c 0
 883 691.302 870.022 665 850 665 c 0
 841 665 832 671 821 671 c 0
 818 671 814 671 811 669 c 2
 742 606 l 1
 767 554 776 509 776 462 c 0
 776 422 769.828 381.032 761 334 c 0
 744.682 247.06 718.79 199.166 664 130 c 0
 626.858 83.1126 595.987 63.0224 544 34 c 0
 495.609 6.98507 429.181 -10 362 -10 c 0x96
 339 -10 316 -7 288 0 c 0
 267 5 251 13 236 22 c 1
 193 21 168 17 136 17 c 0
 116 17 92 18 60 23 c 1
 48 41 26 48 26 68 c 0
 26 96.2518 52.6224 107.751 76 117 c 0
 81.0074 118.981 85 119 89 119 c 0x46
 104 119 117 111 130 109 c 1
 96.8234 158.193 83 253.1 83 348 c 0
 83 384 87 418 98 462 c 0
 114 526 126 566 170 616 c 0
 222 675 270 691 342 723 c 0
 349 726 353 726 360 728 c 1
 370 684 374 671 374 663 c 0
 374 656 371 653 366 638 c 1
 326 594 296 574 264 524 c 0
 238 483 235 454 216 410 c 1
 207 359 200 317 200 275 c 0
 200 244 204 213 216 179 c 1
 349 312 398 363 524 472 c 1
 597 539 615 568 646 605 c 1
EndSplineSet
Validated: 1
EndChar

StartChar: Thorn
Encoding: 222 222 93
Width: 613
VWidth: 1080
Flags: W
HStem: -2 98<31.8445 100.651> 0 79<265.749 326.917> 0 71<231.003 308.344> 184 77<356.546 444.577> 192 65<307.565 414.968> 516 78<391.396 497.825> 651 98<385.875 489.155> 653 72<193.877 275.968>
VStem: 529 148<355.486 484.339>
LayerCount: 2
Fore
SplineSet
186 705 m 0x0580
 186 719.925 199.979 732 214 732 c 0
 228 732 244 725 261 725 c 2
 265 725 l 1x0580
 325 731 360 749 415 749 c 2
 431 749 l 1
 455 747 476 751 490 732 c 0
 495 725 497 717 497 710 c 0
 497 695 490 680 490 662 c 1
 472 653 452 651 432 651 c 0
 417 651 401 652 384 652 c 1
 384 623 384 594 387 594 c 0
 416 594 441 597 466 597 c 0
 488 597 509.967 594.914 536 585 c 0
 596.923 561.799 643 542 668 481 c 0
 674 466 677 452 677 438 c 0
 677 408 664 381 651 346 c 0
 632 296 612.91 268.1 573 232 c 0
 550.95 212.055 533 210 507 196 c 0
 489 187 470 184 451 184 c 0x1680
 420 184 388 192 355 192 c 0
 333 192 310 188 287 176 c 0
 264 164 263 183 244 124 c 0
 243 120 242 119 242 119 c 1
 241 119 l 2
 240 119 238 116 228 84 c 0
 224 73 244 75 256 72 c 0
 259 71 262 71 265 71 c 0x2c80
 281 71 295 79 309 79 c 0
 322.111 79 335 65.5466 335 52 c 0
 335 36 323 19 322 0 c 1
 299 0 l 2x4480
 255 0 233 -4 190 -5 c 1
 173 -1 156 -0 140 -0 c 0x2480
 122 -0 105 -2 88 -2 c 0x8480
 68 -2 49 0 31 9 c 1
 31 27 24 42 24 57 c 0
 24 64 26 72 31 79 c 0x4480
 45 98 67 89 90 96 c 1
 150 204 157 304 203 424 c 1
 230 520 251 580 278 651 c 1x8680
 262 652 246 653 225 653 c 2
 199 653 l 1
 198 672 186 689 186 705 c 0x0580
307 270 m 1
 319 260 334 257 352 257 c 0x0c80
 371 257 394 261 416 261 c 0x1480
 426 261 436 260 445 258 c 1
 466 279 485 286 499 312 c 0
 517 347 529 376 529 409 c 0
 529 459.632 508.59 497.803 469 511 c 0
 460 514 451 516 443 516 c 0
 427 516 412 510 397 499 c 0
 355 468 360 425 337 378 c 1
 329 343 305 315 305 284 c 0
 305 280 306 275 307 270 c 1
EndSplineSet
Validated: 1
EndChar

StartChar: hbar
Encoding: 295 295 94
Width: 485
VWidth: 1000
Flags: W
HStem: -2 128<170.479 235.683> -2 89<231.317 272.759> 342 79<282.71 363.835> 478 72<104.99 186>
VStem: 373 80<218.244 354>
LayerCount: 2
Fore
SplineSet
373 281 m 0x78
 373 308.863 359.645 339.262 335 342 c 1
 327 342 l 2
 283 342 263 302 229 269 c 0
 195 237 186 210 158 173 c 1
 117 114 112 41 74 16 c 1
 13 39 l 1
 28 108 56 131 73 187 c 1
 186 478 l 1
 154 478 125 483 104 500 c 0
 98 505 95 510 95 515 c 0
 95 522 101 529 110 535 c 0
 139 554 176 547 219 550 c 1
 227 563 232.966 576.007 237 595 c 0
 239.975 609.005 244 622 244 634 c 0
 244 641 243 649 237 657 c 0
 224.496 674.506 192 651.268 192 687 c 0
 192 704 204.055 717.941 218 731 c 0
 236.072 747.924 254 747 279 748 c 0
 290 748 301 749 311 749 c 0
 329 749 344 746 357 731 c 1
 367 721 371 709 371 696 c 0
 371 687 369 677 363 668 c 0
 355 656 339 666 329 657 c 1
 309 626 299 593 286 556 c 1
 318.834 556 355.971 554.649 374 540 c 0
 384 533 390 525 390 517 c 0
 390 511 387 505 380 500 c 0
 353 478 312 484 263 480 c 0
 260 479 258 479 255 479 c 1
 232 425 223 418 197 333 c 1
 241 370 l 2
 249 377 251 384 260 389 c 1
 297 405 333 421 367 421 c 0
 388 421 408 415 428 400 c 0
 447 385 453 365 453 343 c 0
 453 328 450 311 448 294 c 0
 442 226 419 189 381 132 c 0
 350 84 328 58 281 26 c 1
 260 10 244 -2 220 -2 c 0
 218 -2 216 -2 214 -2 c 0
 191 -1 176 7 164 26 c 0
 157 36 154 45 154 55 c 0
 154 62 156 68 158 76 c 0
 166 101 177 122 203 126 c 0
 204 126 205 126 206 126 c 0xb8
 230 126 237 87 261 87 c 0
 262 87 263 87 264 87 c 0
 304 93 309 132 331 165 c 0
 347 189 355 203 363 230 c 0
 368 249 373 265 373 281 c 0x78
EndSplineSet
Validated: 1
EndChar

StartChar: imacron
Encoding: 299 299 98
Width: 244
Flags: W
HStem: 4 101<88 161.348> 436 20G<211 239.5> 483 56.293<118.847 320.383>
VStem: 21 312
LayerCount: 2
Fore
SplineSet
218 138 m 1
 237 137 251 132 251 110 c 0
 251 81 219 66 194 44 c 0
 174 27 160 19 134 12 c 0
 118 8 105 4 92 4 c 0
 84 4 76 5 66 8 c 0
 44 15 21 24 21 54 c 0
 21 70 29.8678 84.0372 35 102 c 0
 49 151 61 178 85 222 c 0
 103 254 118 274 140 290 c 0
 146.957 295.06 140 303 140 312 c 1
 101 308 135 308 54 306 c 1
 77 348 l 2
 101 390 129 417 175 440 c 1
 176 440 l 2
 185 440 187 456 235 456 c 0
 244 456 254 455 266 454 c 1
 268 432 274 414 274 396 c 0
 274 381 270 366 255 348 c 1
 220 290 198 258 165 198 c 0
 152 175 137 164 134 138 c 0
 134 135 134 132 134 129 c 0
 134 116 137 105 153 105 c 0
 174 105 189 138 216 138 c 2
 218 138 l 1
118 501 m 0
 114 504 112 508 112 513 c 0
 112 530.445 141.334 538.306 158 539.293 c 0
 173.923 540.236 191.682 538.967 211 541 c 0
 230 543 242 546 260 546 c 0
 284 546 308 544 321 533 c 0
 328 527 333 520 333 514 c 0
 333 510 331 505 326 501 c 0
 305 483 274 485 238 484 c 0
 220 484 202 483 186 483 c 0
 159 483 136 486 118 501 c 0
EndSplineSet
Validated: 1
EndChar

StartChar: ibreve
Encoding: 301 301 100
Width: 244
Flags: W
HStem: 4 101<88 169.692> 436 20G<211 239.5> 486 23<185.661 259.626>
VStem: 21 112.668<39 145.593>
LayerCount: 2
Fore
SplineSet
218 138 m 1
 237 137 251 132 251 110 c 0
 251 81 219 66 194 44 c 0
 174 27 160 19 134 12 c 0
 118 8 105 4 92 4 c 0
 84 4 76 5 66 8 c 0
 44 15 21 24 21 54 c 0
 21 70 29.8678 84.0372 35 102 c 0
 49 151 61 178 85 222 c 0
 103 254 118 274 140 290 c 0
 146.957 295.06 140 303 140 312 c 1
 101 308 135 308 54 306 c 1
 77 348 l 2
 101 390 129 417 175 440 c 1
 176 440 l 2
 185 440 187 456 235 456 c 0
 244 456 254 455 266 454 c 1
 268 432 274 414 274 396 c 0
 274 381 270 366 255 348 c 1
 220 290 198 258 165 198 c 0
 150.587 172.5 133.668 162.315 133.668 128.872 c 0
 133.668 115.687 136.655 105 153 105 c 0
 174 105 189 138 216 138 c 2
 218 138 l 1
316 542 m 0
 327 542 337 539 337 529 c 0
 337 519 318 511 304 501 c 1
 289 492 269 486 246 486 c 0
 240 486 234 487 225 487 c 0
 217 487 211 486 204 486 c 0
 160 486 115 510 104 539 c 0
 103 541 103 542 103 544 c 0
 103 553 116 556 131 556 c 0
 140 556 150 555 158 553 c 0
 181 548 166 528 185 518 c 0
 199 510 219 509 239 509 c 0
 246 509 252 510 260 512 c 0
 283 519 279 537 304 541 c 0
 308 542 312 542 316 542 c 0
EndSplineSet
Validated: 1
EndChar

StartChar: Iogonek
Encoding: 302 302 101
Width: 491
Flags: W
HStem: -16 100<65.0899 201.068> 658 95<554.281 624.691> 658 86<556.894 626> 673 86<295.539 382.423>
VStem: 296 36.013<-106.266 -4.99059> 412.013 19<-110.414 -88.1716>
LayerCount: 2
Fore
SplineSet
95 -16 m 0xcc
 72.9022 -16 39 -2.56901 39 24 c 0
 39 28 40 32 42 36 c 0
 61 78 106 70 150 84 c 0
 170 90 182 90 202 94 c 1
 225 143 222 182 244 232 c 1
 256 262 264 279 276 310 c 0
 313 402 342 451 368 546 c 0
 376 573 379 590 380 618 c 0
 381 628 383 638 383 646 c 0
 383 661.252 371.491 673 356 673 c 0
 343 673 329 667 316 667 c 0
 295.266 667 284 688.742 284 707 c 0
 284 739.634 318.118 759 345 759 c 0x9c
 373 759 405 746 439 746 c 2
 446 746 l 1
 453 744 460 744 467 744 c 0xac
 492 744 516 753 556 753 c 0xcc
 575 753 598 751 626 744 c 1xac
 626 739 l 2
 626 723 631 709 631 696 c 0
 631 671.973 610.176 658 589 658 c 0
 583 658 577 658 571 658 c 0
 565 658 560 658 554 657 c 1
 505 589 492 534 472 452 c 1
 404 266 l 1
 389 203 369 166 350 90 c 1
 379 78 407 86 425 60 c 0
 430 52 432 45 432 37 c 0
 432 22 425 7 425 -12 c 1
 412.579 -11.46 383.535 -7.71193 346.53 -4.37823 c 1
 337.517 -18.0727 332.013 -39.4734 332.013 -53.9111 c 0
 332.013 -86.4746 342.671 -113.777 374.013 -116.911 c 0
 383.013 -117.911 389.013 -118.911 397.013 -114.911 c 0
 406.013 -109.911 408.013 -102.911 412.013 -92.9111 c 0
 416.013 -81.9111 432.013 -87.9111 431.013 -97.9111 c 0
 430.013 -118.911 431 -116.911 425 -125.911 c 0
 413.604 -140.564 397.969 -140.911 376 -140.911 c 0
 366 -140.911 360.013 -142.911 351.013 -139.911 c 0
 317.555 -130.786 296 -99.2627 296 -59.9111 c 0
 296 -40.4101 304.147 -15.0007 311.556 -1.60423 c 1
 288.864 -0.0730907 264.521 1 240 1 c 0
 223 1 206 0 190 -1 c 0
 154 -2 124 -16 95 -16 c 0xcc
EndSplineSet
Validated: 1
EndChar

StartChar: iogonek
Encoding: 303 303 102
Width: 244
Flags: W
HStem: 436 20G<211 239.5> 581 103<210.478 280.601>
VStem: 21 112.668<39 145.593> 86 36<-77.271 5.24075> 198 92<603.328 671.996> 202 19<-81.5032 -58.9132>
LayerCount: 2
Fore
SplineSet
252 684 m 0xc8
 276 684 290 668 290 643 c 0
 290 631 287 620 282 607 c 0
 278 594 274 581 257 581 c 0
 250 581 243 584 236 586 c 0
 222 590 210 591 203 603 c 0
 200 610 198 617 198 623 c 0
 198 654 220 684 252 684 c 0xc8
86 -31 m 0xd4
 86 -20 89 -7 92 4 c 1
 84 4 76 5 66 8 c 0
 44 15 21 24 21 54 c 0
 21 70 29.8678 84.0372 35 102 c 0
 49 151 61 178 85 222 c 0
 103 254 118 274 140 290 c 0
 146.957 295.06 140 303 140 312 c 1
 101 308 135 308 54 306 c 1
 77 348 l 2
 101 390 129 417 175 440 c 1
 176 440 l 2
 185 440 187 456 235 456 c 0
 244 456 254 455 266 454 c 1
 268 432 274 414 274 396 c 0
 274 381 270 366 255 348 c 1
 220 290 198 258 165 198 c 0
 150.587 172.5 133.668 162.315 133.668 128.872 c 0xe0
 133.668 115.687 136.655 105 153 105 c 0
 174 105 189 138 216 138 c 2
 218 138 l 1
 237 137 251 132 251 110 c 0
 251 81 219 66 194 44 c 0
 173 26 158 18 130 11 c 1
 125 -1 122 -15 122 -25 c 0
 122 -57 133 -85 164 -88 c 0
 173 -89 179 -90 187 -86 c 0
 196 -81 198 -74 202 -64 c 0
 206 -53 222 -59 221 -69 c 0
 220 -90 221 -88 215 -97 c 0
 204 -112 188 -112 166 -112 c 0
 156 -112 150 -114 141 -111 c 0
 108 -102 86 -70 86 -31 c 0xd4
EndSplineSet
Validated: 1
EndChar

StartChar: IJ
Encoding: 306 306 103
Width: 719
VWidth: 1080
Flags: W
HStem: -209 74<289.5 395.984> -16 100<65.0899 201.068> 464 60<804.074 872> 661 99<554.516 674.748> 673 86<295.539 382.423>
VStem: 712 91<530.033 612.772>
LayerCount: 2
Fore
SplineSet
878 489 m 0xf4
 878 472.75 858.42 464 845 464 c 0
 825 464 803 476 779 476 c 1
 701 332 689 212 629 56 c 1
 485 -118 l 2
 439 -173 404 -186 353 -202 c 0
 338 -207 325 -209 312 -209 c 0
 267 -209 237 -181 197 -144 c 1
 194 -133 193 -121 193 -109 c 0
 193 -88 198 -66 209 -48 c 1
 231 -45 246 -37 265 -37 c 0
 270 -37 275 -37 281 -39 c 0
 317 -48 330 -72 359 -96 c 0
 374 -109 379 -135 395 -135 c 0
 397 -135 399 -135 401 -134 c 0
 436 -122 429 -102 435 -72 c 1
 460 -37 483 35 493 110 c 1
 528 185 545 228 583 302 c 0
 603 340 635 355 637 398 c 0
 637 399 637 400 637 401 c 0
 637 422 627 436 613 452 c 0
 591 476 542 462 541 494 c 1
 541 495 l 2
 541 516 565 523 587 526 c 1
 592 526 l 2
 616 526 633 500 654 500 c 0
 658 500 661 500 665 502 c 0
 699 516 703.919 549.013 710 586 c 0
 710.987 592.002 712 597 712 602 c 0
 712 637.492 679.691 650.721 653 658 c 0
 644 660 636 661 629 661 c 0xf4
 617 661 605 659 587 656 c 0
 586 656 586 658 585 658 c 0
 576 659 565 659 554 657 c 1
 505 589 492 534 472 452 c 1
 404 266 l 1
 389 203 369 166 350 90 c 1
 379 78 407 86 425 60 c 0
 430 52 432 45 432 37 c 0
 432 22 425 7 425 -12 c 1
 402 -11 322 1 240 1 c 0
 223 1 206 0 190 -1 c 0
 154 -2 124 -16 95 -16 c 0
 72.9022 -16 39 -2.56901 39 24 c 0
 39 28 40 32 42 36 c 0
 61 78 106 70 150 84 c 0
 170 90 182 90 202 94 c 1
 225 143 222 182 244 232 c 1
 256 262 264 279 276 310 c 0
 313 402 342 451 368 546 c 0
 376 573 379 590 380 618 c 0
 381 628 383 638 383 646 c 0
 383 661.252 371.491 673 356 673 c 0
 343 673 329 667 316 667 c 0
 295.266 667 284 688.742 284 707 c 0
 284 739.634 318.118 759 345 759 c 0xec
 373 759 405 746 439 746 c 2
 446 746 l 1
 457 744 469 742 482 742 c 0
 519 742 562 752 609 756 c 0
 620.375 756 630.406 760 640 760 c 0
 675 760 689 698 731 698 c 0
 796 698 813.082 762.736 875 782 c 0
 894.025 787.919 911 796 927 796 c 0
 936 796 944 793 953 788 c 0
 981 771 971 740 983 710 c 1
 950 685 907 689 863 668 c 1
 846 639 803 597 803 542 c 0
 803 540 803 538 803 536 c 1
 826 526 843 530 872 524 c 1
 872 511 878 500 878 489 c 0xf4
EndSplineSet
Validated: 1
LCarets2: 1 0 
Ligature2: "'liga' Standard Ligatures in Latin lookup 0 subtable" I J
EndChar

StartChar: ij
Encoding: 307 307 104
Width: 424
VWidth: 1000
Flags: W
HStem: -250 154<27.6554 99.8923> -250 105<100.369 157.624> 4 101<88 169.692> 435 20G<210.5 238> 547 171<200.252 299.444> 590 110<417.531 515.848>
VStem: 21 112.668<39 145.594> 167 154<568.923 682.717> 404 125<605.4 686.695>
LayerCount: 2
Fore
SplineSet
404 636 m 1x3780
 404 670 425 696 456 699 c 0
 460 699 465 700 469 700 c 0
 486 700 500 696 512 681 c 1
 524 673 529 664 529 650 c 0
 529 643 528 635 524 625 c 0
 518 609 506 605 492 598 c 0
 479 592 470 590 457 590 c 2
 450 590 l 1
 436 591 426 592 416 602 c 0
 406 612 405 622 404 636 c 1x3780
230 554 m 0
 207 561 187 563 176 584 c 0
 170 595 167 606 167 617 c 0
 167 633 173 649 181 667 c 0
 191 689 202 702 225 711 c 0
 237 715 247 718 258 718 c 0x3b80
 271 718 284 714 298 706 c 0
 315 696 321 675 321 650 c 0
 321 630 316 612 308 590 c 0x3780
 300 569 294 547 265 547 c 0x3b80
 254 547 243 551 230 554 c 0
447 530 m 0
 474 530 492 500 492 477 c 0
 492 464 488 450 483 437 c 0
 475 417 457 415 440 401 c 1
 396 291 398 217 354 132 c 1
 316 38 300 -17 256 -108 c 0
 234 -153 233 -191 192 -220 c 0
 163 -241 136 -250 105 -250 c 0x7380
 91 -250 76 -248 60 -244 c 0
 34 -238 20.0831 -223.947 6 -202 c 0
 -4.93545 -184.959 -16 -170 -16 -154 c 0
 -16 -147 -13.9696 -141.017 -10 -134 c 0
 4.10796 -109.061 30 -96 57 -96 c 0xb380
 68 -96 81 -98 92 -104 c 0
 109 -112 89 -145 120 -145 c 0x7380
 131 -145 142 -137 156 -136 c 1
 178 -77 186 -13 209 56 c 1
 204 52 199 48 194 44 c 0
 174 27 160 19 134 12 c 0
 118 8 105 4 92 4 c 0
 84 4 76 5 66 8 c 0
 44 15 21 24 21 54 c 0
 21 70 29.8678 84.0372 35 102 c 0
 49 151 61 178 85 222 c 0
 103 254 118 274 140 290 c 0
 146.957 295.06 140 303 140 312 c 1
 101 308 135 308 54 306 c 1
 77 348 l 2
 101 390 129 416 175 440 c 1
 176 440 l 2
 185 440 187 455 234 455 c 0
 242 455 251 455 261 454 c 1
 292 476 336 481 386 516 c 1
 409 517 429 530 447 530 c 0
259 354 m 1
 258 352 257 350 255 348 c 0
 220 290 198 258 165 198 c 0
 150.587 172.5 133.668 162.315 133.668 128.872 c 0
 133.668 115.687 136.655 105 153 105 c 0
 174 105 189 138 216 138 c 2
 218 138 l 1
 226 137 234 136 240 133 c 1
 247 147 255 161 264 176 c 1
 278 242 337 296 337 352 c 0
 337 355 336 359 336 362 c 1
 313 362 293 351 274 351 c 0
 269 351 264 352 259 354 c 1
EndSplineSet
Validated: 1
LCarets2: 1 0 
Ligature2: "'liga' Standard Ligatures in Latin lookup 0 subtable" i j
EndChar

StartChar: Kcommaaccent
Encoding: 310 310 105
Width: 725
HStem: 0 66<388.703 465.549> 3 88<14 141.968 665.014 702> 664 88<240.192 336> 734 20G<660 692>
VStem: 450 216<-91.3426 3.06396>
LayerCount: 2
Fore
SplineSet
683 90 m 0x18
 700 90 712 73 712 58 c 0
 712 40 702 21 702 0 c 1
 691 3 678 5 665 6 c 1
 666 0 666 -6 666 -12 c 0
 666 -38 657.842 -65.9341 644 -99 c 0
 624.781 -144.908 603.941 -174.917 559 -207 c 0
 498.921 -249.889 507 -261 391 -264 c 1
 390 -263 390 -262 390 -261 c 0
 390 -241 499 -217 529 -114 c 1
 494 -87 468 -104 455 -75 c 0
 451 -67 450 -59 450 -50 c 0
 450 -34 457 -16 467 4 c 1
 436 2 408 0 386 0 c 1
 387 5 387 11 387 16 c 2
 387 32 l 2
 387 48 396 66 415 66 c 0x98
 433 66 453 52 470 52 c 0
 483 52 496 65 496 79 c 0
 496 93 488 109 488 126 c 1
 428 203 407 278 356 312 c 1
 308 294 l 1
 285 203 250 150 250 110 c 0
 250 103 251 96 254 90 c 1
 280 79 306 86 320 62 c 0
 323 57 324 53 324 48 c 0
 324 36 315 23 314 8 c 1
 290 0 262 -3 231 -3 c 0
 182 -3 128 3 74 3 c 0x48
 54 3 34 2 14 0 c 1x88
 14 19 6 35 6 50 c 0
 6 79 38 91 61 91 c 0
 76 91 92 89 109 89 c 0
 115 89 121 89 128 90 c 1
 198 187 154 260 210 376 c 1
 244 493 289 575 336 664 c 1
 216 664 l 1
 219 692 229 728 242 748 c 1
 263 751 286 752 309 752 c 0x68
 377 752 450 744 504 744 c 0
 510 744 516 744 522 744 c 1
 523 737 524 728 524 720 c 0
 524 706 522 691 514 678 c 1
 430 654 l 1
 394 606 396 536 370 450 c 1
 364 376 l 1
 408 418 538 544 666 645 c 1
 647 666 627 672 618 699 c 0
 617 703 616 707 616 710 c 0
 616 722 622 732 624 747 c 1
 637 752 652 754 668 754 c 0
 716 754 772 737 822 737 c 0
 832 737 842 737 852 739 c 1
 852 728 855 720 855 711 c 0
 855 666 791.041 690.957 772 673 c 0
 723.105 626.889 693 575 630 523 c 1
 573 462 513 416 474 372 c 1
 476 256 569 197 636 82 c 1
 653 82 669 90 683 90 c 0x18
EndSplineSet
Validated: 1
EndChar

StartChar: kcommaaccent
Encoding: 311 311 106
Width: 399
Flags: W
HStem: 432 20G<388.5 404.5> 697 56<204.57 289.859>
VStem: 237 71<103.992 195.021> 294.86 81<-110.931 -21.4785> 355 95<327.719 402>
LayerCount: 2
Fore
SplineSet
392 47 m 0xe8
 392 31.872 378.411 18.8473 366.986 12.5729 c 1
 373.355 -0.379475 375.86 -14.1671 375.86 -28.79 c 0
 375.86 -53.54 368.36 -80.54 358.61 -107.54 c 0
 347.36 -140.54 326.307 -153.22 298.61 -174.29 c 0
 285.836 -184.008 278.36 -190.04 262.61 -192.29 c 0
 249.86 -193.79 231.11 -196.04 216.11 -196.04 c 0
 200.36 -196.04 187.61 -193.79 187.61 -186.29 c 0
 187.61 -184.79 188.36 -182.54 190.61 -179.54 c 0
 220.61 -136.04 244.61 -142.04 272.36 -111.29 c 0
 281.36 -101.54 294.86 -94.79 294.86 -83.54 c 0xd0
 294.86 -69.2474 282.237 -66.29 271.61 -66.29 c 0
 266.36 -66.29 261.86 -67.04 257.36 -67.04 c 0
 247.61 -67.04 238.61 -65.54 232.61 -58.04 c 0
 222.11 -46.04 216.86 -32.54 216.86 -18.29 c 0
 216.86 5.26765 230.712 25.096 247.079 32.8011 c 1
 243.712 35.2309 240.121 37.6818 236 40 c 1
 234 58 234 73 234 85 c 0
 234 113 237 130 237 148 c 0
 237 161 235 175 230 196 c 1
 176 202 l 1
 157 146 160 107 131 58 c 1
 103 0 l 1
 95 -3 87 -4 79 -4 c 0
 53 -4 34 12 22 42 c 1
 44 138 105 171 105 218 c 0
 105 221 104 223 104 226 c 1
 206 486 l 1
 220 556 252 615 290 696 c 1
 287 696 283 697 280 697 c 0
 262 697 244 691 229 691 c 0
 215.589 691 198 698.283 198 716 c 0
 198 735.872 233.395 753 255 753 c 0
 273 753 291 746 314 745 c 0
 339.995 743.87 354 741 380 739 c 1
 388 722 393 706 393 691 c 0
 393 677 388 666 380 658 c 1
 332 561 311 541 284 490 c 1
 283 471 262 430 262 416 c 0
 262 414 263 412 265 412 c 0
 267 412 272 415 278 420 c 0
 297.082 435.902 313 438 338 442 c 0
 359 445 379 452 398 452 c 0
 411 452 423 448 434 436 c 0
 445 423 450 409 450 395 c 0
 450 373 440 350 428 328 c 0
 410 294 378 292 348 268 c 1
 308 234 l 1
 308 155 311 187 320 100 c 1
 329.453 87.3965 333.149 68 354 68 c 0
 361 68 368 70 374 70 c 0
 384.866 70 392 57.3773 392 47 c 0xe8
355 349 m 0xc8
 355 365.169 343.531 373 330 373 c 0
 321 373 311 371 301 371 c 0
 298 371 295 371 292 372 c 1
 258 352 220 321 220 282 c 0
 220 280 220 278 220 276 c 1
 232 274 241 271 252 271 c 0
 255 271 258 271 262 272 c 0
 290 277 308 285 328 306 c 0
 341 319 355 334 355 349 c 0xc8
EndSplineSet
Validated: 1
EndChar

StartChar: kgreenlandic
Encoding: 312 312 107
Width: 399
Flags: W
HStem: 5 63<325.792 384.391> 425 39G<260.5 276 406.5 418.5>
VStem: 237 84<70.1423 84.4353 86.3045 195.021>
LayerCount: 2
Fore
SplineSet
416 445 m 0
 421 445 435 441 435 431 c 0
 435 414 413 371 406 366 c 0
 384 348 336 348 292 337 c 1
 258 317 220 318 220 282 c 0
 220 280 220 278 220 276 c 1
 236 271 245 271 260 264 c 0
 280 255 296 253 308 234 c 0
 319 216 321 205 321 193 c 0
 321 180 318 165 318 139 c 0
 318 128 318 115 320 100 c 1
 329 87 333 68 354 68 c 0
 361 68 368 70 374 70 c 0
 384.866 70 392 57.3773 392 47 c 0
 392 21.0557 358.81 5 337 5 c 0
 319 5 299 11 278 16 c 0
 260 20 252 31 236 40 c 1
 234 58 234 73 234 85 c 0
 234 113 237 130 237 148 c 0
 237 161 235 175 230 196 c 1
 176 202 l 1
 157 146 160 107 131 58 c 1
 103 0 l 1
 95 -3 87 -4 79 -4 c 0
 53 -4 34 12 22 42 c 1
 44 138 105 171 105 218 c 0
 105 221 104 223 104 226 c 1
 104 226 171 357 201 441 c 1
 216 451 250 464 271 464 c 0
 281 464 288 461 288 452 c 0
 288 448 287 442 283 435 c 1
 282 419 262 382 262 370 c 0
 262 368 263 367 264 367 c 0
 267 367 270.941 369.07 278 375 c 0
 303 396 322 402 352 414 c 0
 374.932 423.173 397 445 416 445 c 0
EndSplineSet
Validated: 1
EndChar

StartChar: Lcommaaccent
Encoding: 315 315 110
Width: 604
Flags: W
HStem: -9 88<35.9636 128.72> -1 66<243.201 355.836> 682 73<427.37 512.765> 698 59<214 300.267>
VStem: 458.221 108<-132.4 -22.3324>
LayerCount: 2
Fore
SplineSet
517 705 m 0x28
 517 687.65 498.647 678 484 678 c 0
 471 678 458 682 443 682 c 2
 438 682 l 1
 389 601 389 516 348 414 c 1
 306 299 341 407 234 120 c 1
 236 108 232 98 240 90 c 0
 261 69 284 65 310 65 c 0
 326 65 342 66 360 66 c 0
 396 66 415 77 450 84 c 1
 512 113 500 160 578 232 c 1
 614 226 l 1
 614 216 l 2
 614 147 594 68 560 16 c 1
 558.449 15.4636 l 1
 563.965 0.946787 566.221 -14.322 566.221 -30.3428 c 0
 566.221 -63.3428 556.221 -99.3428 543.221 -135.343 c 0
 528.221 -179.343 500.15 -196.25 463.221 -224.343 c 0
 446.188 -237.3 436.221 -245.343 415.221 -248.343 c 0
 398.221 -250.343 373.221 -253.343 353.221 -253.343 c 0
 332.221 -253.343 315.221 -250.343 315.221 -240.343 c 0
 315.221 -238.343 316.221 -235.343 319.221 -231.343 c 0
 359.221 -173.343 391.221 -181.343 428.221 -140.343 c 0
 440.221 -127.343 458.221 -118.343 458.221 -103.343 c 0
 458.221 -84.2859 441.389 -80.3428 427.221 -80.3428 c 0
 420.221 -80.3428 414.221 -81.3428 408.221 -81.3428 c 0
 395.221 -81.3428 383.221 -79.3428 375.221 -69.3428 c 0
 361.221 -53.3428 354.221 -35.3428 354.221 -16.3428 c 0
 354.221 -11.259 354.759 -6.15976 355.836 -1 c 1
 319 -1 l 1x68
 251 -3 200 -9 146 -9 c 0
 111 -9 76 -7 34 0 c 1
 34 5 l 2
 34 19 30 32 30 44 c 0
 30 64.2128 49.0351 79 69 79 c 0
 84 79 101 74 119 74 c 2
 124 74 l 1
 151 212 147 280 196 398 c 0
 233 485 262 531 292 620 c 0
 298 638 299 649 304 668 c 1
 294 695 271 698 246 698 c 2
 229 698 l 2
 217 698 205 699 196 703 c 1
 214 756 l 1
 225 756 235 757 245 757 c 0x98
 282 757 303 754 322 754 c 0
 334 754 345 755 358 759 c 1
 372 755 386 754 400 754 c 0
 415 754 430 755 445 755 c 0
 470 755 493 751 516 730 c 1
 516 728 516 726 516 724 c 0
 516 718 517 711 517 705 c 0x28
EndSplineSet
Validated: 1
EndChar

StartChar: lcommaaccent
Encoding: 316 316 111
Width: 267
Flags: W
HStem: 738 20G<277.073 300>
VStem: 140.244 108<-141.234 -20.8608> 215 168<671.5 735.392>
LayerCount: 2
Fore
SplineSet
192.562 61.5751 m 1xa0
 230.055 46.945 248.244 -2.54483 248.244 -39.1768 c 0
 248.244 -72.1768 238.244 -108.177 225.244 -144.177 c 0
 210.244 -188.177 182.173 -205.084 145.244 -233.177 c 0
 128.212 -246.134 118.244 -254.177 97.2441 -257.177 c 0
 80.2441 -259.177 55.2441 -262.177 35.2441 -262.177 c 0
 14.2441 -262.177 -2.75586 -259.177 -2.75586 -249.177 c 0
 -2.75586 -247.177 -1.75586 -244.177 1.24414 -240.177 c 0
 41.2441 -182.177 73.2441 -190.177 110.244 -149.177 c 0
 122.244 -136.177 140.244 -127.177 140.244 -112.177 c 0xc0
 140.244 -93.1199 123.413 -89.1768 109.244 -89.1768 c 0
 102.244 -89.1768 96.2441 -90.1768 90.2441 -90.1768 c 0
 77.2441 -90.1768 65.2441 -88.1768 57.2441 -78.1768 c 0
 43.2441 -62.1768 36.2441 -44.1768 36.2441 -25.1768 c 0
 36.2441 -15.0145 38.3956 -4.85223 42.6986 5.91736 c 1
 36.1271 8.30773 29.7562 11.665 21 14 c 1
 21 22 l 2
 21 60 33 92 44 134 c 1
 179 442 l 2
 212.125 515.944 250 552 267 632 c 0
 269 642 273 650 267 658 c 0
 252.73 681.35 215 656.356 215 700 c 0
 215 736.206 262.146 758 292 758 c 0
 308 758 323 754 338 744 c 1
 373 736 383 720 383 699 c 0
 383 682 377 662 373 641 c 1
 329 532 291 470 253 356 c 1
 222 285 202 246 173 174 c 0
 165 155 142 121 142 111 c 0
 142 109 143 108 145 108 c 0
 146 108 148 108 150 109 c 0
 186.857 125.645 197.539 151 245 151 c 0
 256.589 151 270 143.577 270 130 c 0
 270 118 259 108 255 94 c 1
 231.917 80.6363 212.524 72.0694 192.562 61.5751 c 1xa0
EndSplineSet
Validated: 1
EndChar

StartChar: Lslash
Encoding: 321 321 116
Width: 649
VWidth: 1080
Flags: W
HStem: -9 88<82.9637 175.715> -1 66<290.201 502.601> 220 48<39.655 140.812> 248 6<188.798 190.907> 544 37<512.328 578.889> 682 73<474.076 559.765> 698 59<261 347.267>
LayerCount: 2
Fore
SplineSet
564 705 m 0x0c
 564 687.65 545.647 678 531 678 c 0
 518 678 505 682 490 682 c 2
 485 682 l 1
 449 622 439 561 421 492 c 1
 440 508 454 522 493 549 c 1
 496 560 472 551 474 562 c 1
 474 563 l 1
 476 570 484 575 491 578 c 1
 526 578 536 581 544 581 c 0
 551 581 556 578 580 568 c 1
 580 556.21 572.081 549.301 562 543 c 0
 560 541 557 541 555 541 c 0
 551 541 547 544 542 544 c 0
 540 544 538 544 536 543 c 0
 457 489 444 475 406 445 c 1
 403 435 399 425 395 414 c 0
 353 299 388 407 281 120 c 1
 283 108 279 98 287 90 c 0
 308 69 331 65 357 65 c 0
 373 65 389 66 407 66 c 0
 443 66 462 77 497 84 c 1
 559 113 547 160 625 232 c 1
 661 226 l 1
 661 216 l 2
 661 147 641 68 607 16 c 1
 564 1 525 -2 484 -2 c 0
 456 -2 427 -1 396 -1 c 0
 386 -1 376 -1 366 -1 c 0x4c
 298 -3 247 -9 193 -9 c 0
 158 -9 123 -7 81 0 c 1
 81 5 l 2
 81 19 77 32 77 44 c 0
 77 64.2128 96.0351 79 116 79 c 0
 131 79 148 74 166 74 c 2
 171 74 l 1
 189 166 193 227 209 293 c 1
 187 276 l 1
 183 270 173 265 170 258 c 1
 170 256 l 2
 170 253 172 253 175 253 c 0
 179 253 183 254 186 254 c 0
 189 254 191 253 191 250 c 0
 191 249 191 248 190 248 c 0x98
 186 236 167 231 154 220 c 1
 120 220 104 217 84 217 c 0
 74 217 62 218 47 220 c 1
 44 229 34 232 38 242 c 0
 38 243 39 245 40 246 c 0
 45.8484 257.697 63.0101 268 79 268 c 0
 87 268 93 263 100 263 c 0
 103 263 105.983 264.022 110 267 c 2
 226 353 l 1
 262.713 455.797 305.268 519.93 339 620 c 0
 345 638 346 649 351 668 c 1
 341 695 318 698 293 698 c 2
 276 698 l 2
 264 698 252 699 243 703 c 1
 261 756 l 1
 272 756 282 757 292 757 c 0x2a
 329 757 350 754 369 754 c 0
 381 754 392 755 405 759 c 1
 419 755 433 754 447 754 c 0
 462 754 477 755 492 755 c 0
 517 755 540 751 563 730 c 1
 563 728 563 726 563 724 c 0
 563 718 564 711 564 705 c 0x0c
EndSplineSet
Validated: 1
EndChar

StartChar: lslash
Encoding: 322 322 117
Width: 378
VWidth: 1080
Flags: W
HStem: 243 39<33.5603 89.1719> 564 37<450.094 487.797> 738 20G<311.073 334>
VStem: 249 168<671.5 735.392>
LayerCount: 2
Fore
SplineSet
249 700 m 0
 249 736.206 296.146 758 326 758 c 0
 342 758 357 754 372 744 c 1
 407 736 417 720 417 699 c 0
 417 682 411 662 407 641 c 1
 389 597 372 560 356 525 c 1
 367 537 380 549 406 569 c 1
 407 580 384 572 384 582 c 2
 384 583 l 1
 385 590 391 595 398 598 c 1
 433 598 443 601 451 601 c 0
 458 601 463 598 489 588 c 1
 490 586 490 584 490 581 c 0
 487.964 574.893 479.919 561 469 561 c 0
 465 561 461 564 455 564 c 0
 454 564 452 564 450 563 c 0
 371 502 368 493 324 452 c 1
 311 423 299 393 287 356 c 1
 256 285 236 246 207 174 c 0
 199 155 176 121 176 111 c 0
 176 109 177 108 179 108 c 0
 180 108 182 108 184 109 c 0
 220.857 125.645 231.539 151 279 151 c 0
 290.589 151 304 143.577 304 130 c 0
 304 118 293 108 289 94 c 1
 251 72 223 63 186 37 c 1
 151 24 133 4 95 3 c 0
 94 3 93 3 92 3 c 0
 78 3 70 10 55 14 c 1
 55 22 l 2
 55 60 67 92 78 134 c 1
 133 260 l 1
 128 255 120 251 113 246 c 1
 88 246 76 243 61 243 c 0
 54 243 45 244 33 246 c 1
 30 252 22 255 24 262 c 0
 24 263 24 264 24 265 c 0
 28 275 36 277 46 281 c 0
 47 282 49 282 51 282 c 0
 57 282 62 278 67 278 c 0
 69 278 69 284 73 287 c 2
 188 386 l 1
 213 442 l 2
 246.03 515.987 284 552 301 632 c 0
 303 642 307 650 301 658 c 0
 286.96 680.974 249 655.735 249 700 c 0
149 297 m 1
 144.474 292.474 121.825 278.127 121 274 c 2
 121 273 l 2
 121 271 123 270 125 270 c 0
 128 270 131 271 133 271 c 0
 135 271 137 270 137 269 c 2
 149 297 l 1
EndSplineSet
Validated: 1
EndChar

StartChar: Ncommaaccent
Encoding: 325 325 120
Width: 710
Flags: W
HStem: 1 102<61.314 167.491> 663 83<227.456 316.624 688.817 761.218 874.703 928> 663 76<656 720.016>
VStem: 581.237 108<-112.896 0.0247498>
LayerCount: 2
Fore
SplineSet
942 689 m 0xd0
 942 674.936 930.763 661 916 661 c 0
 904 661 889 669 874 669 c 1
 782 607 808 535 760 410 c 1
 722.095 292.674 734.69 173.719 674.286 50.1938 c 1
 685.088 31.2326 689.237 10.8884 689.237 -10.8389 c 0
 689.237 -43.8389 679.237 -79.8389 666.237 -115.839 c 0
 651.237 -159.839 623.167 -176.746 586.237 -204.839 c 0
 569.205 -217.796 559.237 -225.839 538.237 -228.839 c 0
 521.237 -230.839 496.237 -233.839 476.237 -233.839 c 0
 455.237 -233.839 438.237 -230.839 438.237 -220.839 c 0
 438.237 -218.839 439.237 -215.839 442.237 -211.839 c 0
 482.237 -153.839 514.237 -161.839 551.237 -120.839 c 0
 563.237 -107.839 581.237 -98.8389 581.237 -83.8389 c 0
 581.237 -64.782 564.406 -60.8389 550.237 -60.8389 c 0
 543.237 -60.8389 537.237 -61.8389 531.237 -61.8389 c 0
 518.237 -61.8389 506.237 -59.8389 498.237 -49.8389 c 0
 484.237 -33.8389 477.237 -15.8389 477.237 3.16113 c 0
 477.237 15.1611 480.237 27.1611 486.237 40.1611 c 0
 498.897 68.6448 524.084 74.9859 553.924 83.4981 c 1
 549.749 101.791 545.984 121.471 538 142 c 0
 503 232 490 285 460 376 c 1
 428 449 445 513 418 586 c 1
 375 568 l 1
 354 468 356 405 327 304 c 1
 309 248 291 218 282 160 c 0
 281 151 278 144 278 137 c 0
 278 133 279 129 282 124 c 0
 304 89 363 117 378 78 c 0
 380 73 381 69 381 64 c 0
 381 42 358 25 348 0 c 1
 328 0 l 2
 295 0 262 1 225 1 c 0
 208 1 190 1 170 0 c 1
 163 1 157 1 151 1 c 0
 118 1 88 -9 60 -9 c 0
 46 -9 33 -6 20 0 c 1
 29 32 19 59 44 82 c 0
 66 102 90 103 116 103 c 2
 120 103 l 2
 134 103 148 103 164 106 c 1
 189 222 210 326 242 430 c 0
 262 498 261 532 311 604 c 1
 317 646 l 1
 309 659 300 663 290 663 c 0
 278 663 264 658 246 658 c 0
 237 658 226 659 214 664 c 1
 226 733 l 1
 257 743 292 746 327 746 c 0xd0
 368 746 410 742 448 737 c 1
 523 662 506 603 550 500 c 0
 587 411 598 296 638 258 c 1
 683 285 651 395 688 468 c 1
 708 522 723 551 740 606 c 0
 745 621 756 632 756 644 c 0
 756 658.788 739.45 667 727 667 c 0
 715 667 701 663 688 663 c 0
 667.951 663 653 677.909 653 697 c 0
 653 708 656 720 656 733 c 0
 656 735 656 737 656 739 c 1xb0
 679 746 700 748 721 748 c 0
 742 748 764 746 788 746 c 0
 796 746 805 746 814 747 c 1
 825 745 836 745 846 745 c 0
 870 745 892 748 912 748 c 0
 917 748 923 748 928 747 c 1
 929 726 942 707 942 689 c 0xd0
EndSplineSet
Validated: 1
EndChar

StartChar: ncommaaccent
Encoding: 326 326 121
Width: 474
Flags: W
HStem: 374 96<357.5 426.5>
VStem: 39 147<33.1701 127.275> 362.199 108<-97.3893 17.5186> 377 105<276.535 397>
LayerCount: 2
Fore
SplineSet
482 128 m 0xd0
 482 99.5624 466.36 87.0763 448.638 75.9659 c 1
 464.394 54.1351 470.199 30.3692 470.199 4.66797 c 0
 470.199 -28.332 460.199 -64.332 447.199 -100.332 c 0
 432.199 -144.332 404.128 -161.239 367.199 -189.332 c 0
 350.167 -202.289 340.199 -210.332 319.199 -213.332 c 0
 302.199 -215.332 277.199 -218.332 257.199 -218.332 c 0
 236.199 -218.332 219.199 -215.332 219.199 -205.332 c 0
 219.199 -203.332 220.199 -200.332 223.199 -196.332 c 0
 263.199 -138.332 295.199 -146.332 332.199 -105.332 c 0
 344.199 -92.332 362.199 -83.332 362.199 -68.332 c 0xe0
 362.199 -49.2751 345.368 -45.332 331.199 -45.332 c 0
 324.199 -45.332 318.199 -46.332 312.199 -46.332 c 0
 299.199 -46.332 287.199 -44.332 279.199 -34.332 c 0
 265.199 -18.332 258.199 -0.332031 258.199 18.668 c 0
 258.199 19.0577 258.199 19.4474 258.199 19.8371 c 0
 251.149 30.4563 244 41.8472 244 74 c 1
 297 191 330 162 344 200 c 1
 351 240 355 262 363 302 c 0
 367 322 377 334 377 353 c 0
 377 362.694 372.966 374 367 374 c 0
 348 374 309.045 313.966 286 284 c 0
 232.105 213.919 225 161 186 82 c 1
 157 49 170 8 141 1 c 1
 132 0 123 -1 115 -1 c 0
 80 -1 51 14 39 69 c 1
 60 153 93 160 112 206 c 1
 129 243 153 261 155 302 c 0
 155 306 156 310 156 313 c 0
 156 326.236 150.185 340 135 340 c 0
 114 340 100 300 78 300 c 0
 63.0179 300 60 312.412 60 325 c 0
 60 326 60 327 60 328 c 0
 60 333 60 339 58 344 c 1
 86 394 129 415 166 452 c 1
 195 468 217 485 240 485 c 0
 249 485 258 482 268 476 c 1
 274 456 283 445 284 424 c 1
 284 420 l 2
 284 393 274 378 268 350 c 1
 282 378 315 401 364 445 c 1
 388 451 405 470 424 470 c 0
 429 470 434 469 440 466 c 0
 473 447 482 415 482 379 c 0
 482 362 480 344 478 326 c 0
 473 274 433 256 418 206 c 0
 415 194 405 172 405 162 c 0
 405 159 406 157 408 157 c 0
 409 157 410 157 412 158 c 0
 428 165 436 173 446 173 c 0
 449 173 453 172 457 170 c 0
 474 162 482 146 482 128 c 0xd0
EndSplineSet
Validated: 1
EndChar

StartChar: napostrophe
Encoding: 329 329 124
Width: 474
VWidth: 1000
Flags: W
HStem: 374 96<357.5 426.5> 570 116<145.608 194.224>
VStem: 39 147<33.1701 127.275> 135 122<592.422 655.09> 195 61<522.788 579.395> 377 105<276.535 397>
LayerCount: 2
Fore
SplineSet
135 621 m 0xd4
 135 654.764 148.167 686 183 686 c 0
 202 686 218 674 233 658 c 0
 251 638 257 619 257 594 c 0xd4
 257 589 256 584 256 579 c 0
 255 553 248.94 536.063 230 518 c 0
 204.921 494.083 211 488 147 486 c 1
 146 487 145 488 145 489 c 0
 145 499 195 514 195 566 c 2
 195 570 l 1xcc
 169 586 158 576 145 592 c 0
 138 601 135 610 135 621 c 0xd4
377 353 m 0
 377 362.694 372.966 374 367 374 c 0
 348 374 309.045 313.966 286 284 c 0
 232.105 213.919 225 161 186 82 c 1
 157 49 170 8 141 1 c 1
 132 0 123 -1 115 -1 c 0
 80 -1 51 14 39 69 c 1xe4
 60 153 93 160 112 206 c 1
 129 243 153 261 155 302 c 0
 155 306 156 310 156 313 c 0
 156 326.236 150.185 340 135 340 c 0
 114 340 100 300 78 300 c 0
 63.0179 300 60 312.412 60 325 c 0
 60 326 60 327 60 328 c 0
 60 333 60 339 58 344 c 1
 86 394 129 415 166 452 c 1
 195 468 217 485 240 485 c 0
 249 485 258 482 268 476 c 1
 274 456 283 445 284 424 c 1
 284 420 l 2
 284 393 274 378 268 350 c 1
 282 378 315 401 364 445 c 1
 388 451 405 470 424 470 c 0
 429 470 434 469 440 466 c 0
 473 447 482 415 482 379 c 0
 482 362 480 344 478 326 c 0
 473 274 433 256 418 206 c 0
 415 194 405 172 405 162 c 0
 405 159 406 157 408 157 c 0
 409 157 410 157 412 158 c 0
 428 165 436 173 446 173 c 0
 449 173 453 172 457 170 c 0
 474 162 482 146 482 128 c 0
 482 84.1823 446.919 78.5621 418 56 c 0
 394.973 38.0347 380 32 356 16 c 1
 334 16 314 11 291 11 c 0
 282 11 272 12 262 14 c 1
 254 27 244 36 244 74 c 1
 297 191 330 162 344 200 c 1
 351 240 355 262 363 302 c 0
 367 322 377 334 377 353 c 0
EndSplineSet
Validated: 1
EndChar

StartChar: Eng
Encoding: 330 330 125
Width: 710
VWidth: 1080
Flags: W
HStem: 1 102<61.314 167.491> 663 83<227.456 316.624 688.817 761.218 874.703 928> 663 76<656 720.016>
LayerCount: 2
Fore
SplineSet
942 689 m 0xc0
 942 674.936 930.763 661 916 661 c 0
 904 661 889 669 874 669 c 1
 782 607 808 535 760 410 c 1
 721 288 736 165 667 36 c 0
 662 27 579 -143 474 -196 c 0
 464 -201 455 -204 445 -204 c 0
 437 -204 420 -196 420 -196 c 1
 420 -189 487 -136 530 -78 c 0
 565 -30 575 26 576 30 c 1
 576 38 l 2
 576 71 553.807 102.921 538 142 c 0
 502 231 490 285 460 376 c 1
 428 449 445 513 418 586 c 1
 375 568 l 1
 354 468 356 405 327 304 c 1
 309 248 290 218 282 160 c 0
 281 151 278 144 278 137 c 0
 278 133 279 129 282 124 c 0
 303 88 363 117 378 78 c 0
 380 73 381 69 381 64 c 0
 381 42 358 25 348 0 c 1
 328 -0 l 2
 295 -0 262 1 225 1 c 0
 208 1 190 1 170 0 c 1
 163 1 157 1 151 1 c 0
 118 1 88 -9 60 -9 c 0
 46 -9 33 -6 20 0 c 1
 29 32 19 60 44 82 c 0
 66 102 90 103 116 103 c 2
 120 103 l 2
 134 103 148 103 164 106 c 1
 189 222 210 326 242 430 c 0
 262 498 261 532 311 604 c 1
 317 646 l 1
 309 659 300 663 290 663 c 0
 278 663 264 658 246 658 c 0
 237 658 226 659 214 664 c 1
 226 733 l 1
 257 743 292 746 327 746 c 0xc0
 368 746 410 742 448 737 c 1
 523 662 506 603 550 500 c 0
 587 411 598 296 638 258 c 1
 683 285 651 395 688 468 c 1
 708 522 721.7 551.099 740 606 c 0
 745 621 756 632 756 644 c 0
 756 658.788 739.45 667 727 667 c 0
 715 667 701 663 688 663 c 0
 667.951 663 653 677.909 653 697 c 0
 653 708 656 720 656 733 c 0
 656 735 656 737 656 739 c 1xa0
 679 746 700 748 721 748 c 0
 742 748 764 746 788 746 c 0
 796 746 805 746 814 747 c 1
 825 745 836 745 846 745 c 0
 870 745 892 748 912 748 c 0
 917 748 923 748 928 747 c 1
 929 726 942 707 942 689 c 0xc0
EndSplineSet
Validated: 1
EndChar

StartChar: eng
Encoding: 331 331 126
Width: 474
VWidth: 1000
Flags: W
HStem: 374 96<357.5 426.5>
VStem: 39 147<33.1701 127.275> 377 102<259.823 373.992>
LayerCount: 2
Fore
SplineSet
78 300 m 0
 63.0179 300 60 312.412 60 325 c 0
 60 326 60 327 60 328 c 0
 60 333 60 339 58 344 c 1
 86 394 129 415 166 452 c 1
 195 468 217 485 240 485 c 0
 249 485 258 482 268 476 c 1
 274 456 283 445 284 424 c 1
 284 420 l 2
 284 393 274 378 268 350 c 1
 282 378 315 401 364 445 c 1
 388 451 405 470 424 470 c 0
 429 470 434 469 440 466 c 0
 474 447 479 415 479 378 c 0
 479 361 478 344 478 326 c 0
 477 262 451.978 230.008 430 170 c 0
 414.985 129.005 404 107 384 68 c 0
 334 -29 336 -117 242 -172 c 0
 224 -183 189 -191 166 -191 c 0
 153 -191 144 -189 144 -182 c 0
 144 -180 146 -177 148 -174 c 2
 250 -70 l 1
 275 -36 284 6 306 54 c 0
 331 107 330 162 344 200 c 1
 351 240 355 262 363 302 c 0
 367 322 377 334 377 353 c 0
 377 362.694 372.966 374 367 374 c 0
 348 374 309.045 313.966 286 284 c 0
 232.105 213.919 225 161 186 82 c 1
 157 49 170 8 141 1 c 1
 132 -0 123 -1 115 -1 c 0
 80 -1 51 14 39 69 c 1
 60 153 93 160 112 206 c 1
 129 243 153 261 155 302 c 0
 155 306 156 310 156 313 c 0
 156 326.236 150.185 340 135 340 c 0
 114 340 100 300 78 300 c 0
EndSplineSet
Validated: 1
EndChar

StartChar: OE
Encoding: 338 338 131
Width: 998
VWidth: 1080
Flags: W
HStem: -10 55<304.832 444.008> -1 127<921.588 988.882> 4 63<715.406 905.377> 366 43<781.122 855.9> 646 96<388.68 437.152> 670 66<822.007 992.297> 738 20G<505 521>
VStem: 83 117<162.909 425.143> 1048 70<554.841 601.227>
LayerCount: 2
Fore
SplineSet
982 129 m 0x5180
 1001.48 129 1012 107.798 1012 91 c 0
 1012 64 989 35 984 0 c 1
 977 -1 969 -1 960 -1 c 0x5180
 920 -1 864 4 802 4 c 0x3180
 774 4 744.003 2.96735 714 0 c 0
 623 -9 474 -10 430 -10 c 2
 418 -10 l 1
 418 -8 419 -7 419 -5 c 1
 399 -8 380 -10 362 -10 c 0
 339 -10 316 -7 288 0 c 0
 236 13 215 40 168 66 c 1
 104 125 98 171 86 276 c 1
 85 303 83 326 83 348 c 0
 83 384 87 418 98 462 c 0
 114 526 126 566 170 616 c 0
 222 675 270 691 342 723 c 0
 349 726 353 726 360 728 c 1
 370 684 374 671 374 663 c 0
 374 656 371 653 366 638 c 1
 326 594 296 574 264 524 c 0
 238 483 235 454 216 410 c 1
 207 359 200 317 200 275 c 0
 200 234 207 194 228 148 c 1
 269 111 281 72 332 52 c 0
 344 47 354 45 365 45 c 0
 377 45 388 48 402 52 c 0
 472 73 512 101 558 152 c 1
 565 195 574 247 598 302 c 1
 664 484 l 1
 670 499 l 1
 664.555 558.891 647.865 621.706 615 656 c 1
 605 657 593 661 580 668 c 0
 571 673 564 685 551 690 c 0
 540 695 541 697 520 694 c 0
 470 688 453 655 436 646 c 1
 400 646 l 1
 389 657 386 671 386 685 c 0
 386 699 389 714 389 729 c 0
 389 733 389 738 388 742 c 1x9980
 484 756 l 2
 494 758 502 758 508 758 c 0
 534 758 534 746 578 734 c 0
 586 732 590 734 598 734 c 0
 676 736 721 737 798 746 c 1
 833 742 853 737 888 736 c 0
 892 736 896 736 900 736 c 0
 932 736 953 739 988 740 c 0
 1008 741 1024 747 1040 747 c 0
 1049 747 1057 746 1066 740 c 0
 1102 718 1095 681 1114 644 c 1
 1116 628 1118 615 1118 600 c 0
 1118 586 1116 572 1108 554 c 1
 1093 554 1076 545 1064 545 c 0
 1057 545 1052 547 1048 554 c 0
 1024 596 1022 630 982 656 c 0
 962 669 944 671 924 671 c 0
 912 671 900 670 886 670 c 2
 884 670 l 2
 870 670 855 674 842 674 c 0
 831 674 822 670 822 656 c 0
 822 618 804 600 792 564 c 1
 791 515 780 473 780 434 c 0
 780 430 780 426 780 422 c 1
 804 421 824 409 843 409 c 0
 851 409 859 411 868 416 c 0
 904.071 437.861 871.681 514 938 514 c 0
 950 514 962 512 975 512 c 2
 982 512 l 1
 983 505 984 498 984 491 c 0
 984 440 956 399 952 344 c 1
 936 305 942 273 922 236 c 1
 856 238 l 1
 849 257 846 272 846 285 c 0
 846 312 856 330 856 357 c 2
 856 362 l 1
 838 364 815 366 792 366 c 0
 784 366 775 366 766 365 c 1
 765 355 762.967 345.006 761 334 c 0
 747.78 260.039 726 214 686 159 c 1
 685 146 684 134 682 122 c 1
 710.644 97.0923 722.324 67 773 67 c 0x3780
 792 67 810 72 834 72 c 1
 843 70 850 70 857 70 c 0
 888 70 906 87 944 126 c 1
 949 126 l 2
 961 126 972 129 982 129 c 0x5180
EndSplineSet
Validated: 1
LCarets2: 1 0 
Ligature2: "'dlig' Discretionary Ligatures in Latin lookup 4-1" O E
EndChar

StartChar: oe
Encoding: 339 339 132
Width: 496
VWidth: 1000
Flags: W
HStem: 7 67<120.619 201.043> 13 73<338.304 390.715> 367 79<209.908 300.621> 409 73<430.573 514>
VStem: 47 71<75.9649 233.938> 502 65<339.236 428>
LayerCount: 2
Fore
SplineSet
118 112 m 0x6c
 118 92.1095 129.316 74 152 74 c 0xac
 163 74 175 79 186 86 c 0
 222.855 106.475 233.803 139.607 253 178 c 0
 257 187 260 197 263 208 c 0
 275 249 285 280 300 310 c 1
 301 318 303 326 303 333 c 0
 303 353.373 285.144 367 266 367 c 0
 258 367 249 365 240 362 c 0
 198 346 184.108 316.939 162 278 c 0
 134.136 228.923 123 196 120 140 c 0
 120 130 118 120 118 112 c 0x6c
271 446 m 0
 301.451 446 344.448 427.287 357 398 c 1
 378 426 398 447 436 462 c 0
 460 472 484 482 506 482 c 0
 522 482 536 477 549 464 c 0
 563 451 567 436 567 420 c 0
 567 398 557.903 374.036 549 350 c 0
 533.835 309.061 510 293 476 266 c 0
 428 227 369 241 338 188 c 0
 331 175 327 163 327 151 c 0
 327 124.694 341.71 87.7527 368 86 c 1
 369 86 l 2
 400 86 408 116 436 132 c 0
 449 139 457 150 471 150 c 0
 472 150 473 150 474 150 c 0
 485 148 487 138 496 130 c 0
 496 129 496 128 496 127 c 0
 496 98 436 58 386 32 c 1
 359 27 340 13 317 13 c 0x5c
 286.079 13 265.514 32.5784 254 51 c 1
 235.389 26.663 200.743 7 158 7 c 0
 126 7 97 20 72 46 c 0
 51 67 47 90 47 117 c 0
 47 127 48 137 48 148 c 0
 50 203 63 235 88 284 c 0
 122 349 137.024 400.945 204 430 c 0
 227.008 439.981 250 446 271 446 c 0
502 371 m 0
 502 389.389 487.848 409 468 409 c 0
 461 409 452 407 444 404 c 0
 419 395 408 379 396 356 c 1
 392 335 391 317 384 296 c 1
 389 287 398 284 408 284 c 0
 410 284 412 284 414 284 c 0
 446 286 469 298 486 326 c 0
 495 341 502 356 502 371 c 0
EndSplineSet
Validated: 1
LCarets2: 1 0 
Ligature2: "'dlig' Discretionary Ligatures in Latin lookup 4-1" o e
EndChar

StartChar: Rcommaaccent
Encoding: 342 342 133
Width: 645
Flags: W
HStem: -1 83<29 134.346> 329 53<332.61 389.939> 685 63<189.376 301.873> 698 46<341 494>
VStem: 512.081 108<-125.227 -17.1909> 575 124<493.529 663.216>
LayerCount: 2
Fore
SplineSet
333 404 m 0xd4
 332 402 332 400 332 398 c 0
 332 386 344 382 360 382 c 0
 381 382 410 389 429 392 c 0
 475 400 504.839 410.119 533 448 c 0
 562.83 488.126 575 524 575 566 c 0
 575 584 573 602 569 622 c 1
 565 652 553 672 525 688 c 0
 515 694 505 698 494 698 c 0
 487 698 480 697 473 694 c 0
 433 678 421 648 401 610 c 1
 373 566 373 534 357 484 c 1
 349 454 345 444 333 404 c 0xd4
654 72 m 0
 654 47.8794 635.106 23.6131 615.893 11.4471 c 1
 618.824 0.327038 620.081 -11.212 620.081 -23.1699 c 0
 620.081 -56.1699 610.081 -92.1699 597.081 -128.17 c 0
 582.081 -172.17 554.01 -189.077 517.081 -217.17 c 0
 500.048 -230.127 490.081 -238.17 469.081 -241.17 c 0
 452.081 -243.17 427.081 -246.17 407.081 -246.17 c 0
 386.081 -246.17 369.081 -243.17 369.081 -233.17 c 0
 369.081 -231.17 370.081 -228.17 373.081 -224.17 c 0
 413.081 -166.17 445.081 -174.17 482.081 -133.17 c 0
 494.081 -120.17 512.081 -111.17 512.081 -96.1699 c 0
 512.081 -77.113 495.25 -73.1699 481.081 -73.1699 c 0
 474.081 -73.1699 468.081 -74.1699 462.081 -74.1699 c 0
 449.081 -74.1699 437.081 -72.1699 429.081 -62.1699 c 0
 415.081 -46.1699 408.081 -28.1699 408.081 -9.16992 c 0
 408.081 2.83008 411.081 14.8301 417.081 27.8301 c 0
 429.805 56.46 455.23 62.7435 485.252 71.3046 c 1
 476.765 89.1156 469.854 109.072 461 130 c 0
 431 194 409 228 389 314 c 0
 387 326 377 329 365 329 c 0
 313.983 329 307.806 298.806 281 272 c 1
 276 211 248 160 248 114 c 0
 248 108 248 103 249 98 c 1
 277 90 301 102 317 78 c 0
 322 71 324 64 324 57 c 0
 324 40 313 21 313 0 c 1
 306 -3 299 -4 290 -4 c 0
 265 -4 233 6 196 6 c 0
 181 6 165 4 149 0 c 1
 138 1 127 2 117 2 c 0
 92 2 69 -1 48 -1 c 0
 41 -1 35 -1 29 0 c 1
 29 17 22 33 22 47 c 0
 22 69.5988 43.4995 82 62 82 c 0
 77 82 93 77 111 77 c 0
 114 77 118 78 121 78 c 1
 183 182 177 274 229 390 c 1
 245 458 249 498 269 564 c 1
 281 594 301 606 301 638 c 1
 302 644 303 650 303 655 c 0
 303 674.109 282.976 685 265 685 c 0
 249 685 232 679 215 679 c 0
 206 679 197 681 189 688 c 1
 183 695 182 702 182 711 c 2
 182 724 l 2
 182 728 182 733 181 738 c 1
 189 746 205 748 227 748 c 0xe8
 258 748 298 744 341 744 c 0xd8
 362 744 384 745 405 748 c 1xe8
 473 740 515 750 581 728 c 0
 621 714 653 706 673 670 c 1
 691 641 699 612 699 583 c 0
 699 557 692 530 681 502 c 0
 661 454 627 438 585 406 c 1
 561 390 545 390 521 374 c 0
 498.313 358.119 472 355.105 472 320 c 0
 472 290 499 272 513 242 c 1
 541 190 539 146 585 110 c 0
 590 107 596 106 602 106 c 0
 610 106 618 107 626 107 c 0
 634 107 640 106 645 98 c 0
 651 90 654 81 654 72 c 0
EndSplineSet
Validated: 1
EndChar

StartChar: rcommaaccent
Encoding: 343 343 134
Width: 340
Flags: W
HStem: -266.177 21G<-1.25588 19.2441> 383 69<126.858 209.5>
VStem: 114.244 108<-145.234 -21.6304>
LayerCount: 2
Fore
SplineSet
142.244 61.8232 m 0
 195.892 61.8232 222.244 -0.0839543 222.244 -43.1768 c 0
 222.244 -76.1768 212.244 -112.177 199.244 -148.177 c 0
 184.244 -192.177 156.173 -209.084 119.244 -237.177 c 0
 102.212 -250.134 92.2441 -258.177 71.2441 -261.177 c 0
 54.2441 -263.177 29.2441 -266.177 9.24414 -266.177 c 0
 -11.7559 -266.177 -28.7559 -263.177 -28.7559 -253.177 c 0
 -28.7559 -251.177 -27.7559 -248.177 -24.7559 -244.177 c 0
 15.2441 -186.177 47.2441 -194.177 84.2441 -153.177 c 0
 96.2441 -140.177 114.244 -131.177 114.244 -116.177 c 0
 114.244 -97.1199 97.4127 -93.1768 83.2441 -93.1768 c 0
 76.2441 -93.1768 70.2441 -94.1768 64.2441 -94.1768 c 0
 51.2441 -94.1768 39.2441 -92.1768 31.2441 -82.1768 c 0
 17.2441 -66.1768 10.2441 -48.1768 10.2441 -29.1768 c 0
 10.2441 -6.50657 22.5834 19.5586 36.7615 30.6302 c 1
 29.9471 37.4598 24 50.8311 24 63 c 0
 24 90 49.9999 111 65 141 c 0
 95.4007 201.801 135.736 225.074 154 290 c 0
 159.914 311.024 170 335 170 353 c 0
 170 368.175 159.811 383 141 383 c 0
 113 383 99 337 70 314 c 1
 69 319 68 324 68 329 c 0
 68 378 124 416 124 416 c 1
 141 428 148 441 168 446 c 0
 180 449 192 452 203 452 c 0
 216 452 228.988 447.987 240 438 c 0
 260.977 418.975 250 395 256 368 c 1
 300 386 302 415 328 422 c 1
 348 431 357 443 378 444 c 1
 391 444 l 2
 405 444 417 442 424 429 c 0
 428 422 429 415 429 409 c 0
 429 388 414 370 400 349 c 0
 391 336 385 320 370 320 c 0
 369 320 368 320 367 320 c 0
 350 322 358 355 340 356 c 1
 336 356 l 2
 274 356 265.073 281.945 226 230 c 0
 183.08 172.94 173.945 130.043 130 74 c 0
 126.234 69.1972 122.95 64.2619 119.847 59.4135 c 1
 127.654 60.8991 135.18 61.8232 142.244 61.8232 c 0
EndSplineSet
Validated: 1
EndChar

StartChar: Scedilla
Encoding: 350 350 141
Width: 424
Flags: W
HStem: -82.0664 156.066<191.397 261.499> 677 79<282.386 402.28>
VStem: 39 103<105.5 228.688> 47 95<126.519 207.719> 147 93<502.931 634.112> 261.855 108<-134.123 -20.6564> 348 84<119.74 271.295> 437 74<519.061 640.338>
LayerCount: 2
Fore
SplineSet
103 330 m 0xd9
 130.335 330 158 301.223 158 270 c 0
 158 244 142 217 142 188 c 0
 142 180 143 172 146 164 c 0
 162 123 180 96 221 79 c 0
 230 75 237 74 245 74 c 0
 257 74 269 77 283 81 c 0
 303 87 319 89 329 107 c 0
 343 131 348 154 348 177 c 0
 348 209 336.933 241.974 323 278 c 0
 292.855 355.944 227 352 186 443 c 1
 168.979 491.63 147 515.744 147 577 c 0
 147 597 151 615 162 636 c 0
 190 691 220 723 278 744 c 0
 301 752 321 756 340 756 c 0
 368 756 395 748 426 733 c 0
 471 711 478 675 511 637 c 1
 509 582 496 527 477 495 c 1
 437 500 l 1
 436 510 435 520 435 528 c 0
 435 552 440 568 440 584 c 0
 440 595 438 606 431 620 c 1
 414 638 409 655 386 666 c 0
 370 673 356 677 342 677 c 0
 332 677 323 675 312 671 c 0
 274 656 253 631 243 592 c 0
 241 584 240 577 240 570 c 0
 240 543 253 522 266 495 c 0
 307 411 385 398 416 310 c 0
 427 280 432 254 432 228 c 0xeb
 432 200 426 172 416 139 c 0
 401.755 92.9126 387.435 57.5016 353.223 31.8168 c 1
 365.279 12.048 369.855 -9.24635 369.855 -32.0664 c 0
 369.855 -65.0664 359.855 -101.066 346.855 -137.066 c 0
 331.855 -181.066 303.784 -197.972 266.855 -226.066 c 0
 249.823 -239.023 239.855 -247.066 218.855 -250.066 c 0
 201.855 -252.066 176.855 -255.066 156.855 -255.066 c 0
 135.855 -255.066 118.855 -252.066 118.855 -242.066 c 0
 118.855 -240.066 119.855 -237.066 122.855 -233.066 c 0
 162.855 -175.066 194.855 -183.066 231.855 -142.066 c 0
 243.855 -129.066 261.855 -120.066 261.855 -105.066 c 0
 261.855 -86.0095 245.024 -82.0664 230.855 -82.0664 c 0
 223.855 -82.0664 217.855 -83.0664 211.855 -83.0664 c 0
 198.855 -83.0664 186.855 -81.0664 178.855 -71.0664 c 0
 164.855 -55.0664 157.855 -37.0664 157.855 -18.0664 c 0
 157.855 -4.70867 162.59 11.8327 169.544 24.3329 c 1
 144.724 42.0015 141.813 73.914 111 88 c 0
 106 90 101 91 96 91 c 0
 83 91 70 86 59 86 c 0
 52 86 45 88 40 94 c 1
 39 99 39 103 39 108 c 0xed
 39 133 47 160 47 190 c 0
 47 196 47 202 46 208 c 1
 58 254 63 292 84 326 c 1
 90 329 96 330 103 330 c 0xd9
EndSplineSet
Validated: 1
EndChar

StartChar: scedilla
Encoding: 351 351 142
Width: 277
Flags: W
HStem: 376 92<211.035 261.641>
VStem: 143.855 108<-141.123 -22.4681> 145 61<298.845 372.968> 185 80<116.536 245.205>
LayerCount: 2
Fore
SplineSet
210.946 53.1945 m 1x90
 240.032 30.3076 251.855 -5.86979 251.855 -39.0664 c 0
 251.855 -72.0664 241.855 -108.066 228.855 -144.066 c 0
 213.855 -188.066 185.784 -204.972 148.855 -233.066 c 0
 131.823 -246.023 121.855 -254.066 100.855 -257.066 c 0
 83.8555 -259.066 58.8555 -262.066 38.8555 -262.066 c 0
 17.8555 -262.066 0.855469 -259.066 0.855469 -249.066 c 0
 0.855469 -247.066 1.85547 -244.066 4.85547 -240.066 c 0
 44.8555 -182.066 76.8555 -190.066 113.855 -149.066 c 0
 125.855 -136.066 143.855 -127.066 143.855 -112.066 c 0xc0
 143.855 -93.0095 127.024 -89.0664 112.855 -89.0664 c 0
 105.855 -89.0664 99.8555 -90.0664 93.8555 -90.0664 c 0
 80.8555 -90.0664 68.8555 -88.0664 60.8555 -78.0664 c 0
 46.8555 -62.0664 39.8555 -44.0664 39.8555 -25.0664 c 0
 39.8555 -10.3529 46.0376 9.36962 54.0135 21.3957 c 1
 36.1988 34.2158 25 53.5544 25 76 c 0
 25 93 30 109 40 124 c 0
 49 138 63 144 78 144 c 0
 83 144 88 143 93 142 c 0
 106 139 105 123 117 118 c 0
 127 114 137 110 146 110 c 0
 172.654 110 185 148.794 185 167 c 0x90
 185 213 145 264 145 319 c 0xa0
 145 324 145 329 146 334 c 0
 149 360 147 377 159 400 c 0
 171 422 181.022 435.95 204 446 c 0
 229.024 456.945 254 468 277 468 c 0
 311.441 468 341 435.182 341 402 c 0
 341 376.412 325.517 346 297 346 c 0
 287 346 276 349 265 352 c 0x90
 252 356 251 376 239 376 c 2
 237 376 l 1
 216 372 206 352 206 331 c 0xa0
 206 328 207 325 207 322 c 0
 210 299 239 301 248 280 c 0
 259 252 265 227 265 203 c 0
 265 176 258 149 248 118 c 0
 238.908 90.7233 228.837 69.8057 210.946 53.1945 c 1x90
EndSplineSet
Validated: 1
EndChar

StartChar: Tcedilla
Encoding: 354 354 145
Width: 666
Flags: W
HStem: 7 66<436.172 468.098> 7 57<436 456.436> 15 85<204.564 236.973> 366 94<207.042 272.121> 448 20G<271 284.5> 639 90<569.728 699.587> 647 82<559.06 661.595 663.703 699.895> 666 70<305.81 469.552> 738 20G<710.5 723>
VStem: 132 169<395.751 459.819> 132 71<463.572 559.992> 334 108<-138.057 -28.5>
LayerCount: 2
Fore
SplineSet
457 73 m 0x80b0
 467 73 476 63 476 52 c 0
 476 39 463 24 460 7 c 1x80b0
 436 7 l 1x40b0
 440 -7 442 -21 442 -36 c 0
 442 -69 432 -105 419 -141 c 0
 404 -185 375.929 -201.907 339 -230 c 0
 321.967 -242.957 312 -251 291 -254 c 0
 274 -256 249 -259 229 -259 c 0
 208 -259 191 -256 191 -246 c 0
 191 -244 192 -241 195 -237 c 0
 235 -179 267 -187 304 -146 c 0
 316 -133 334 -124 334 -109 c 0
 334 -90 318 -86 303 -86 c 0
 296 -86 290 -87 284 -87 c 0
 271 -87 259 -85 251 -75 c 0
 237 -59 230 -41 230 -22 c 0
 230 -12 233 -2 237 9 c 1
 229 10 220 12 210 15 c 1
 208 36 195 54 195 70 c 0
 195 88 214 100 229 100 c 0
 250 100 273 84 300 83 c 1
 326 188 359 300 408 437 c 1
 431 492 452 521 465 579 c 0
 472 607 469 624 471 653 c 1
 440 661 416 666 391 666 c 0
 371 666 351 663 328 654 c 0
 287 639 271.099 614.918 243 581 c 0
 223.07 556.942 206 542 203 511 c 0
 203 509 203 507 203 505 c 0
 203 485 212 460 236 460 c 0x31b0
 250 460 265 468 277 468 c 0
 292 468 301 452 301 438 c 0x08d0
 301 401 252 366 215 366 c 0
 202 366 188 369 175 377 c 0
 140 397 139 431 134 471 c 0
 133 479 132 487 132 494 c 0
 132 517 138.045 534.982 148 560 c 0
 167.086 607.966 185 633 222 668 c 0
 253 697 273 713 313 725 c 0
 341 734 364 736 387 736 c 0x11b0
 415 736 442 733 475 733 c 2
 497 733 l 2
 538 733 568 729 603 729 c 0x04b0
 620 729 638 730 659 733 c 0
 685 736 700 758 721 758 c 0
 725 758 729 757 733 756 c 0
 757 747 774 728 774 704 c 0
 774 664 742 658 711 647 c 0x02b0
 693 641 678 639 663 639 c 0x04b0
 633 639 605 647 568 647 c 1
 537 585 543 512 513 429 c 1
 491 360 480 321 456 252 c 0
 435 192 404 162 399 98 c 0
 398.848 95.5693 398.742 93.0925 398.742 90.6397 c 0
 398.742 76.9464 402.038 64 419 64 c 0x42b0
 431 64 445 73 457 73 c 0x80b0
EndSplineSet
Validated: 1
EndChar

StartChar: tcedilla
Encoding: 355 355 146
Width: 292
Flags: W
HStem: 371 79<299 353.764> 393 74<98.238 164.193>
VStem: 42 116<79.8012 168.515> 151.2 108<-126.249 -7.74371> 216 106<476.4 565.626>
LayerCount: 2
Fore
SplineSet
222.335 64.6056 m 1xa8
 249.035 38.8688 259.2 8.70497 259.2 -24.1924 c 0
 259.2 -57.1924 249.2 -93.1924 236.2 -129.192 c 0
 221.2 -173.192 193.128 -190.098 156.2 -218.192 c 0
 139.168 -231.15 129.2 -239.192 108.2 -242.192 c 0
 91.2002 -244.192 66.2002 -247.192 46.2002 -247.192 c 0
 25.2002 -247.192 8.2002 -244.192 8.2002 -234.192 c 0
 8.2002 -232.192 9.2002 -229.192 12.2002 -225.192 c 0
 52.2002 -167.192 84.2002 -175.192 121.2 -134.192 c 0
 133.2 -121.192 151.2 -112.192 151.2 -97.1924 c 0x90
 151.2 -78.1355 134.369 -74.1924 120.2 -74.1924 c 0
 113.2 -74.1924 107.2 -75.1924 101.2 -75.1924 c 0
 88.2002 -75.1924 76.2002 -73.1924 68.2002 -63.1924 c 0
 54.2002 -47.1924 47.2002 -29.1924 47.2002 -10.1924 c 0
 47.2002 3.20164 51.9721 19.8364 58.955 32.3256 c 1
 48.6442 45.6238 42 68.6024 42 91 c 0
 42 142 75.5907 179.15 96 234 c 0
 112 277 132 298 144 342 c 0
 148 354 155 365 155 375 c 0
 155 384.053 148.369 393 139 393 c 0
 127 393 113 383 101 383 c 0
 88.5313 383 82 399.495 82 410 c 0
 82 437.284 107.457 467 138 467 c 0x60
 149 467 161 465 174 465 c 0
 178 465 182 465 186 466 c 1
 206 491 201 493 216 568 c 1
 236 580 244 600 266 600 c 2
 268 600 l 1
 291 599 297 579 316 566 c 1
 320 558 322 551 322 544 c 0
 322 517 299 493 299 460 c 0
 299 457 299 454 300 450 c 1
 302 450 l 2
 315 450 327 455 338 455 c 0
 353.777 455 363 437.235 363 423 c 0
 363 400.246 344.024 371 318 371 c 0
 305 371 291 376 275 376 c 2
 270 376 l 1
 234 319 185 259 162 172 c 1
 162 170 l 2
 162 162 158 153 158 146 c 0
 158 138.498 166.883 133 175 133 c 0
 197 133 214 173 238 173 c 0
 259.328 173 271 154.21 271 137 c 0
 271 135 270 132 270 130 c 0
 265.228 97.7906 246.581 79.8122 222.335 64.6056 c 1xa8
EndSplineSet
Validated: 1
EndChar

StartChar: Tbar
Encoding: 358 358 149
Width: 666
VWidth: 1080
Flags: W
HStem: 7 76<229.986 305.359> 7 66<419.564 468.098> 7 57<398.874 456.436> 290 76<299.94 358 493 562.246> 366 94<207.948 272.121> 448 20G<271 284.5> 639 90<569.728 699.587> 647 82<559.06 661.595 663.703 699.895> 666 70<305.81 469.552> 738 20G<710.5 723>
VStem: 133 70<463.643 559.992>
LayerCount: 2
Fore
SplineSet
215 366 m 0x0860
 147 366 133 430 133 493 c 0
 133 516 138 534 148 560 c 0
 167 608 185 633 222 668 c 0
 253 697 273 713 313 725 c 0
 341 734 364 736 387 736 c 0x08e0
 415 736 442 733 475 733 c 2
 497 733 l 2
 538 733 568 729 603 729 c 0x0260
 620 729 638 730 659 733 c 0
 685 736 700 758 721 758 c 0
 725 758 729 757 733 756 c 0
 757 747 774 728 774 704 c 0
 774 664 742 658 711 647 c 0x0160
 693 641 678 639 663 639 c 0x0260
 633 639 605 647 568 647 c 1
 537 585 543 512 513 429 c 1
 493 366 l 1
 497 366 l 1
 525 364 547 363 563 351 c 0
 573 343 579 335 579 327 c 0
 579 321 576 315 569 310 c 0
 545 291 510 291 469 290 c 1
 456 252 l 2
 435 192 404 162 399 98 c 0
 398.848 95.5693 398.742 93.0925 398.742 90.6397 c 0
 398.742 76.9464 402.038 64 419 64 c 0x3160
 431 64 445 73 457 73 c 0
 467 73 476 63 476 52 c 0
 476 39 463 24 460 7 c 1
 443 7 l 2x4060
 420 7 397 8 371 8 c 0
 359 8 347 8 334 7 c 1x2060
 326 9 318 9 310 9 c 0
 295 9 281 7 265 7 c 0
 249 7 232 9 210 15 c 1
 208 36 195 54 195 70 c 0
 195 88 214 100 229 100 c 0
 250 100 273 84 300 83 c 1
 316 148 335 215 358 289 c 1
 333 291 311 297 293 310 c 0
 287 315 284 320 284 325 c 0
 284 333 290 340 299 346 c 0
 319 358 343 359 370 359 c 2
 381 359 l 1
 408 437 l 1
 431 492 452 521 465 579 c 0
 472 607 469 624 471 653 c 1
 440 661 416 666 391 666 c 0
 371 666 351 663 328 654 c 0
 287 639 271.099 614.918 243 581 c 0
 223.07 556.942 206 542 203 511 c 0
 203 509 203 507 203 505 c 0
 203 485 212 460 236 460 c 0x88e0
 250 460 265 468 277 468 c 0x0460
 292 468 301 452 301 438 c 0
 301 401 252 366 215 366 c 0x0860
EndSplineSet
Validated: 1
EndChar

StartChar: tbar
Encoding: 359 359 150
Width: 346
Flags: W
HStem: 8 125<87.2198 186> 212 76<212 313.246> 371 79<299 353.764> 393 74<98.238 164.193>
VStem: 216 106<476.4 565.626>
LayerCount: 2
Fore
SplineSet
363 423 m 0xe8
 363 400.246 344.024 371 318 371 c 0xe8
 305 371 291 376 275 376 c 2
 270 376 l 1
 252 348 232 320 212 288 c 1
 218 288 223 289 229 289 c 0
 235 289 241 288 248 288 c 0
 276 286 298 285 314 273 c 0
 324 265 330 257 330 249 c 0
 330 243 327 237 320 232 c 0
 293 210 251 213 203 212 c 0
 193 212 184 212 175 211 c 1
 170 199 166 186 162 172 c 1
 162 170 l 2
 162 162 158 153 158 146 c 0
 158 138.498 166.883 133 175 133 c 0
 197 133 214 173 238 173 c 0
 259.328 173 271 154.21 271 137 c 0
 271 135 270 132 270 130 c 0
 262 76 215 62 168 34 c 0
 147 22 131 8 110 8 c 0
 64.4396 8 42 44.8714 42 91 c 0
 42 135 68 169 88 214 c 1
 70.3715 217.111 35 227.471 35 247 c 0
 35 255 41 262 50 268 c 0
 69 280 92 281 118 281 c 1
 128 300 137 317 144 342 c 0
 148 354 155 365 155 375 c 0
 155 384.053 148.369 393 139 393 c 0
 127 393 113 383 101 383 c 0
 88.5313 383 82 399.495 82 410 c 0
 82 437.284 107.457 467 138 467 c 0xd8
 149 467 161 465 174 465 c 0
 178 465 182 465 186 466 c 1
 206 491 201 493 216 568 c 1
 236 580 244 600 266 600 c 2
 268 600 l 1
 291 599 297 579 316 566 c 1
 320 558 322 551 322 544 c 0
 322 517 299 493 299 460 c 0
 299 457 299 454 300 450 c 1
 302 450 l 2
 315 450 327 455 338 455 c 0
 353.777 455 363 437.235 363 423 c 0xe8
EndSplineSet
Validated: 1
EndChar

StartChar: Uogonek
Encoding: 370 370 161
Width: 753
Flags: W
HStem: -2.86867 65.8687<339.229 439.214> 664 84<153.655 228 357.166 425.859 609.608 699.938>
VStem: 101 119<125.486 321.628> 298.013 35.987<-105.266 -3.4488> 414.013 19<-109.414 -86.8243>
LayerCount: 2
Fore
SplineSet
229 634 m 0
 229 654.226 215.404 664 198 664 c 0
 192 664 186 663 180 663 c 0
 169 663 159 665 153 674 c 0
 145 684 141 697 141 708 c 0
 141 719 144 729 153 737 c 1
 167 745 179 748 191 748 c 0
 216 748 239 735 268 735 c 2
 277 735 l 2
 323 735 300 747 392 747 c 0
 406 747 423 747 443 746 c 1
 450 738 453 728 453 718 c 0
 453 699 442 680 426 666 c 0
 423 664 420 663 417 663 c 0
 408 663 399 669 390 669 c 0
 387 669 384 668 381 666 c 0
 309 608 309 534 274 446 c 1
 249 377 236 337 229 264 c 0
 226 236 220 213 220 190 c 0
 220 173 224 157 234 138 c 1
 262 91 300 71 354 64 c 0
 360 63 366 63 372 63 c 0
 409 63 435 78 470 100 c 0
 519 131 541 159 571 209 c 0
 613 280 610 333 637 412 c 1
 660 494 688 545 711 617 c 1
 708.392 641.776 684.937 664 655 664 c 2
 639 664 l 2
 627 664 617 665 609 676 c 0
 601 686 597 698 597 709 c 0
 597 719 600 729 609 737 c 1
 622 740 633 741 642 741 c 0
 676 741 687 727 723 727 c 1
 755 728 775 740 804 740 c 0
 840.817 740 872 727.908 872 690 c 0
 872 675 865 661 854 648 c 0
 838 630 813 647 797 630 c 1
 752 542 754 467 711 368 c 1
 677 281 666 226 609 152 c 0
 568 99 535 75 478 41 c 0
 432.431 14.3254 406.195 -1.35088 348.868 -2.86867 c 1
 339.65 -16.537 334 -38.293 334 -52.9111 c 0
 334 -85.4746 344.671 -112.777 376.013 -115.911 c 0
 385.013 -116.911 391.013 -117.911 399.013 -113.911 c 0
 408.013 -108.911 410.013 -101.911 414.013 -91.9111 c 0
 418.013 -80.9111 434.013 -86.9111 433.013 -96.9111 c 0
 432.013 -117.911 433.013 -115.911 427.013 -124.911 c 0
 415.616 -139.564 399.981 -139.911 378.013 -139.911 c 0
 368.013 -139.911 362.013 -141.911 353.013 -138.911 c 0
 319.555 -129.786 298.013 -98.2627 298.013 -58.9111 c 0
 298.013 -40.0883 305.797 -15.3802 312.749 -2.10484 c 1
 281.535 0.654543 254.632 9.95354 221 28 c 0
 169 56 134.227 78.0876 113 133 c 0
 104.095 156.037 101 176 101 196 c 0
 101 237 115.071 275.987 124 326 c 0
 141.136 421.976 167 472 196 564 c 0
 205 592 229 611 229 634 c 0
EndSplineSet
Validated: 1
EndChar

StartChar: uogonek
Encoding: 371 371 162
Width: 438
HStem: 450 20G<189.5 208.5 460.5 490.714>
VStem: 251.954 36<-97.2662 -0.606716> 367.954 19<-101.414 -78.8243>
LayerCount: 2
Fore
SplineSet
94 342 m 0
 80.8715 342 76 354.017 76 364 c 0
 76 372 79 382 82 391 c 0
 95 429 119 447 156 462 c 0
 170 468 183 470 196 470 c 0
 221 470 245 462 276 462 c 1
 277 457 278 452 278 447 c 0
 278 411 242 379 228 336 c 0
 206.558 270.142 182 255 156 162 c 1
 156 155 l 2
 156 138 163 132 174 132 c 0
 185 132 198 138 210 144 c 1
 285 193 333 262 366 342 c 1
 392 386 390 442 438 474 c 1
 447 478 456 483 465 483 c 1
 492 462 l 1
 493 456 493 450 493 445 c 0
 493 376 435 329 405 252 c 0
 390 211 364 191 364 149 c 2
 364 144 l 1
 365 126 366 105 384 102 c 0
 386 102 388 101 389 101 c 0
 424 101 423 174 459 174 c 0
 460 174 461 174 462 174 c 0
 474 173 473 159 480 150 c 1
 457 90 425 65 384 30 c 1
 354 19 337 -1 309 -1 c 0
 306 -1 303 0 300 0 c 2
 299.734 0.0401935 l 1
 292.356 -13.5173 287.954 -31.9988 287.954 -44.9111 c 0
 287.954 -77.4746 298.611 -104.777 329.954 -107.911 c 0
 338.954 -108.911 344.954 -109.911 352.954 -105.911 c 0
 361.954 -100.911 363.954 -93.9111 367.954 -83.9111 c 0
 371.954 -72.9111 387.954 -78.9111 386.954 -88.9111 c 0
 385.954 -109.911 386.954 -107.911 380.954 -116.911 c 0
 369.558 -131.564 353.923 -131.911 331.954 -131.911 c 0
 321.954 -131.911 315.954 -133.911 306.954 -130.911 c 0
 273.495 -121.786 251.954 -90.2627 251.954 -50.9111 c 0
 251.954 -29.169 261.236 -1.78422 270.234 11.9361 c 1
 262.559 18.4838 255 30.9345 255 45 c 0
 255 64 269 79 274 102 c 1
 274 106 l 2
 274 118 269 123 262 123 c 0
 255 123 247 120 238 114 c 1
 221 94 196 45 138 24 c 1
 121 20 110 9 96 9 c 0
 92 9 88 10 84 12 c 0
 53 26 44 54 42 88 c 0
 42 92 42 96 42 100 c 0
 42 160 78 194 105 252 c 0
 122 287 156 302 156 340 c 2
 156 342 l 1
 155 356 150 369 136 372 c 0
 135 372 134 372 133 372 c 0
 116 372 109 342 94 342 c 0
EndSplineSet
Validated: 1
EndChar

StartChar: uni1EA2
Encoding: 7842 7842 244
Width: 711
Flags: W
HStem: -7 99<402 479.017> -7 85<424.752 490.805> -6 114<34.6444 160.892> 285 94<429 559> 756 20G<742.5 764.5> 781.7 213.6<758.434 833.632>
VStem: 21 302<12.9807 95.009>
LayerCount: 2
Fore
SplineSet
564 250 m 1x5e
 516.125 264.362 487.07 285 429 285 c 0
 409 285 391 282 366 282 c 1
 340 219 290 170 276 102 c 1
 292 95 309 100 318 84 c 0
 321 78 323 72 323 67 c 0
 323 49 310 33 306 12 c 1
 284 2 260 -1 234 -1 c 0
 215 -1 194 1 172 1 c 0
 165 1 158 0 150 0 c 0
 146 0 142 1 138 1 c 0
 115 1 92 -6 72 -6 c 0
 57 -6 43.0615 -1.95117 32 12 c 0
 24.0439 22.0352 21 34 21 46 c 0
 21 74.6768 43.4062 108 76 108 c 0x3e
 92 108 111 102 131 102 c 2
 136 102 l 1
 274 240 325 330 438 466 c 0
 501.087 541.928 531 589 600 660 c 0
 645 705 611 665 722 768 c 0
 729 774 738 776 747 776 c 0
 782 776 825 739 825 706 c 0
 825 701 824 696 822 692 c 0
 774 574 748 517 708 402 c 0
 676 309 650.006 256.999 636 160 c 0
 633.979 146.003 630 135 630 124 c 0
 630 117 632 110 636 102 c 0
 645 86 669 95 678 78 c 0x5e
 682 71 683 64 683 57 c 0
 683 39 673 22 672 0 c 1
 659 3 644 5 628 5 c 0
 578 5 517 -7 462 -7 c 0
 441 -7 420 -5 402 0 c 1
 402 2 l 2
 402 23 393 42 393 59 c 0
 393 74.6377 406.455 92 424 92 c 0x9e
 440 92 459 79 480 78 c 1
 511 122 521 204 564 250 c 1x5e
636 445 m 0
 636 472.146 612.057 509 582 509 c 0
 577 509 571 508 566 506 c 1
 551 469 508 441 506 410 c 1
 513 387 535 379 559 379 c 0
 563 379 568 380 572 380 c 0
 605.72 383.613 636 403.539 636 445 c 0
744.585 927.3 m 0
 744.585 962.87 758.434 995.3 795.785 995.3 c 0
 815.785 995.3 833.385 982.5 848.585 965.7 c 0
 868.585 944.1 874.985 923.3 874.985 896.9 c 0
 874.985 891.3 874.186 886.5 874.186 880.9 c 0
 872.585 853.7 866.186 835.3 846.186 816.1 c 0
 818.985 790.5 826.186 784.1 757.385 781.7 c 0
 756.585 782.5 755.785 784.1 755.785 784.9 c 0
 755.785 796.9 807.785 811.3 807.785 866.5 c 2
 807.785 872.1 l 1
 781.385 888.1 769.385 877.7 754.985 895.3 c 0
 746.985 905.7 744.585 915.3 744.585 927.3 c 0
EndSplineSet
Validated: 1
EndChar

StartChar: uni1EA4
Encoding: 7844 7844 246
Width: 711
Flags: W
HStem: -7 99<402 479.017> -7 85<424.752 490.805> -6 114<34.6443 160.892> 285 94<429 559> 746 20G<742.5 760> 776 21G<789 798> 907 66.564<753.305 839.348>
VStem: 21 302<12.9807 95.0992> 699 42<778.092 824.054>
LayerCount: 2
Fore
SplineSet
741 782 m 0x1f80
 741 779 733 778 724 778 c 0
 712 778 699 780 699 783 c 1
 709 810 716 824 738 869 c 1
 749 874 757 878 765 878 c 0
 769 878 774 877 778 874 c 1
 795 850 794 840 803 816 c 0
 807 804 810 793 813 781 c 0
 813 777 803 776 793 776 c 0
 785 776 776 777 775 779 c 0
 769 788 767 816 752 825 c 1
 746 808 743 794 741 782 c 0x1f80
564 250 m 1
 516 264 487 285 429 285 c 0
 409 285 391 282 366 282 c 1
 340 219 290 170 276 102 c 1
 292 95 309 100 318 84 c 0
 321 78 323 72 323 67 c 0
 323 49 310 33 306 12 c 1
 284 2 260 -1 234 -1 c 0
 215 -1 194 1 172 1 c 0
 165 1 158 0 150 0 c 0
 146 0 142 1 138 1 c 0
 115 1 92 -6 72 -6 c 0
 57 -6 43.0612 -1.95149 32 12 c 0
 24.044 22.0349 21 34 21 46 c 0
 21 75 43 108 76 108 c 0x3f80
 92 108 111 102 131 102 c 2
 136 102 l 1
 274 240 325 330 438 466 c 0
 501.087 541.928 531 579 600 650 c 0
 645 695 611 655 722 758 c 0
 729 764 738 766 747 766 c 1
 773 754 818 719 825 696 c 1
 825 691 824 696 822 692 c 0
 774 574 748 517 708 402 c 0
 676 309 650 257 636 160 c 0
 633.98 146.003 630 135 630 124 c 0
 630 117 632 110 636 102 c 0
 645 86 669 95 678 78 c 0x5f80
 682 71 683 64 683 57 c 0
 683 39 673 22 672 0 c 1
 659 3 644 5 628 5 c 0
 578 5 517 -7 462 -7 c 0
 441 -7 420 -5 402 0 c 1
 402 2 l 2
 402 23 393 42 393 59 c 0
 393 75 406 92 424 92 c 0x9f80
 440 92 459 79 480 78 c 1x5f80
 511 122 521 204 564 250 c 1
636 445 m 0
 636 472 612 509 582 509 c 0
 577 509 571 508 566 506 c 1
 551 469 508 441 506 410 c 1
 513 387 535 379 559 379 c 0
 563 379 568 380 572 380 c 0
 606 384 636 404 636 445 c 0
715 868 m 0
 712 867 709 868 706 868 c 1
 704.892 872.708 704.398 876.957 704.398 880.846 c 0
 704.398 905.038 723.523 915.324 733 936 c 1
 749 948 752 962 773 968 c 0
 783.513 971.2 794.654 973.564 805.657 973.564 c 0
 818.725 973.564 831.599 970.229 843 961 c 0
 854 952 849 943 845 937 c 0
 835 917 811 919 789 907 c 0
 760 892 755 880 715 868 c 0
EndSplineSet
Validated: 1
EndChar

StartChar: uni1EA8
Encoding: 7848 7848 250
Width: 711
Flags: W
HStem: -7 99<402 479.017> -7 85<424.752 490.805> -6 114<34.6444 160.892> 285 94<429 559> 756 20G<742.5 764.5> 881.037 106.801<753.173 801.625> 926.237 61.601<747.452 776.942>
VStem: 21 302<12.9807 95.009> 710.163 34.2<787.969 824.469> 746.249 65.199<890.319 898.614 930.383 981.77>
LayerCount: 2
Fore
SplineSet
744.363 791.2 m 0x19c0
 744.063 788.8 737.464 787.9 730.563 787.9 c 0
 720.964 787.9 710.163 789.4 710.163 791.8 c 2
 710.163 792.1 l 1
 718.264 813.7 723.663 824.8 741.964 860.2 c 1
 750.363 864.4 756.663 867.7 763.264 867.7 c 0
 766.563 867.7 770.163 866.8 773.764 864.7 c 1
 786.964 845.5 786.663 837.1 793.264 818.5 c 0
 796.563 808.9 799.563 799.6 801.964 790.3 c 1
 801.964 790 l 2
 801.964 787.3 793.863 785.8 785.764 785.8 c 0
 779.163 785.8 772.264 786.7 771.063 788.8 c 0
 766.264 795.4 765.063 818.5 752.764 825.1 c 1
 747.964 811.6 745.863 800.8 744.363 791.2 c 0x19c0
564 250 m 1
 516.125 264.362 487.07 285 429 285 c 0
 409 285 391 282 366 282 c 1
 340 219 290 170 276 102 c 1
 292 95 309 100 318 84 c 0
 321 78 323 72 323 67 c 0
 323 49 310 33 306 12 c 1
 284 2 260 -1 234 -1 c 0
 215 -1 194 1 172 1 c 0
 165 1 158 0 150 0 c 0
 146 0 142 1 138 1 c 0
 115 1 92 -6 72 -6 c 0
 57 -6 43.0615 -1.95117 32 12 c 0
 24.0439 22.0352 21 34 21 46 c 0
 21 74.6768 43.4062 108 76 108 c 0x39c0
 92 108 111 102 131 102 c 2
 136 102 l 1
 274 240 325 330 438 466 c 0
 501.087 541.928 531 589 600 660 c 0
 645 705 611 665 722 768 c 0
 729 774 738 776 747 776 c 0
 782 776 825 739 825 706 c 0
 825 701 824 696 822 692 c 0
 774 574 748 517 708 402 c 0
 676 309 650.006 256.999 636 160 c 0
 633.979 146.003 630 135 630 124 c 0
 630 117 632 110 636 102 c 0
 645 86 669 95 678 78 c 0x59c0
 682 71 683 64 683 57 c 0
 683 39 673 22 672 0 c 1
 659 3 644 5 628 5 c 0
 578 5 517 -7 462 -7 c 0
 441 -7 420 -5 402 0 c 1
 402 2 l 2
 402 23 393 42 393 59 c 0
 393 74.6377 406.455 92 424 92 c 0x99c0
 440 92 459 79 480 78 c 1x59c0
 511 122 521 204 564 250 c 1
636 445 m 0
 636 472.146 612.057 509 582 509 c 0
 577 509 571 508 566 506 c 1
 551 469 508 441 506 410 c 1
 513 387 535 379 559 379 c 0
 563 379 568 380 572 380 c 0
 605.72 383.613 636 403.539 636 445 c 0
771.849 987.838 m 0x1dc0
 793.968 987.838 811.448 959.866 811.448 938.638 c 0
 811.448 935.838 811.049 933.438 811.049 930.638 c 0
 810.249 917.037 807.049 907.838 797.049 898.237 c 0
 783.448 885.438 787.049 882.237 752.648 881.037 c 0x1dc0
 752.249 881.438 751.849 882.237 751.849 882.638 c 0
 751.849 888.638 777.849 895.838 777.849 923.438 c 2
 777.849 926.237 l 1x1bc0
 762.567 935.499 746.249 929.586 746.249 953.838 c 0
 746.249 971.624 753.173 987.838 771.849 987.838 c 0x1dc0
EndSplineSet
Validated: 1
EndChar

StartChar: uni1EBE
Encoding: 7870 7870 272
Width: 624
Flags: W
HStem: -1 132<544.516 588.931> 4 60<317.2 433.112 434.42 501.593> 366 37<380.531 455.153> 670 66<188.675 227.297 229.357 316.965 421.906 592.297> 918 79.458<510.794 602.593>
VStem: 401 57<744.375 801.528> 503 51<740.092 798.385> 648 70<554.841 601.227>
LayerCount: 2
Fore
SplineSet
457 871 m 0x3f
 454 870 450 871 446 871 c 1
 444.825 876.221 444.298 880.965 444.298 885.332 c 0
 444.298 914.422 467.697 926.785 479 952 c 1
 499 967 502 984 527 991 c 0
 539.297 994.644 552.632 997.458 565.87 997.458 c 0
 581.697 997.458 597.364 993.409 611 982 c 0
 622.981 971.977 618 961 614 953 c 0
 601 929 573 932 546 918 c 0
 511.06 899.883 505 885 457 871 c 0x3f
458 749 m 0
 458 745 447 744 435 744 c 0
 419 744 401 746 401 750 c 1
 415 786 424 805 454 864 c 1
 468 871 479 876 490 876 c 0
 495 876 501 875 507 872 c 1
 529 840 529 826 540 794 c 0
 545 778 550 763 554 748 c 1
 554 747 l 2
 554 742 541 740 527 740 c 0
 516 740 505 742 503 745 c 0
 495 756 493 794 472 806 c 1
 464 783 461 765 458 749 c 0
18 -10 m 1
 23 6 19 19 30 32 c 0
 60 65 96 58 138 74 c 1
 161 120 156 208 198 302 c 1
 264 484 l 1
 291 554 308 608 318 670 c 1
 282 669 257 655 228 655 c 0
 213 655 198 658 180 668 c 0
 174 671 172 675 172 680 c 0
 172 694 193 714 198 734 c 1
 259 739 321 737 398 746 c 1
 433 742 453 737 488 736 c 0
 492 736 496 736 500 736 c 0
 532 736 553 739 588 740 c 0
 608 741 624 747 640 747 c 0
 649 747 657 746 666 740 c 0
 702 718 695 681 714 644 c 1
 716 628 718 615 718 600 c 0
 718 586 716 572 708 554 c 1
 693 554 676 545 664 545 c 0
 657 545 652 547 648 554 c 0
 624 596 622 630 582 656 c 0
 562 669 544 671 524 671 c 0
 512 671 500 670 486 670 c 2
 484 670 l 2
 470 670 455 674 442 674 c 0
 431 674 422 670 422 656 c 0
 422 618 399 601 392 564 c 1
 391 515 380 473 380 434 c 0
 380 430 380 426 380 422 c 1
 391 409 407 403 423 403 c 0
 438 403 454 408 468 416 c 0
 504 438 472 514 538 514 c 0
 550 514 562 512 575 512 c 2
 582 512 l 1
 583 505 584 498 584 491 c 0
 584 440 556 399 552 344 c 1
 536 305 542 273 522 236 c 1
 512 229 500 225 488 225 c 0
 477 225 465 229 456 238 c 1
 449 257 446 272 446 285 c 0
 446 312 456 330 456 357 c 2
 456 362 l 1
 438 364 416 366 394 366 c 0
 376 366 358 365 342 362 c 1
 279 299 295 203 282 122 c 1
 305 102 313 82 342 72 c 0
 357 67 370 64 383 64 c 0x7f
 399 64 415 68 434 72 c 1
 443 70 450 70 457 70 c 0
 488 70 506 87 544 126 c 1
 555 128 567 131 577 131 c 0
 587 131 595 129 602 120 c 0
 610 110 612 101 612 91 c 0
 612 64 589 35 584 0 c 1
 577 -1 569 -1 560 -1 c 0xbf
 520 -1 464 4 402 4 c 0x7f
 374 4 344.003 2.96735 314 0 c 0
 223 -9 74 -10 30 -10 c 2
 18 -10 l 1
EndSplineSet
Validated: 1
EndChar

StartChar: uni1EC0
Encoding: 7872 7872 274
Width: 624
Flags: W
HStem: -1 132<544.516 588.931> 4 60<317.2 433.112 434.42 501.593> 366 37<380.531 455.153> 670 66<188.675 227.297 229.357 316.965 422.007 592.297> 898 101.675<332.704 420.27>
VStem: 401 57<744.375 801.528> 503 51<740.092 798.385> 648 70<554.841 601.227>
LayerCount: 2
Fore
SplineSet
18 -10 m 1x7f
 23 6 19 19 30 32 c 0
 60 65 96 58 138 74 c 1
 161 120 156 208 198 302 c 1
 264 484 l 1
 291 554 308 608 318 670 c 1
 282 669 257 655 228 655 c 0
 213 655 198 658 180 668 c 0
 174 671 172 675 172 680 c 0
 172 694 193 714 198 734 c 1
 259 739 321 737 398 746 c 1
 433 742 453 737 488 736 c 0
 492 736 496 736 500 736 c 0
 532 736 553 739 588 740 c 0
 608 741 624 747 640 747 c 0
 649 747 657 746 666 740 c 0
 702 718 695 681 714 644 c 1
 716 628 718 615 718 600 c 0
 718 586 716 572 708 554 c 1
 693 554 676 545 664 545 c 0
 657 545 652 547 648 554 c 0
 624 596 622 630 582 656 c 0
 562 669 544 671 524 671 c 0
 512 671 500 670 486 670 c 2
 484 670 l 2
 470 670 455 674 442 674 c 0
 431 674 422 670 422 656 c 0
 422 618 399 601 392 564 c 1
 391 515 380 473 380 434 c 0
 380 430 380 426 380 422 c 1
 391 409 407 403 423 403 c 0
 438 403 454 408 468 416 c 0
 504 438 472 514 538 514 c 0
 550 514 562 512 575 512 c 2
 582 512 l 1
 583 505 584 498 584 491 c 0
 584 440 556 399 552 344 c 1
 536 305 542 273 522 236 c 1
 512 229 500 225 488 225 c 0
 477 225 465 229 456 238 c 1
 449 257 446 272 446 285 c 0
 446 312 456 330 456 357 c 2
 456 362 l 1
 438 364 416 366 394 366 c 0
 376 366 358 365 342 362 c 1
 279 299 295 203 282 122 c 1
 305 102 313 82 342 72 c 0
 357 67 370 64 383 64 c 0x7f
 399 64 415 68 434 72 c 1
 443 70 450 70 457 70 c 0
 488 70 506 87 544 126 c 1
 555 128 567 131 577 131 c 0
 587 131 595 129 602 120 c 0
 610 110 612 101 612 91 c 0
 612 64 589 35 584 0 c 1
 577 -1 569 -1 560 -1 c 0xbf
 520 -1 464 4 402 4 c 0
 374 4 344.003 2.96735 314 0 c 0
 223 -9 74 -10 30 -10 c 2
 18 -10 l 1x7f
316.529 950.867 m 0
 316.529 990.041 348.219 999.675 375.649 999.675 c 0
 399.688 999.675 413.485 978.803 438 967 c 1
 467 935 498 930 517 876 c 1
 514 874 512 871 509 872 c 1
 507 872 l 1
 529 840 529 826 540 794 c 0
 545 778 550 763 554 748 c 1
 554 747 l 2
 554 742 541 740 527 740 c 0
 516 740 505 742 503 745 c 0
 495 756 493 794 472 806 c 1
 464 783 461 765 458 749 c 0
 458 745 447 744 435 744 c 0
 419 744 401 746 401 750 c 1
 415 786 424 805 454 864 c 1
 464 869 473 873 481 875 c 1
 454 881 439 891 410 898 c 1
 380 907 360 893 334 919 c 0
 326.858 925.249 316.529 934.686 316.529 950.867 c 0
EndSplineSet
Validated: 1
EndChar

StartChar: uni1EC2
Encoding: 7874 7874 276
Width: 624
Flags: W
HStem: -1 132<544.516 588.931> 4 60<317.2 433.112 434.42 501.593> 366 37<380.531 455.153> 670 66<188.675 227.297 229.357 316.965 421.906 592.297> 911.601 73.92<449.651 483.872>
VStem: 419.2 45.601<747.292 795.959> 447.04 78.24<918.108 974.449> 648 70<554.841 601.227>
LayerCount: 2
Fore
SplineSet
464.801 751.6 m 0x3d
 464.4 748.4 455.601 747.2 446.4 747.2 c 0
 433.601 747.2 419.2 749.2 419.2 752.4 c 2
 419.2 752.8 l 1
 430 781.6 437.2 796.4 461.601 843.6 c 1
 472.801 849.2 481.2 853.6 490 853.6 c 0
 494.4 853.6 499.2 852.4 504 849.6 c 1
 521.601 824 521.2 812.8 530 788 c 0
 534.4 775.2 538.4 762.8 541.601 750.4 c 1
 541.601 750 l 2
 541.601 746.4 530.801 744.4 520 744.4 c 0
 511.2 744.4 502 745.6 500.4 748.4 c 0
 494 757.2 492.4 788 476 796.8 c 1
 469.601 778.8 466.801 764.4 464.801 751.6 c 0x3d
18 -10 m 1
 23 6 19 19 30 32 c 0
 60 65 96 58 138 74 c 1
 161 120 156 208 198 302 c 1
 264 484 l 1
 291 554 308 608 318 670 c 1
 282 669 257 655 228 655 c 0
 213 655 198 658 180 668 c 0
 174 671 172 675 172 680 c 0
 172 694 193 714 198 734 c 1
 259 739 321 737 398 746 c 1
 433 742 453 737 488 736 c 0
 492 736 496 736 500 736 c 0
 532 736 553 739 588 740 c 0
 608 741 624 747 640 747 c 0
 649 747 657 746 666 740 c 0
 702 718 695 681 714 644 c 1
 716 628 718 615 718 600 c 0
 718 586 716 572 708 554 c 1
 693 554 676 545 664 545 c 0
 657 545 652 547 648 554 c 0
 624 596 622 630 582 656 c 0
 562 669 544 671 524 671 c 0
 512 671 500 670 486 670 c 2
 484 670 l 2
 470 670 455 674 442 674 c 0
 431 674 422 670 422 656 c 0
 422 618 399 601 392 564 c 1
 391 515 380 473 380 434 c 0
 380 430 380 426 380 422 c 1
 391 409 407 403 423 403 c 0
 438 403 454 408 468 416 c 0
 504.071 437.861 471.681 514 538 514 c 0
 550 514 562 512 575 512 c 2
 582 512 l 1
 583 505 584 498 584 491 c 0
 584 440 556 399 552 344 c 1
 536 305 542 273 522 236 c 1
 512 229 500 225 488 225 c 0
 477 225 465 229 456 238 c 1
 449 257 446 272 446 285 c 0
 446 312 456 330 456 357 c 2
 456 362 l 1
 438 364 416 366 394 366 c 0
 376 366 358 365 342 362 c 1
 279 299 295 203 282 122 c 1
 305 102 313 82 342 72 c 0
 357 67 370 64 383 64 c 0x79
 399 64 415 68 434 72 c 1
 443 70 450 70 457 70 c 0
 488 70 506 87 544 126 c 1
 555 128 567 131 577 131 c 0
 587 131 595 129 602 120 c 0
 610 110 612 101 612 91 c 0
 612 64 589 35 584 0 c 1
 577 -1 569 -1 560 -1 c 0xb9
 520 -1 464 4 402 4 c 0x79
 374 4 344.003 2.96733 314 0 c 0
 223 -9 74 -10 30 -10 c 2
 18 -10 l 1
477.76 985.521 m 0
 504.304 985.521 525.28 951.954 525.28 926.48 c 0
 525.28 923.12 524.801 920.24 524.801 916.881 c 0
 523.84 900.561 520 889.521 508 878 c 0
 491.681 862.641 496 858.8 454.72 857.36 c 0
 454.24 857.841 453.76 858.8 453.76 859.28 c 0
 453.76 866.48 484.96 875.12 484.96 908.24 c 2
 484.96 911.601 l 1
 466.622 922.714 447.04 915.621 447.04 944.721 c 0x3b
 447.04 966.063 455.35 985.521 477.76 985.521 c 0
EndSplineSet
Validated: 1
EndChar

StartChar: uni1EC3
Encoding: 7875 7875 277
Width: 310
Flags: W
HStem: 13 73<138.304 190.715> 409 73<230.844 314> 713.7 92.4<265.754 304.767>
VStem: 39 88<94.6246 202.048> 218.063 57<504.953 564.347> 302 65<339.236 421.201>
LayerCount: 2
Fore
SplineSet
275.063 510 m 0
 274.563 506 263.563 504.5 252.063 504.5 c 0
 236.063 504.5 218.063 507 218.063 511 c 2
 218.063 511.5 l 1
 231.563 547.5 240.563 566 271.063 625 c 1
 285.063 632 295.563 637.5 306.563 637.5 c 0
 312.063 637.5 318.063 636 324.063 632.5 c 1
 346.063 600.5 345.563 586.5 356.563 555.5 c 0
 362.063 539.5 367.063 524 371.063 508.5 c 1
 371.063 508 l 2
 371.063 503.5 357.563 501 344.063 501 c 0
 333.063 501 321.563 502.5 319.563 506 c 0
 311.563 517 309.563 555.5 289.063 566.5 c 1
 281.063 544 277.563 526 275.063 510 c 0
302 371 m 0
 302 389.389 287.848 409 268 409 c 0
 261 409 252 407 244 404 c 0
 219 395 208 379 196 356 c 1
 192 335 191 317 184 296 c 1
 189 287 198 284 208 284 c 0
 210 284 212 284 214 284 c 0
 246 286 269 299 286 326 c 0
 295 341 302 356 302 371 c 0
127 151 m 0
 127 124.694 141.71 87.7529 168 86 c 1
 169 86 l 2
 200 86 208 116 236 132 c 0
 249 139 257 150 271 150 c 0
 272 150 273 150 274 150 c 0
 285 148 287 138 296 130 c 0
 296 129 296 128 296 127 c 0
 296 98 236 58 186 32 c 1
 159 27 140 13 117 13 c 0
 111 13 105 14 98 16 c 0
 60.1719 28.6094 39 63.4023 39 112 c 0
 39 144 52.085 170.975 63 208 c 0
 82.1491 272.956 95 311 134 366 c 0
 166 410 185.044 440.893 236 462 c 0
 260.021 471.95 284 482 306 482 c 0
 322 482 336 477 349 464 c 0
 363 451 367 436 367 420 c 0
 367 398 357.903 374.036 349 350 c 0
 333.835 309.061 310 293 276 266 c 0
 228 227 169 241 138 188 c 0
 131 175 127 163 127 151 c 0
257.448 755.1 m 0
 257.448 781.778 267.835 806.1 295.849 806.1 c 0
 310.849 806.1 324.049 796.5 335.448 783.9 c 0
 350.448 767.7 355.249 752.1 355.249 732.3 c 0
 355.249 728.1 354.648 724.5 354.648 720.3 c 0
 353.448 699.9 348.648 686.1 333.648 671.7 c 0
 313.249 652.5 318.648 647.7 267.049 645.9 c 0
 266.448 646.5 265.849 647.7 265.849 648.3 c 0
 265.849 657.3 304.849 668.1 304.849 709.5 c 2
 304.849 713.7 l 1
 285.049 725.7 276.049 717.9 265.249 731.1 c 0
 259.249 738.9 257.448 746.1 257.448 755.1 c 0
EndSplineSet
Validated: 1
EndChar

StartChar: uni1EC8
Encoding: 7880 7880 282
Width: 491
Flags: W
HStem: -16 100<65.0899 201.068> 658 95<554.281 624.691> 658 86<556.894 626> 673 86<295.539 382.423> 752.35 240.3<452.479 530.953>
VStem: 433.435 146.7<871.038 950.266>
LayerCount: 2
Fore
SplineSet
95 -16 m 0xc4
 72.9022 -16 39 -2.56901 39 24 c 0
 39 28 40 32 42 36 c 0
 61 78 106 70 150 84 c 0
 170 90 182 90 202 94 c 1
 225 143 222 182 244 232 c 1
 256 262 264 279 276 310 c 0
 313 402 342 451 368 546 c 0
 376 573 379 590 380 618 c 0
 381 628 383 638 383 646 c 0
 383 661.252 371.491 673 356 673 c 0
 343 673 329 667 316 667 c 0
 295.266 667 284 688.742 284 707 c 0
 284 739.634 318.118 759 345 759 c 0x94
 373 759 405 746 439 746 c 2
 446 746 l 1
 453 744 460 744 467 744 c 0xa4
 492 744 516 753 556 753 c 0xc4
 575 753 598 751 626 744 c 1xa4
 626 739 l 2
 626 723 631 709 631 696 c 0
 631 671.973 610.176 658 589 658 c 0
 583 658 577 658 571 658 c 0
 565 658 560 658 554 657 c 1
 505 589 492 534 472 452 c 1
 404 266 l 1
 389 203 369 166 350 90 c 1
 379 78 407 86 425 60 c 0
 430 52 432 45 432 37 c 0
 432 22 425 7 425 -12 c 1
 402 -11 322 1 240 1 c 0
 223 1 206 0 190 -1 c 0
 154 -2 124 -16 95 -16 c 0xc4
504.535 854.05 m 1
 474.835 872.05 461.335 860.35 445.135 880.15 c 0
 436.135 891.85 433.435 902.65 433.435 916.15 c 0
 433.435 921.55 433.435 927.85 435.235 935.05 c 0
 441.801 965.691 452.479 992.65 491.035 992.65 c 0
 513.535 992.65 533.335 978.25 550.435 959.35 c 0
 572.935 935.05 580.135 911.65 580.135 881.95 c 0
 580.135 875.65 579.235 870.25 579.235 863.95 c 0
 577.435 833.35 570.235 812.65 547.735 791.05 c 0
 517.135 762.25 525.235 755.05 447.835 752.35 c 0x8c
 446.935 753.25 446.035 755.05 446.035 755.95 c 0
 446.035 769.45 504.535 785.65 504.535 847.75 c 2
 504.535 854.05 l 1
EndSplineSet
Validated: 1
EndChar

StartChar: uni1ECE
Encoding: 7886 7886 288
Width: 736
Flags: W
HStem: -10 55<304.832 443.346> 646 96<388.68 423.626> 695 64<468.042 587.783> 755.35 21G<417.385 456.535> 857.05 138.6<418.905 474.412>
VStem: 83 117<162.909 425.143> 403.436 146.699<874.038 953.266> 671 105<336.362 578.374>
LayerCount: 2
Fore
SplineSet
342 723 m 0xaf
 349 726 353 726 360 728 c 1
 370 684 374 671 374 663 c 0
 374 656 371 653 366 638 c 1
 326 594 296 574 264 524 c 0
 238 483 235 454 216 410 c 1
 207 359 200 317 200 275 c 0
 200 234 207 194 228 148 c 1
 269 111 281 72 332 52 c 0
 344 47 354 45 365 45 c 0
 377 45 388 48 402 52 c 0
 478 75 518.921 106.067 570 166 c 0
 616.927 221.062 631 264 648 334 c 0
 661 388 671 431 671 476 c 0
 671 504 667 534 658 568 c 0
 646 616 632 647 592 676 c 0
 574 689 558 695 538 695 c 0xaf
 532 695 526 695 520 694 c 0
 470 688 453 655 436 646 c 1
 431 645 427 644 424 644 c 0
 416 644 409 646 400 646 c 1
 389 657 386 671 386 685 c 0
 386 699 389 714 389 729 c 0
 389 733 389 738 388 742 c 1xcf
 422 747 442 756 475 756 c 0
 478 756 481 756 484 756 c 0
 495 758 505 759 513 759 c 0
 556 759 580 741 616 720 c 1
 665 684 709 671 737 616 c 0
 765 560 776 512 776 461 c 0
 776 422 769.828 381.032 761 334 c 0
 744.682 247.06 718.79 199.166 664 130 c 0
 626.858 83.1126 595.987 63.0224 544 34 c 0
 495.615 6.98869 429.17 -10 362 -10 c 0
 339 -10 316 -7 288 0 c 0
 236 13 215 40 168 66 c 1
 104 125 98 171 86 276 c 1
 85 303 83 326 83 348 c 0
 83 384 87 418 98 462 c 0
 114 526 126 566 170 616 c 0
 222 675 270 691 342 723 c 0xaf
474.535 857.05 m 1
 444.835 875.05 431.335 863.35 415.135 883.15 c 0
 406.135 894.85 403.436 905.65 403.436 919.15 c 0
 403.436 924.55 403.436 930.85 405.235 938.05 c 0
 411.801 968.691 422.479 995.65 461.035 995.65 c 0
 483.535 995.65 503.335 981.25 520.436 962.35 c 0
 542.936 938.05 550.135 914.65 550.135 884.95 c 0
 550.135 878.65 549.235 873.25 549.235 866.95 c 0
 547.436 836.35 540.235 815.65 517.735 794.05 c 0
 487.135 765.25 495.235 758.05 417.835 755.35 c 0x9f
 416.936 756.25 416.035 758.05 416.035 758.95 c 0
 416.035 772.45 474.535 788.65 474.535 850.75 c 2
 474.535 857.05 l 1
EndSplineSet
Validated: 1
EndChar

StartChar: uni1ED0
Encoding: 7888 7888 290
Width: 736
Flags: W
HStem: -10 55<304.832 443.359> 646 96<388.68 423.626> 695 64<468.042 587.783> 761 21G<458 470.5 543 554> 924 63.73<525 610.894>
VStem: 83 117<162.909 425.143> 435 51<761.211 816.065> 671 105<336.362 578.374>
LayerCount: 2
Fore
SplineSet
490 887 m 0x9f
 487 886 484 887 481 887 c 1
 479.889 891.443 479.395 895.463 479.395 899.152 c 0
 479.395 922.028 498.389 932.194 507 952 c 1
 523 964 526 977 546 983 c 0
 555.752 985.66 566.094 987.73 576.328 987.73 c 0
 589.181 987.73 601.865 984.464 613 975 c 0
 623 967 619 959 615 952 c 0
 605 933 582 935 561 924 c 0
 533 910 528 898 490 887 c 0x9f
342 723 m 0
 349 726 353 726 360 728 c 1
 370 684 374 671 374 663 c 0
 374 656 371 653 366 638 c 1
 326 594 296 574 264 524 c 0
 238 483 235 454 216 410 c 1
 207 359 200 317 200 275 c 0
 200 234 207 194 228 148 c 1
 269 111 281 72 332 52 c 0
 344 47 354 45 365 45 c 0
 377 45 388 48 402 52 c 0
 478 75 518.921 106.067 570 166 c 0
 616.927 221.062 631 264 648 334 c 0
 661 388 671 431 671 476 c 0
 671 504 667 534 658 568 c 0
 646 616 632 647 592 676 c 0
 574 689 558 695 538 695 c 0xbf
 532 695 526 695 520 694 c 0
 470 688 453 655 436 646 c 1
 431 645 427 644 424 644 c 0
 416 644 409 646 400 646 c 1
 389 657 386 671 386 685 c 0
 386 699 389 714 389 729 c 0
 389 733 389 738 388 742 c 1xdf
 422 747 442 756 475 756 c 0
 478 756 481 756 484 756 c 0
 495 758 505 759 513 759 c 0xbf
 556 759 580 741 616 720 c 1
 665 684 709 671 737 616 c 0
 765 560 776 512 776 461 c 0
 776 422 769.828 381.032 761 334 c 0
 744.682 247.06 718.79 199.166 664 130 c 0
 626.858 83.1126 595.947 63.0951 544 34 c 0
 495.951 7.08792 429 -10 362 -10 c 0
 339 -10 316 -7 288 0 c 0
 236 13 215 40 168 66 c 1
 104 125 98 171 86 276 c 1
 85 303 83 326 83 348 c 0
 83 384 87 418 98 462 c 0
 114 526 126 566 170 616 c 0
 222 675 270 691 342 723 c 0
486 766 m 0
 486 762 476 761 465 761 c 0
 451 761 435 763 435 767 c 1
 447 800 455 816 482 869 c 1
 495 876 504 881 514 881 c 0
 519 881 525 879 530 876 c 1
 550 847 549 835 559 807 c 0
 564 792 569 779 572 765 c 1
 572 764 l 2
 572 760 560 758 548 758 c 0
 538 758 528 759 526 762 c 0
 519 772 517 807 499 817 c 1
 491 797 488 780 486 766 c 0
EndSplineSet
Validated: 1
EndChar

StartChar: uni1ED2
Encoding: 7890 7890 292
Width: 736
Flags: W
HStem: -10 55<304.832 443.347> 646 96<388.68 423.626> 695 64<468.042 587.783> 767.2 21G<468 479 543.6 553.401> 902 81.169<400.027 481.717>
VStem: 83 117<162.909 425.143> 447.2 45.601<767.292 815.959> 671 105<336.362 578.374>
LayerCount: 2
Fore
SplineSet
391.247 944.596 m 0x9f
 391.247 975.369 417.529 983.169 438.278 983.169 c 0
 457.537 983.169 469.29 966.786 489.2 957.2 c 1
 512.399 931.6 537.2 927.6 552.399 884.399 c 1
 550 882.8 548.399 880.399 546 880.399 c 0
 508.399 883.6 497.122 893.702 466 902 c 0
 442 908.399 426 898 406 918.8 c 0
 400.242 923.838 391.247 931.466 391.247 944.596 c 0x9f
342 723 m 0
 349 726 353 726 360 728 c 1
 370 684 374 671 374 663 c 0
 374 656 371 653 366 638 c 1
 326 594 296 574 264 524 c 0
 238 483 235 454 216 410 c 1
 207 359 200 317 200 275 c 0
 200 234 207 194 228 148 c 1
 269 111 281 72 332 52 c 0
 344 47 354 45 365 45 c 0
 377 45 388 48 402 52 c 0
 478 75 518.921 106.067 570 166 c 0
 616.927 221.062 631 264 648 334 c 0
 661 388 671 431 671 476 c 0
 671 504 667 534 658 568 c 0
 646 616 632 647 592 676 c 0
 574 689 558 695 538 695 c 0xbf
 532 695 526 695 520 694 c 0
 470 688 453 655 436 646 c 1
 431 645 427 644 424 644 c 0
 416 644 409 646 400 646 c 1
 389 657 386 671 386 685 c 0
 386 699 389 714 389 729 c 0
 389 733 389 738 388 742 c 1xdf
 422 747 442 756 475 756 c 0
 478 756 481 756 484 756 c 0
 495 758 505 759 513 759 c 0xbf
 556 759 580 741 616 720 c 1
 665 684 709 671 737 616 c 0
 765 560 776 512 776 461 c 0
 776 422 769.828 381.032 761 334 c 0
 744.682 247.06 718.79 199.166 664 130 c 0
 626.858 83.1126 595.987 63.0224 544 34 c 0
 495.609 6.98507 429.181 -10 362 -10 c 0
 339 -10 316 -7 288 0 c 0
 236 13 215 40 168 66 c 1
 104 125 98 171 86 276 c 1
 85 303 83 326 83 348 c 0
 83 384 87 418 98 462 c 0
 114 526 126 566 170 616 c 0
 222 675 270 691 342 723 c 0
492.801 771.6 m 0
 492.4 768.4 483.601 767.2 474.4 767.2 c 0
 461.601 767.2 447.2 769.2 447.2 772.4 c 2
 447.2 772.8 l 1
 458 801.6 465.2 816.4 489.601 863.6 c 1
 500.801 869.2 509.2 873.6 518 873.6 c 0
 522.4 873.6 527.2 872.4 532 869.6 c 1
 549.601 844 549.2 832.8 558 808 c 0
 562.4 795.2 566.4 782.8 569.601 770.4 c 1
 569.601 770 l 2
 569.601 766.4 558.801 764.4 548 764.4 c 0
 539.2 764.4 530 765.6 528.4 768.4 c 0
 522 777.2 520.4 808 504 816.8 c 1
 497.601 798.8 494.801 784.4 492.801 771.6 c 0
EndSplineSet
Validated: 1
EndChar

StartChar: uni1ED4
Encoding: 7892 7892 294
Width: 736
Flags: W
HStem: -10 55<304.832 443.347> 646 96<388.68 423.626> 695 64<468.042 587.783> 763.4 21G<468 479 543.6 553.401> 907.601 92.399<491.905 530.918>
VStem: 83 117<162.909 425.143> 447.2 45.601<766.292 814.959> 671 105<336.362 578.374>
LayerCount: 2
Fore
SplineSet
342 723 m 0xbf
 349 726 353 726 360 728 c 1
 370 684 374 671 374 663 c 0
 374 656 371 653 366 638 c 1
 326 594 296 574 264 524 c 0
 238 483 235 454 216 410 c 1
 207 359 200 317 200 275 c 0
 200 234 207 194 228 148 c 1
 269 111 281 72 332 52 c 0
 344 47 354 45 365 45 c 0
 377 45 388 48 402 52 c 0
 478 75 518.921 106.067 570 166 c 0
 616.927 221.062 631 264 648 334 c 0
 661 388 671 431 671 476 c 0
 671 504 667 534 658 568 c 0
 646 616 632 647 592 676 c 0
 574 689 558 695 538 695 c 0xbf
 532 695 526 695 520 694 c 0
 470 688 453 655 436 646 c 1
 431 645 427 644 424 644 c 0
 416 644 409 646 400 646 c 1
 389 657 386 671 386 685 c 0
 386 699 389 714 389 729 c 0
 389 733 389 738 388 742 c 1xdf
 422 747 442 756 475 756 c 0
 478 756 481 756 484 756 c 0
 495 758 505 759 513 759 c 0
 556 759 580 741 616 720 c 1
 665 684 709 671 737 616 c 0
 765 560 776 512 776 461 c 0
 776 422 769.828 381.032 761 334 c 0
 744.682 247.06 718.79 199.166 664 130 c 0
 626.858 83.1126 595.987 63.0224 544 34 c 0
 495.609 6.98509 429.181 -10 362 -10 c 0
 339 -10 316 -7 288 0 c 0
 236 13 215 40 168 66 c 1
 104 125 98 171 86 276 c 1
 85 303 83 326 83 348 c 0
 83 384 87 418 98 462 c 0
 114 526 126 566 170 616 c 0
 222 675 270 691 342 723 c 0xbf
483.6 949 m 0
 483.6 975.677 493.986 1000 522 1000 c 0
 537 1000 550.2 990.4 561.6 977.801 c 0
 576.6 961.601 581.4 946 581.4 926.2 c 0
 581.4 922 580.8 918.4 580.8 914.2 c 0
 579.6 893.801 574.8 880 559.8 865.601 c 0
 552.21 858.315 548.117 853.211 543.347 849.458 c 1
 550.128 835.453 551.725 824.684 558 807 c 0
 562.4 794.2 566.4 781.8 569.601 769.4 c 1
 569.601 769 l 2
 569.601 765.4 558.801 763.4 548 763.4 c 0
 539.2 763.4 530 764.6 528.4 767.4 c 0
 522 776.2 520.4 807 504 815.8 c 1
 497.601 797.8 494.801 783.4 492.801 770.6 c 0
 492.4 767.4 483.601 766.2 474.4 766.2 c 0
 461.601 766.2 447.2 768.2 447.2 771.4 c 2
 447.2 771.8 l 1
 458 800.6 465.2 815.4 489.601 862.6 c 1
 500.801 868.2 509.2 872.6 518 872.6 c 0
 519.211 872.6 520.452 872.509 521.716 872.319 c 1
 527.075 880.213 531 890.267 531 903.4 c 2
 531 907.601 l 1
 511.2 919.601 502.2 911.801 491.4 925 c 0
 485.4 932.801 483.6 940 483.6 949 c 0
EndSplineSet
Validated: 1
EndChar

StartChar: uni1EE1
Encoding: 7905 7905 307
Width: 455
Flags: W
HStem: 7 66<121.509 199.79> 367 79<209.908 300.195> 458.236 50<270.316 346.624> 469.236 21G<176.984 187.484> 496.236 46<201.027 276.652>
VStem: 47 71<74.9696 233.938> 303 59<232.83 364.178> 346.089 163<401.649 471.698>
LayerCount: 2
Fore
SplineSet
118 112 m 0xc6
 118 92.9841 129.953 73 151 73 c 0
 163 73 175 79 186 86 c 0
 222 106 229 134 249 170 c 0
 276 219 292 249 299 304 c 0
 301 314 303 324 303 333 c 0
 303 352.942 285.144 367 266 367 c 0
 258 367 249 365 240 362 c 0
 198 346 184.108 316.939 162 278 c 0
 134.136 228.923 123 196 120 140 c 0
 120 130 118 120 118 112 c 0xc6
72 46 m 0
 51 67 47 90 47 117 c 0
 47 127 48 137 48 148 c 0
 50 203 63 235 88 284 c 0
 122 349 137.024 400.945 204 430 c 0
 227.008 439.981 250 446 271 446 c 0
 296 446 320 437 342 418 c 0
 358 404 362 387 362 368 c 0
 362 357 361 345 360 332 c 0
 356 241 336 188 290 110 c 0
 264 66 249 28 200 14 c 0
 185 10 171 7 158 7 c 0
 126 7 97 20 72 46 c 0
238.484 542.236 m 1xdd
 257.484 540.236 266.484 529.236 284.484 521.236 c 0
 297.484 516.236 304.484 508.236 316.484 508.236 c 2
 320.484 508.236 l 1
 340.484 511.236 342.484 538.236 362.484 538.236 c 0
 370.809 538.236 379.134 535.772 385.237 530.844 c 1
 392.111 533.669 400.29 535.236 410.089 535.236 c 0
 435.089 535.236 457.089 519.236 476.089 498.236 c 0
 501.089 471.236 509.089 445.236 509.089 412.236 c 0
 509.089 405.236 508.089 399.236 508.089 392.236 c 0
 506.089 358.236 498.089 335.236 473.089 311.236 c 0
 439.089 279.236 448.089 271.236 362.089 268.236 c 1
 361.089 269.236 360.089 271.236 360.089 272.236 c 0
 360.089 287.236 425.089 305.236 425.089 374.236 c 2
 425.089 381.236 l 1
 392.089 401.236 377.089 388.236 359.089 410.236 c 0
 349.089 423.236 346.089 435.236 346.089 450.236 c 0
 346.089 456.631 346.69 464.786 348.437 472.841 c 1
 338.806 465.084 328.633 459.318 313.484 458.236 c 1
 312.484 458.236 l 2xe5
 279.484 458.236 267.484 496.236 234.484 496.236 c 2
 232.484 496.236 l 2
 212.484 496.236 207.484 469.236 187.484 469.236 c 0
 186.484 469.236 185.484 469.236 184.484 469.236 c 0
 169.484 471.236 158.484 483.236 158.484 498.236 c 0
 159.484 513.236 172.484 518.236 185.484 526.236 c 0
 202.484 536.236 214.484 542.236 233.484 542.236 c 2
 238.484 542.236 l 1xdd
EndSplineSet
Validated: 1
EndChar

StartChar: A
Encoding: 65 65 332
Width: 711
VWidth: 1080
Flags: W
HStem: -7 99<402 479.017> -7 85<424.752 490.805> -6 114<34.6443 160.892> 285 94<429 559> 756 20G<742.5 764.5>
VStem: 21 302<12.9807 95.0992>
LayerCount: 2
Back
Fore
SplineSet
564 250 m 1x5c
 516 264 487 285 429 285 c 0
 409 285 391 282 366 282 c 1
 340 219 290 170 276 102 c 1
 292 95 309 100 318 84 c 0
 321 78 323 72 323 67 c 0
 323 49 310 33 306 12 c 1
 284 2 260 -1 234 -1 c 0
 215 -1 194 1 172 1 c 0
 165 1 158 0 150 0 c 0
 146 0 142 1 138 1 c 0
 115 1 92 -6 72 -6 c 0
 57 -6 43.0612 -1.95149 32 12 c 0
 24.044 22.0349 21 34 21 46 c 0
 21 75 43 108 76 108 c 0x3c
 92 108 111 102 131 102 c 2
 136 102 l 1
 274 240 325 330 438 466 c 0
 501.087 541.928 531 589 600 660 c 0
 645 705 611 665 722 768 c 0
 729 774 738 776 747 776 c 0
 782 776 825 739 825 706 c 0
 825 701 824 696 822 692 c 0
 774 574 748 517 708 402 c 0
 676 309 650 257 636 160 c 0
 633.98 146.003 630 135 630 124 c 0
 630 117 632 110 636 102 c 0
 645 86 669 95 678 78 c 0x5c
 682 71 683 64 683 57 c 0
 683 39 673 22 672 0 c 1
 659 3 644 5 628 5 c 0
 578 5 517 -7 462 -7 c 0
 441 -7 420 -5 402 0 c 1
 402 2 l 2
 402 23 393 42 393 59 c 0
 393 75 406 92 424 92 c 0x9c
 440 92 459 79 480 78 c 1
 511 122 521 204 564 250 c 1x5c
636 445 m 0
 636 472 612 509 582 509 c 0
 577 509 571 508 566 506 c 1
 551 469 508 441 506 410 c 1
 513 387 535 379 559 379 c 0
 563 379 568 380 572 380 c 0
 606 384 636 404 636 445 c 0
EndSplineSet
Validated: 1
EndChar

StartChar: B
Encoding: 66 66 333
Width: 577
VWidth: 1080
Flags: W
HStem: -2 83<21.0898 95.4551 103 319.734> 30 58<260.711 359.437> 693 71<190.752 279.532> 714 43<391.823 496.415>
VStem: 473 127<157.817 303.957> 547 111<499.793 663.283>
LayerCount: 2
Back
Fore
SplineSet
289 765 m 0xa8
 322.639 765 361.084 757 401 757 c 0
 436 757 469 761 499 761 c 0
 534 761 568 755 602 730 c 0
 645 698 655 658 658 604 c 1
 658 588 l 2x14
 658 535 645 498 610 454 c 0
 576 410 488 434 488 379 c 2
 488 378 l 1
 489 349 534 364 552 342 c 0
 589 298 599 261 600 204 c 1
 600 184 l 2
 600 136 595 96 558 60 c 0
 527 29 492 42 450 30 c 1
 442 30 l 2x58
 345 30 276 -2 103 -2 c 0
 77 -2 49 -2 18 0 c 1
 17 6 16 12 16 18 c 0
 16 40 22 66 28 84 c 1
 51 89 69.9789 81.0254 88 96 c 0
 122.959 125.049 115.946 161.018 130 204 c 0
 151.916 271.027 159 310 178 378 c 1
 202 518 265 639 280 690 c 1
 270 692 261 693 253 693 c 0
 225 693 206 683 190 683 c 0
 174.618 683 153 697.458 153 717 c 0
 153 725 156 733 162 740 c 0
 187 771 222 760 262 764 c 0
 272 765 281 765 289 765 c 0xa8
300 358 m 0
 257 320 268 274 256 218 c 0
 248 179 235 145 235 113 c 0
 235 102 236 92 240 82 c 1
 243 81 246 81 249 81 c 0x88
 267 81 294 88 321 88 c 0
 335 88 348 86 360 80 c 1
 390 102 417 105 438 136 c 0
 459 168 473 196 473 229 c 0x48
 473 240 472 252 468 264 c 0
 453 319 420.95 351.85 366 370 c 0
 356.992 372.975 349 374 341 374 c 0
 327 374 313 369 300 358 c 0
332 416 m 1
 379 422 406 421 446 434 c 1
 478 448 498 459 518 488 c 0
 538 517 547 542 547 574 c 0
 547 579 546 585 546 590 c 0
 542 633 534 664 500 690 c 0
 481 705 460 714 439 714 c 0x14
 427 714 416 711 404 704 c 0
 371 683 387 645 374 608 c 0
 359 568 340 548 332 506 c 0
 328 485 318 464 318 446 c 0
 318 435 322 425 332 416 c 1
EndSplineSet
Validated: 1
EndChar

StartChar: C
Encoding: 67 67 334
Width: 641
VWidth: 1080
Flags: W
HStem: 25 51<408.082 461.325> 504 216<637.811 717.811> 696 71<395.646 549.675>
VStem: 60 153<171.789 375.611>
LayerCount: 2
Back
Fore
SplineSet
624 255 m 0xb0
 636.8 255 638.08 235.16 638.08 217.496 c 0
 638.08 213.08 638 208.8 638 205 c 0
 638 179 636 148 632 118 c 0
 626 70 638 36 608 0 c 0
 600 -11 590 -22 577 -22 c 0
 568 -22 562 -18 562 -10 c 0
 562 -5 564 1 564 6 c 0
 564 20 545 25 535 25 c 0
 524 25 512 22 500 22 c 0
 418 18 374 -20 295 -20 c 2
 284 -20 l 1
 230 -18 198 -12 154 16 c 0
 118 38 110 64 80 94 c 1
 65 131 60 166 60 203 c 0
 60 247 67 294 74 352 c 1
 164 604 l 1
 220 692 278 712 386 742 c 1
 439 762 466 767 522 767 c 0xb0
 538 767 556 766 578 766 c 1
 610 748 628 720 675 720 c 0
 690 720 703 724 722 724 c 1
 728 710 730 693 730 676 c 0
 730 630 715 576 715 530 c 0
 715 525 716 519 716 514 c 1
 700 513 687 504 673 504 c 0xd0
 634 504 635 542 620 568 c 1
 592 612 586 646 544 678 c 1
 526 690 512 696 490 696 c 0
 440 696 410 686 368 658 c 1
 308 616 286 576 252 512 c 1
 230 464 226 434 218 382 c 1
 215 354 213 335 213 312 c 0
 213 303 213 294 214 284 c 0
 218 236 214 204 240 164 c 1
 268 118 298 94 348 80 c 0
 357 77 364 76 372 76 c 0
 387 76 401 81 418 86 c 0
 460 96 486 104 520 134 c 1
 558 166 550 214 592 242 c 0
 601 247 615 255 624 255 c 0xb0
EndSplineSet
Validated: 1
EndChar

StartChar: D
Encoding: 68 68 335
Width: 732
VWidth: 1080
Flags: W
HStem: -14 104<244 378.781> 740 20G<307.5 422>
VStem: 640 153<339.119 566.293>
LayerCount: 2
Back
Fore
SplineSet
22 -8 m 1
 14 15 -2 29 -2 49 c 0
 -2 53 -1 58 0 62 c 0
 15 107 70 94 98 132 c 0
 123 166 118 196 132 236 c 2
 174 350 l 1
 198 452 221 532 249 639 c 1
 214 653 176 642 158 676 c 0
 155 682 154 688 154 693 c 0
 154 713 170 730 176 754 c 1
 237 756 277 758 338 760 c 1
 422 742 l 1
 511 724 569 739 650 698 c 1
 707 668 739 640 770 584 c 0
 791 546 792 518 793 475 c 1
 793 446 l 2
 793 388 786.93 347.027 764 288 c 0
 751.963 257.014 737 242 716 216 c 0
 669 158 645 121 584 78 c 0
 513 29 460 24 380 -10 c 1
 354 -8 328 -7 304 -7 c 0
 234 -7 170 -14 108 -14 c 0
 79 -14 51 -12 22 -8 c 1
244 90 m 1
 296 79 349 84 400 78 c 1
 435 108 458 122 490 156 c 0
 541 211 571.682 243.154 604 310 c 0
 626.776 357.108 640 389 640 440 c 0
 640 442 640 444 640 446 c 0
 638 515 631.898 562.908 586 614 c 0
 551.924 651.932 517 668 469 668 c 0
 466 668 463 668 460 668 c 0
 434 667 417 658 400 638 c 0
 360 589 376 542 358 482 c 0
 335 406 318.806 363.069 292 288 c 0
 274.876 240.044 256 216 246 166 c 0
 244 155 243 145 243 136 c 0
 243 124 244 113 244 98 c 2
 244 90 l 1
EndSplineSet
Validated: 1
EndChar

StartChar: E
Encoding: 69 69 336
Width: 624
VWidth: 1080
Flags: W
HStem: -1 132<544.516 588.931> 4 60<317.2 433.112 434.42 501.593> 366 37<380.531 455.153> 670 66<188.675 227.297 229.357 316.965 422.007 592.297>
VStem: 648 70<554.841 601.227>
LayerCount: 2
Back
Fore
SplineSet
18 -10 m 1x78
 23 6 19 19 30 32 c 0
 60 65 96 58 138 74 c 1
 161 120 156 208 198 302 c 1
 264 484 l 1
 291 554 308 608 318 670 c 1
 282 669 257 655 228 655 c 0
 213 655 198 658 180 668 c 0
 174 671 172 675 172 680 c 0
 172 694 193 714 198 734 c 1
 259 739 321 737 398 746 c 1
 433 742 453 737 488 736 c 0
 492 736 496 736 500 736 c 0
 532 736 553 739 588 740 c 0
 608 741 624 747 640 747 c 0
 649 747 657 746 666 740 c 0
 702 718 695 681 714 644 c 1
 716 628 718 615 718 600 c 0
 718 586 716 572 708 554 c 1
 693 554 676 545 664 545 c 0
 657 545 652 547 648 554 c 0
 624 596 622 630 582 656 c 0
 562 669 544 671 524 671 c 0
 512 671 500 670 486 670 c 2
 484 670 l 2
 470 670 455 674 442 674 c 0
 431 674 422 670 422 656 c 0
 422 618 399 601 392 564 c 1
 391 515 380 473 380 434 c 0
 380 430 380 426 380 422 c 1
 391 409 407 403 423 403 c 0
 438 403 454 408 468 416 c 0
 504.018 437.829 471.81 514 538 514 c 0
 550 514 562 512 575 512 c 2
 582 512 l 1
 583 505 584 498 584 491 c 0
 584 440 556 399 552 344 c 1
 536 305 542 273 522 236 c 1
 512 229 500 225 488 225 c 0
 477 225 465 229 456 238 c 1
 449 257 446 272 446 285 c 0
 446 312 456 330 456 357 c 2
 456 362 l 1
 438 364 416 366 394 366 c 0
 376 366 358 365 342 362 c 1
 279 299 295 203 282 122 c 1
 305 102 313 82 342 72 c 0
 357 67 370 64 383 64 c 0x78
 399 64 415 68 434 72 c 1
 443 70 450 70 457 70 c 0
 488 70 506 87 544 126 c 1
 555 128 567 131 577 131 c 0
 587 131 595 129 602 120 c 0
 610 110 612 101 612 91 c 0
 612 64 589 35 584 0 c 1
 577 -1 569 -1 560 -1 c 0xb8
 520 -1 464 4 402 4 c 0
 374 4 344.003 2.96735 314 0 c 0
 223 -9 74 -10 30 -10 c 2
 18 -10 l 1x78
EndSplineSet
Validated: 1
EndChar

StartChar: F
Encoding: 70 70 337
Width: 582
VWidth: 1080
Flags: W
HStem: 0 82<272.622 340.737> 349 62<373.075 433.803> 662 74<187.576 315.32> 678 62<423.278 603.767>
VStem: 317 105<609.211 673.997> 648 70<554.841 617.822>
LayerCount: 2
Back
Fore
SplineSet
270 82 m 1xdc
 301.025 70.9197 345 86.4516 345 40 c 0
 345 21 333 2 314 0 c 0
 223 -9 74 -10 30 -10 c 2
 18 -10 l 1
 23 6 19 19 30 32 c 0
 60 65 96 58 138 74 c 1
 161 120 156 208 198 302 c 1
 268 550 l 1
 295 620 307 615 317 677 c 1
 281 676 256 662 227 662 c 0
 212 662 197 665 179 675 c 0
 174 678 172 681 172 685 c 0
 172 698 193 716 198 734 c 1
 259 739 321 737 398 746 c 1
 433 742 453 737 488 736 c 0
 492 736 496 736 500 736 c 0xec
 532 736 553 739 588 740 c 1
 669 740 l 2
 708 740 706 719 714 644 c 0
 716 628 718 615 718 600 c 0
 718 586 716 572 708 554 c 1
 693 554 676 545 664 545 c 0
 657 545 652 547 648 554 c 0
 624 596 633 640 592 666 c 0
 577 675 564 678 550 678 c 0
 530 678 510 672 486 670 c 1
 482 670 l 2
 469 670 454 674 442 674 c 0
 431 674 422 670 422 656 c 0
 422 618 404 600 392 564 c 1
 373 513 354 486 354 448 c 2
 354 440 l 1
 383 433 403 411 427 411 c 0
 433 411 439 413 446 416 c 0
 481 432 456 484 488 506 c 0
 497 512 505 514 514 514 c 0
 523 514 534 512 545 512 c 2
 552 512 l 1
 553 505 554 498 554 491 c 0
 554 440 526 399 522 344 c 1
 506 305 512 273 492 236 c 1
 448 238 l 1
 436 270 433 286 433 301 c 0
 433 311 434 320 434 334 c 2
 434 345 l 1
 416 347 397 349 377 349 c 0
 360 349 344 348 328 345 c 1
 288 251 294 147 270 82 c 1xdc
EndSplineSet
Validated: 1
EndChar

StartChar: G
Encoding: 71 71 338
Width: 710
VWidth: 1080
Flags: W
HStem: -28 72<320.484 473.221> 240 76<650.358 744> 698 54<433.14 580.29>
VStem: 64 151<201.341 456.498> 526 121<99.8465 241.438> 660 108<542.24 610.157>
LayerCount: 2
Back
Fore
SplineSet
652 144 m 0
 652 123.236 647 101.398 647 79 c 0
 647 73 647 67 647 61 c 0
 647 49 645 37 636 26 c 0
 614 -2 586.998 -1.9901 552 -10 c 0
 503.997 -20.9864 466 -28 426 -28 c 0
 398 -28 370 -24 336 -16 c 0
 255 4 207 29 148 88 c 0
 114 122 103 150 88 196 c 0
 73 240 64 272 64 312 c 0
 64 323 65 334 66 346 c 0
 75 437 91.2776 492.805 144 568 c 0
 192.254 636.822 235 666 310 705 c 0
 366 734 403.015 739.867 466 747 c 0
 492.006 749.945 514 752 534 752 c 0
 595.823 752 658.453 739.128 702 713 c 0
 731 696 742 678 768 656 c 1
 768 653 768 650 768 647 c 0
 768 592 752 532 710 494 c 1
 660 506 l 1
 642 552 659 590 626 628 c 1
 597 653 587.989 680.965 552 692 c 0
 538.996 695.987 527 698 516 698 c 0
 493 698 471 690 444 680 c 0
 385 657 355 631 312 584 c 0
 273 540 253.065 509.98 236 454 c 0
 221.057 404.983 215 367 215 325 c 0
 215 298 218 269 222 236 c 0
 229 185 232.081 151.063 264 110 c 0
 288.061 79.0472 311 67 348 56 c 0
 370 49 389 44 408 44 c 0
 424 44 439 48 456 56 c 0
 491 73 506.919 98.0237 518 136 c 0
 522.964 153.011 526 169 526 184 c 0
 526 202 522 219 510 236 c 0
 487 271 436 248 414 284 c 0
 409 293 414 300 414 310 c 1
 436 319 456 322 476 322 c 0
 507 322 537 316 572 316 c 2
 744 316 l 1
 744 300 751 286 751 273 c 0
 751 250.42 728.171 240 710 240 c 0
 697 240 682 243 667 243 c 0
 662 243 658 243 654 242 c 1
 651 230 650 218 650 205 c 0
 650 186 652 165 652 144 c 0
EndSplineSet
Validated: 1
EndChar

StartChar: H
Encoding: 72 72 339
Width: 774
VWidth: 1080
Flags: W
HStem: -2 87<21.5984 109.81 424.562 523.735> 8 66<52.6094 109.81 239.634 312.88 461.939 539.67 678.656 724.219> 354 53<328.777 587.31> 650 58<164.376 243.248> 671 67<802.366 888.484> 671 54<382.114 463.11 812.609 856.016 857.469 900.375> 684 54<644.581 675.533>
LayerCount: 2
Back
Fore
SplineSet
291 80 m 0x60
 303.639 80 321 70.1074 321 54 c 0
 321 40 308 25 304 8 c 1
 291 8 l 2x60
 257 8 205 5 152 0 c 1
 142 3 132 4 123 4 c 0
 100 4 78 -2 45 -2 c 0
 36 -2 26 -1 14 0 c 1
 21 30 9 56 32 78 c 0
 38 83 45 85 52 85 c 0
 65 85 78 81 90 81 c 0
 98 81 106 83 110 92 c 0
 122 116 131 149 140 186 c 0
 150 228 151.206 251.957 160 294 c 0
 170.239 342.95 174 372 188 420 c 0
 214 509 246 556 272 642 c 1
 266 653 256 657 244 657 c 0
 228 657 209 650 192 650 c 0
 182 650 172 652 164 660 c 0
 150 673 157 689 152 708 c 1xb0
 187 724 247 708 308 726 c 1
 317 725 325 725 333 725 c 0
 360 725 384 728 408 728 c 0
 427 728 445 726 464 720 c 1
 464 715 l 2
 464 706 466 698 466 690 c 0
 466 678.999 455.506 666 443 666 c 0
 433 666 423 671 413 671 c 0x24
 408 671 403 669 398 666 c 0
 366 642 374 608 362 570 c 0
 345 515 340 482 326 426 c 1
 385 410 460 407 525 407 c 0
 558 407 589 408 614 408 c 1
 637 462 656 490 674 546 c 0
 685 578 706 605 706 632 c 0
 706 641 704 650 698 660 c 0
 683 686 654 675 626 684 c 1
 626 705 640 726 650 738 c 1x22
 658 741 666 743 676 743 c 0
 703 743 736 732 775 732 c 2
 791 732 l 2
 815 732 836 738 857 738 c 0
 867 738 877 737 888 732 c 1
 898 717 901 705 901 695 c 0
 901 676 890 666 890 666 c 1
 879 667 865 671 849 671 c 0
 838 671 825 668 812 660 c 1
 757 589 787 492 742 386 c 1
 718 264 661 172 644 74 c 1
 648 73 652 73 656 73 c 0
 670 73 682 76 694 76 c 0
 708.209 76 729 66.655 729 48 c 0
 729 36 719 23 718 8 c 1x68
 705 11 692 12 678 12 c 0
 644 12 605 5 562 0 c 1
 549 3 537 4 525 4 c 0
 498 4 472 -2 440 -2 c 0xa0
 431 -2 422 -1 412 0 c 1
 413 5 413 10 413 15 c 0
 413 23 412 31 412 38 c 0
 412 49 414 59 424 68 c 0
 436 78 448 82 461 82 c 0
 481 82 503 74 527 74 c 2
 532 74 l 1
 559 143 590 231 590 299 c 0
 590 321 587 340 580 356 c 1
 552 354 520 354 487 354 c 2
 472 354 l 2
 410 354 346 354 298 344 c 1
 232 281 239 184 238 74 c 1
 242 74 l 2
 259 74 276 80 291 80 c 0x60
EndSplineSet
Validated: 1
EndChar

StartChar: I
Encoding: 73 73 340
Width: 491
VWidth: 1080
Flags: W
HStem: -16 100<65.0899 201.068> 658 95<554.281 624.691> 658 86<556.894 626> 673 86<295.539 382.423>
LayerCount: 2
Back
Fore
SplineSet
95 -16 m 0xc0
 72.9022 -16 39 -2.56901 39 24 c 0
 39 28 40 32 42 36 c 0
 61 78 106 70 150 84 c 0
 170 90 182 90 202 94 c 1
 225 143 222 182 244 232 c 1
 256 262 264 279 276 310 c 0
 313 402 342 451 368 546 c 0
 376 573 379 590 380 618 c 0
 381 628 383 638 383 646 c 0
 383 661.252 371.491 673 356 673 c 0
 343 673 329 667 316 667 c 0
 295.266 667 284 688.742 284 707 c 0
 284 739.634 318.118 759 345 759 c 0x90
 373 759 405 746 439 746 c 2
 446 746 l 1
 453 744 460 744 467 744 c 0xa0
 492 744 516 753 556 753 c 0xc0
 575 753 598 751 626 744 c 1xa0
 626 739 l 2
 626 723 631 709 631 696 c 0
 631 671.973 610.176 658 589 658 c 0
 583 658 577 658 571 658 c 0
 565 658 560 658 554 657 c 1
 505 589 492 534 472 452 c 1
 404 266 l 1
 389 203 369 166 350 90 c 1
 379 78 407 86 425 60 c 0
 430 52 432 45 432 37 c 0
 432 22 425 7 425 -12 c 1
 402 -11 322 1 240 1 c 0
 223 1 206 0 190 -1 c 0
 154 -2 124 -16 95 -16 c 0xc0
EndSplineSet
Validated: 1
EndChar

StartChar: J
Encoding: 74 74 341
Width: 559
VWidth: 1000
Flags: W
HStem: -253 74<108.5 214.984> 420 60<623.074 691> 504 150<196.339 253.541> 714 44<215.92 330.857>
VStem: 531 91<486.033 568.772>
LayerCount: 2
Back
Fore
SplineSet
697 445 m 0
 697 428.75 677.42 420 664 420 c 0
 644 420 622 432 598 432 c 1
 520 288 508 168 448 12 c 1
 392 -56 370 -104 304 -162 c 1
 258 -217 223 -230 172 -246 c 0
 157 -251 144 -253 131 -253 c 0
 86 -253 56 -225 16 -188 c 1
 13 -177 12 -165 12 -153 c 0
 12 -132 17 -110 28 -92 c 1
 50 -89 65 -81 84 -81 c 0
 89 -81 94 -81 100 -83 c 0
 136 -92 149 -116 178 -140 c 0
 193 -153 198 -179 214 -179 c 0
 216 -179 218 -179 220 -178 c 0
 255 -166 248 -146 254 -116 c 1
 279 -81 302 -9 312 66 c 1
 347 141 364 184 402 258 c 0
 422 296 454 311 456 354 c 0
 456 355 456 356 456 357 c 0
 456 378 446 392 432 408 c 0
 410 432 361 418 360 450 c 1
 360 451 l 2
 360 472 384 479 406 482 c 1
 411 482 l 2
 435 482 452 456 473 456 c 0
 477 456 480 456 484 458 c 0
 518 472 522.919 505.013 529 542 c 0
 529.987 548.002 531 553 531 558 c 0
 531 593.492 498.691 606.721 472 614 c 0
 468 615 464 615 461 615 c 0
 446 615 434 609 421 609 c 0
 416 609 411 610 406 612 c 0
 357 632 358 686 310 708 c 0
 298 713 288 715 278 715 c 0
 268 715 259 714 248 714 c 2
 238 714 l 1
 216 697 196 672 196 655 c 2
 196 654 l 1
 226 640 249 641 272 618 c 0
 285 605 298 591 298 575 c 0
 298 572 297 568 296 564 c 0
 281 526 245 504 207 504 c 0
 195 504 183 506 172 510 c 0
 142 521 149.136 554.064 136 582 c 0
 126.103 603.048 121 615 112 636 c 1
 124 680 133 708 166 744 c 1
 203 749 224 758 259 758 c 0
 262 758 265 758 268 758 c 0
 340 754 380.912 740.779 448 714 c 0
 490.944 696.859 504 654 550 654 c 0
 615 654 632.082 718.736 694 738 c 0
 713.025 743.919 730 752 746 752 c 0
 755 752 763 749 772 744 c 0
 800 727 790 696 802 666 c 1
 769 641 726 645 682 624 c 1
 665 595 622 553 622 498 c 0
 622 496 622 494 622 492 c 1
 645 482 662 486 691 480 c 1
 691 467 697 456 697 445 c 0
EndSplineSet
Validated: 1
EndChar

StartChar: K
Encoding: 75 75 342
Width: 725
VWidth: 1080
Flags: W
HStem: 3 88<14 142.421 636.796 702> 9 73<623.161 682.342> 664 88<240.192 336> 734 20G<660 692>
LayerCount: 2
Back
Fore
SplineSet
6 50 m 0x80
 6 79.4562 37.662 91 61 91 c 0
 76 91 92 89 109 89 c 0
 115 89 121 89 128 90 c 1
 198 187 154 260 210 376 c 1
 244 493 289 575 336 664 c 1
 216 664 l 1
 219 692 229 728 242 748 c 1
 263 751 286 752 309 752 c 0xa0
 377 752 450 744 504 744 c 0
 510 744 516 744 522 744 c 1
 523 737 524 728 524 720 c 0
 524 706 522 691 514 678 c 1
 430 654 l 1
 394 606 396 536 370 450 c 1
 364 376 l 1
 408 418 538 544 666 645 c 1
 647 666 627 672 618 699 c 0
 617 703 616 707 616 710 c 0
 616 722 622 732 624 747 c 1
 637 752 652 754 668 754 c 0
 716 754 772 737 822 737 c 0
 832 737 842 737 852 739 c 1
 852 728 855 720 855 711 c 0
 855 666.124 791.368 691.205 772 673 c 0
 723.029 626.969 693 575 630 523 c 1
 573 462 513 416 474 372 c 1
 476 256 569 197 636 82 c 1
 653 82 669 90 683 90 c 0
 699.803 90 712 72.5281 712 58 c 0
 712 40 702 21 702 0 c 1
 671 7 633 9 593 9 c 0x50
 518 9 437 1 386 0 c 1
 387 5 387 11 387 16 c 2
 387 32 l 2
 387 47.6891 395.869 66 415 66 c 0
 433 66 453 52 470 52 c 0
 483.178 52 496 65.3907 496 79 c 0
 496 93 488 109 488 126 c 1
 428 203 407 278 356 312 c 1
 308 294 l 1
 285 203 250 150 250 110 c 0
 250 103 251 96 254 90 c 1
 280 79 306 86 320 62 c 0
 323 57 324 53 324 48 c 0
 324 36 315 23 314 8 c 1
 290 -0 262 -3 231 -3 c 0
 182 -3 128 3 74 3 c 0
 54 3 34 2 14 0 c 1
 14 19 6 35 6 50 c 0x80
EndSplineSet
Validated: 1
EndChar

StartChar: L
Encoding: 76 76 343
Width: 604
VWidth: 1080
Flags: W
HStem: -9 88<35.9636 128.72> -1 66<243.201 455.601> 682 73<427.37 512.765> 698 59<214 300.267>
LayerCount: 2
Back
Fore
SplineSet
517 705 m 0x20
 517 687.65 498.647 678 484 678 c 0
 471 678 458 682 443 682 c 2
 438 682 l 1
 389 601 389 516 348 414 c 1
 306 299 341 407 234 120 c 1
 236 108 232 98 240 90 c 0
 261 69 284 65 310 65 c 0
 326 65 342 66 360 66 c 0
 396 66 415 77 450 84 c 1
 512 113 500 160 578 232 c 1
 614 226 l 1
 614 216 l 2
 614 147 594 68 560 16 c 1
 517 1 478 -2 437 -2 c 0
 409 -2 380 -1 349 -1 c 0
 339 -1 329 -1 319 -1 c 0x60
 251 -3 200 -9 146 -9 c 0
 111 -9 76 -7 34 0 c 1
 34 5 l 2
 34 19 30 32 30 44 c 0
 30 64.2128 49.0351 79 69 79 c 0
 84 79 101 74 119 74 c 2
 124 74 l 1
 151 212 147 280 196 398 c 0
 233 485 262 531 292 620 c 0
 298 638 299 649 304 668 c 1
 294 695 271 698 246 698 c 2
 229 698 l 2
 217 698 205 699 196 703 c 1
 214 756 l 1
 225 756 235 757 245 757 c 0x90
 282 757 303 754 322 754 c 0
 334 754 345 755 358 759 c 1
 372 755 386 754 400 754 c 0
 415 754 430 755 445 755 c 0
 470 755 493 751 516 730 c 1
 516 728 516 726 516 724 c 0
 516 718 517 711 517 705 c 0x20
EndSplineSet
Validated: 1
EndChar

StartChar: M
Encoding: 77 77 344
Width: 921
VWidth: 1080
Flags: W
HStem: -18 72<833.667 907.401> -17 118<40.4003 128.157> 0 96<84.3154 138.782> 0 74<611.604 685.876> 648 103<994 1069.02> 665 86<198 293.06> 674 72<244.818 329.603> 736 20G<453 475>
VStem: 330 200<584.091 671.196> 407 96<228.525 437.939> 414 108<293.014 488.037>
LayerCount: 2
Back
Fore
SplineSet
330 648 m 0x2880
 330 666.449 307.489 674 294 674 c 0x0280
 274 674 251 665 232 665 c 0
 203 665 191 685 191 701 c 0
 191 716 198 731 198 749 c 2
 198 751 l 1x0480
 215 753 230 754 243 754 c 0
 282 754 307 746 334 746 c 0x0280
 341 746 348 747 356 748 c 1
 364 746 373 745 381 745 c 0
 410 745 439 756 467 756 c 0
 483 756 500 752 516 742 c 1
 527 700 530 665 530 633 c 0x0180
 530 582 522 537 522 483 c 0x0120
 522 469 523 454 524 438 c 1
 524 438 503 354 503 290 c 0
 503 263 507 239 518 228 c 1
 552 247 644 359 674 456 c 1
 766 561 783 652 838 745 c 1
 853 750 866 751 880 751 c 0
 896 751 912 749 930 749 c 0
 939 749 948 750 958 751 c 1x0440
 966 749 973 748 980 748 c 0
 995 748 1011 751 1029 751 c 0
 1042 751 1056 750 1072 745 c 1
 1072 743 1072 741 1072 739 c 0
 1072 723 1076 708 1076 695 c 0
 1076 685 1074 675 1066 666 c 0
 1047 644 1022 655 994 648 c 1
 994 634 l 2
 994 529 918 432 880 300 c 0
 862 237 843 203 837 138 c 0
 835 122 831 106 831 92 c 0
 831 76 840 54 859 54 c 0
 870 54 884 61 895 61 c 0
 913 61 918 39 918 32 c 0
 918 13 901 -18 857 -18 c 0x8840
 835 -18 811 -11 785 -11 c 0
 780 -11 776 -12 772 -12 c 0
 758 -12 745 -10 732 -10 c 0
 716 -10 701 -11 687 -11 c 0
 663 -11 641 -9 616 0 c 1
 615 15 608 28 608 40 c 0
 608 54 623 74 655 74 c 0
 670 74 685 71 702 71 c 0
 707 71 713 71 718 72 c 1
 742 165 774.845 281.767 812 418 c 0
 827 473 848 531 848 562 c 0
 848 564 848 566 848 568 c 1
 818 562 l 1
 742 471 716.857 389.125 632 292 c 0
 549 197 543 99 476 16 c 1
 428 16 l 1
 413 70 410 108 410 142 c 0
 410 168 412 192 412 220 c 0
 412 277 407 277 407 315 c 0x1040
 407 360 414 402 414 438 c 0
 414 458 412 476 404 490 c 1
 356 490 l 1
 322 383 307 315 274 208 c 0
 262 170 235 139 235 107 c 0
 235 97 240 68 264 68 c 0
 275 68 287 72 298 72 c 0
 324 72 333 39 333 28 c 0
 333 1 309 -18 280 -18 c 0x8020
 250 -18 215 0 178 0 c 0x1020
 143 0 111 -17 83 -17 c 0
 48 -17 28 13 28 40 c 0
 28 61 42 101 79 101 c 0x4020
 94 101 111 96 129 96 c 2
 134 96 l 1
 156 184 156 244 194 330 c 2
 296 560 l 2
 299 568 330 620 330 648 c 0x2880
EndSplineSet
Validated: 1
EndChar

StartChar: N
Encoding: 78 78 345
Width: 710
VWidth: 1080
Flags: W
HStem: 1 102<61.314 167.491> 663 83<227.456 316.624 688.817 761.218 874.703 928> 663 76<656 720.016>
LayerCount: 2
Back
Fore
SplineSet
942 689 m 0xc0
 942 674.936 930.763 661 916 661 c 0
 904 661 889 669 874 669 c 1
 782 607 808 535 760 410 c 1
 718 280 738 148 652 10 c 1
 638 10 627 5 615 5 c 0
 610 5 604 6 598 10 c 0
 550 41 559 89 538 142 c 0
 503 232 490 285 460 376 c 1
 428 449 445 513 418 586 c 1
 375 568 l 1
 354 468 356 405 327 304 c 1
 309 248 291 218 282 160 c 0
 281 151 278 144 278 137 c 0
 278 133 279 129 282 124 c 0
 304 89 363 117 378 78 c 0
 380 73 381 69 381 64 c 0
 381 42 358 25 348 0 c 1
 328 -0 l 2
 295 -0 262 1 225 1 c 0
 208 1 190 1 170 0 c 1
 163 1 157 1 151 1 c 0
 118 1 88 -9 60 -9 c 0
 46 -9 33 -6 20 0 c 1
 29 32 19 59 44 82 c 0
 66 102 90 103 116 103 c 2
 120 103 l 2
 134 103 148 103 164 106 c 1
 189 222 210 326 242 430 c 0
 262 498 261 532 311 604 c 1
 317 646 l 1
 309 659 300 663 290 663 c 0
 278 663 264 658 246 658 c 0
 237 658 226 659 214 664 c 1
 226 733 l 1
 257 743 292 746 327 746 c 0xc0
 368 746 410 742 448 737 c 1
 523 662 506 603 550 500 c 0
 587 411 598 296 638 258 c 1
 683 285 651 395 688 468 c 1
 708 522 723 551 740 606 c 0
 745 621 756 632 756 644 c 0
 756 658.788 739.45 667 727 667 c 0
 715 667 701 663 688 663 c 0
 667.951 663 653 677.909 653 697 c 0
 653 708 656 720 656 733 c 0
 656 735 656 737 656 739 c 1xa0
 679 746 700 748 721 748 c 0
 742 748 764 746 788 746 c 0
 796 746 805 746 814 747 c 1
 825 745 836 745 846 745 c 0
 870 745 892 748 912 748 c 0
 917 748 923 748 928 747 c 1
 929 726 942 707 942 689 c 0xc0
EndSplineSet
Validated: 1
EndChar

StartChar: O
Encoding: 79 79 346
Width: 736
VWidth: 1080
Flags: W
HStem: -10 55<304.832 443.347> 646 96<388.68 423.626> 695 64<468.042 587.783>
VStem: 83 117<162.909 425.143> 671 105<336.362 578.374>
LayerCount: 2
Back
Fore
SplineSet
342 723 m 0xb8
 349 726 353 726 360 728 c 1
 370 684 374 671 374 663 c 0
 374 656 371 653 366 638 c 1
 326 594 296 574 264 524 c 0
 238 483 235 454 216 410 c 1
 207 359 200 317 200 275 c 0
 200 234 207 194 228 148 c 1
 269 111 281 72 332 52 c 0
 344 47 354 45 365 45 c 0
 377 45 388 48 402 52 c 0
 478 75 518.921 106.067 570 166 c 0
 616.927 221.062 631 264 648 334 c 0
 661 388 671 431 671 476 c 0
 671 504 667 534 658 568 c 0
 646 616 632 647 592 676 c 0
 574 689 558 695 538 695 c 0xb8
 532 695 526 695 520 694 c 0
 470 688 453 655 436 646 c 1
 431 645 427 644 424 644 c 0
 416 644 409 646 400 646 c 1
 389 657 386 671 386 685 c 0
 386 699 389 714 389 729 c 0
 389 733 389 738 388 742 c 1xd8
 422 747 442 756 475 756 c 0
 478 756 481 756 484 756 c 0
 495 758 505 759 513 759 c 0
 556 759 580 741 616 720 c 1
 665 684 709 671 737 616 c 0
 765 560 776 512 776 461 c 0
 776 422 769.828 381.032 761 334 c 0
 744.682 247.06 718.79 199.166 664 130 c 0
 626.858 83.1126 595.987 63.0224 544 34 c 0
 495.609 6.98507 429.181 -10 362 -10 c 0
 339 -10 316 -7 288 0 c 0
 236 13 215 40 168 66 c 1
 104 125 98 171 86 276 c 1
 85 303 83 326 83 348 c 0
 83 384 87 418 98 462 c 0
 114 526 126 566 170 616 c 0
 222 675 270 691 342 723 c 0xb8
EndSplineSet
Validated: 1
EndChar

StartChar: P
Encoding: 80 80 347
Width: 595
VWidth: 1080
Flags: W
HStem: -2 98<31.8445 100.651> 0 79<265.749 326.917> 0 71<230.505 308.344> 330 81<322.565 459.577> 666 78<184.508 231.438 406.396 512.825> 695 52<236.094 284.776>
VStem: 544 148<505.486 634.339>
LayerCount: 2
Back
Fore
SplineSet
309 79 m 0x52
 322.111 79 335 65.5466 335 52 c 0
 335 36 323 19 322 0 c 1
 299 0 l 2x52
 255 0 233 -4 190 -5 c 1
 173 -1 156 -0 140 -0 c 0x32
 122 -0 105 -2 88 -2 c 0x92
 68 -2 49 0 31 9 c 1
 31 27 24 42 24 57 c 0
 24 64 26 72 31 79 c 0x52
 45 98 67 89 90 96 c 1
 150 204 157 304 203 424 c 1
 232 529 255 590 286 671 c 1
 279 680 280 693 268 695 c 0
 267 695 266 695 265 695 c 0
 251 695 247 676 232 671 c 0
 220 667 209 663 198 663 c 0
 184.203 663 170 674.706 170 689 c 0
 170 697 174 705 178 713 c 0
 188 732 207 731 225 743 c 1
 240 746 254 747 269 747 c 0x96
 294 747 320 744 352 744 c 0
 361 744 371 744 381 745 c 0
 388 745 395 744 402 744 c 0
 431 744 455 748 480 748 c 0
 502 748 524.967 744.914 551 735 c 0
 611.923 711.799 658 692 683 631 c 0
 689 616 692 602 692 588 c 0
 692 558 679 531 666 496 c 0
 647 446 627.91 418.1 588 382 c 0
 565.95 362.055 548 360 522 346 c 0
 496 333 469 330 442 330 c 0
 416 330 389 333 362 333 c 0
 342 333 322 331 302 326 c 1
 289 257 292.897 251.033 274 192 c 0
 259.923 148.025 246 140 228 84 c 0
 224 73 244 75 256 72 c 0
 259 71 262 71 265 71 c 0x3a
 281 71 295 79 309 79 c 0x52
322 420 m 1
 334 410 349 407 367 407 c 0
 386 407 409 411 431 411 c 0
 441 411 451 410 460 408 c 1
 481 429 500 436 514 462 c 0
 532 497 544 526 544 559 c 0
 544 609.631 523.59 647.803 484 661 c 0
 475 664 466 666 458 666 c 0x1a
 442 666 427 660 412 649 c 0
 370 618 375 575 352 528 c 1
 344 493 320 465 320 434 c 0
 320 430 321 425 322 420 c 1
EndSplineSet
Validated: 1
EndChar

StartChar: Q
Encoding: 81 81 348
Width: 765
VWidth: 1080
Flags: W
HStem: -266 81<802.494 1037.67> 26 74<233.932 351.996> 94 52<110.233 184.549> 288 58<310.836 449.199> 456 78<433.62 467.621> 696 58<447.274 631.545>
VStem: 162 118<384.982 522.94> 426 114<456.424 517.388> 722 121<463.103 609.198>
LayerCount: 2
Back
Fore
SplineSet
126 -39 m 0xdf80
 75.1395 -39 33 9.90524 33 52 c 0
 33 101.551 64.4782 125.998 106 141 c 0
 117.008 144.977 127 146 136 146 c 0xbf80
 166 146 191 131 226 124 c 0
 261 117 279 100 313 100 c 0
 314 100 315 100 316 100 c 0
 331 100 339 106 352 112 c 0
 444 156 496.988 185.013 572 254 c 0
 633.99 311.011 677 346 704 426 c 0
 716 460 722 489 722 518 c 0
 722 544 716.888 570.95 704 600 c 0
 685.842 640.93 661 662 620 679 c 0
 592 691 568 696 543 696 c 0
 521 696 497 692 470 685 c 0
 433 676 416.066 658.914 386 636 c 0
 353.072 610.905 330 599 308 564 c 0
 287 530 282 506 280 466 c 1
 280 445 l 2
 280 423 282 405 296 384 c 0
 309 366 323 359 344 354 c 0
 362 350 378 346 394 346 c 0
 410 346 424 350 440 360 c 0
 463 376 465 398 470 426 c 0
 472 436 475 445 468 452 c 0
 460 461 446 447 438 456 c 0
 430 465 426 477 426 488 c 0
 426 514.791 451.589 534 477 534 c 0
 492 534 507 529 520 518 c 0
 536 505 540 489 540 470 c 0
 540 418.102 532.3 387.221 504 354 c 0
 465.249 309.378 432.509 288 363 288 c 0
 315 288 279 304 234 334 c 0
 192.228 362.224 162 389.165 162 450 c 0
 162 493 185.072 524.958 210 568 c 0
 240.087 619.95 264 647 312 682 c 0
 345 706 368 714 408 723 c 0
 481 739 540 754 600 754 c 0
 640 754 679.929 747.806 726 731 c 0
 775.923 712.789 810 692 828 642 c 0
 838 614 843 589 843 564 c 0
 843 508 820 457 792 396 c 0
 768 344 737 325 696 284 c 0
 639 228 603.962 199.051 540 152 c 0
 501.978 124.03 478 111 438 86 c 0
 422 76 420 84 396 62 c 1
 406 40 444 41 474 26 c 0
 546 -11 583.048 -37.9105 654 -76 c 0
 732.053 -117.902 769 -161 856 -180 c 0
 872 -184 885 -185 899 -185 c 0
 934 -185 964 -175 1006 -174 c 1
 1059 -164 1086 -129 1126 -110 c 1
 1140 -119 1161 -117 1162 -134 c 1
 1162 -141 l 2
 1162 -199 1099 -220 1042 -242 c 0
 998 -260 960 -266 922 -266 c 0
 878 -266 833.006 -256.961 778 -248 c 0
 704.009 -235.947 664 -217 598 -182 c 0
 511 -135 472.177 -92.7728 394 -32 c 0
 372.05 -14.9362 365 1 340 13 c 0
 322 22 308 26 292 26 c 0
 230.757 26 222.075 -20.4187 172 -32 c 0
 154.985 -35.9352 141 -39 126 -39 c 0xdf80
152 94 m 1
 142 94 l 2
 128 94 125 90 100 60 c 1
 119 45 129 32 150 32 c 2
 154 32 l 1
 173 34 186 42 193 62 c 1
 178 78 172 93 152 94 c 1
EndSplineSet
Validated: 1
EndChar

StartChar: R
Encoding: 82 82 349
Width: 645
VWidth: 1080
Flags: W
HStem: -1 83<29 134.346> 1 105<566.656 630.565> 329 53<332.61 389.939> 685 63<189.376 301.873> 698 46<341 494>
VStem: 575 124<493.529 663.216>
LayerCount: 2
Back
Fore
SplineSet
654 72 m 0x74
 654 36.3589 616.172 1 580 1 c 0x74
 568 1 556 4 545 10 c 1
 493 32 483 78 461 130 c 1
 431 194 409 228 389 314 c 0
 387 326 377 329 365 329 c 0
 313.983 329 307.806 298.806 281 272 c 1
 276 211 248 160 248 114 c 0
 248 108 248 103 249 98 c 1
 277 90 301 102 317 78 c 0
 322 71 324 64 324 57 c 0
 324 40 313 21 313 0 c 1
 306 -3 299 -4 290 -4 c 0
 265 -4 233 6 196 6 c 0
 181 6 165 4 149 0 c 1
 138 1 127 2 117 2 c 0
 92 2 69 -1 48 -1 c 0
 41 -1 35 -1 29 0 c 1
 29 17 22 33 22 47 c 0
 22 69.5988 43.4995 82 62 82 c 0
 77 82 93 77 111 77 c 0
 114 77 118 78 121 78 c 1
 183 182 177 274 229 390 c 1
 245 458 249 498 269 564 c 1
 281 594 301 606 301 638 c 1
 302 644 303 650 303 655 c 0
 303 674.109 282.976 685 265 685 c 0
 249 685 232 679 215 679 c 0
 206 679 197 681 189 688 c 1
 183 695 182 702 182 711 c 2
 182 724 l 2
 182 728 182 733 181 738 c 1
 189 746 205 748 227 748 c 0xb4
 258 748 298 744 341 744 c 0x2c
 362 744 384 745 405 748 c 1
 473 740 515 750 581 728 c 0
 621 714 653 706 673 670 c 1
 691 641 699 612 699 583 c 0
 699 557 692 530 681 502 c 0
 661 454 627 438 585 406 c 1
 561 390 545 390 521 374 c 0
 498.313 358.119 472 355.105 472 320 c 0
 472 290 499 272 513 242 c 1
 541 190 539 146 585 110 c 0
 590 107 596 106 602 106 c 0
 610 106 618 107 626 107 c 0
 634 107 640 106 645 98 c 0
 651 90 654 81 654 72 c 0x74
333 404 m 0
 332 402 332 400 332 398 c 0
 332 386 344 382 360 382 c 0
 381 382 410 389 429 392 c 0
 475 400 504.839 410.119 533 448 c 0
 562.83 488.126 575 524 575 566 c 0
 575 584 573 602 569 622 c 1
 565 652 553 672 525 688 c 0
 515 694 505 698 494 698 c 0x2c
 487 698 480 697 473 694 c 0
 433 678 421 648 401 610 c 1
 373 566 373 534 357 484 c 1
 349 454 345 444 333 404 c 0
EndSplineSet
Validated: 1
EndChar

StartChar: S
Encoding: 83 83 350
Width: 424
VWidth: 1080
Flags: W
HStem: -1 75<191.382 320.478> 677 79<282.386 402.28>
VStem: 39 103<105.5 228.688> 47 95<126.519 207.719> 147 93<502.931 634.112> 348 84<119.188 271.295> 437 74<519.061 640.338>
LayerCount: 2
Back
Fore
SplineSet
103 330 m 0xde
 130.335 330 158 301.223 158 270 c 0
 158 244 142 217 142 188 c 0
 142 180 143 172 146 164 c 0
 162 123 180 96 221 79 c 0
 230 75 237 74 245 74 c 0
 257 74 269 77 283 81 c 0
 303 87 319 89 329 107 c 0
 343 131 348 154 348 177 c 0
 348 209 336.933 241.974 323 278 c 0
 292.855 355.944 227 352 186 443 c 1
 168.979 491.63 147 515.744 147 577 c 0
 147 597 151 615 162 636 c 0
 190 691 220 723 278 744 c 0
 301 752 321 756 340 756 c 0
 368 756 395 748 426 733 c 0
 471 711 478 675 511 637 c 1
 509 582 496 527 477 495 c 1
 437 500 l 1
 436 510 435 520 435 528 c 0
 435 552 440 568 440 584 c 0
 440 595 438 606 431 620 c 1
 414 638 409 655 386 666 c 0
 370 673 356 677 342 677 c 0
 332 677 323 675 312 671 c 0
 274 656 253 631 243 592 c 0
 241 584 240 577 240 570 c 0
 240 543 253 522 266 495 c 0
 307 411 385 398 416 310 c 0
 427 280 432 254 432 228 c 0
 432 200 426 172 416 139 c 0
 399 84 381.894 44.2051 331 18 c 0
 305.948 5.10095 283 -1 260 -1 c 0
 234 -1 209 6 181 18 c 0
 145 33 146 72 111 88 c 0
 106 90 101 91 96 91 c 0
 83 91 70 86 59 86 c 0
 52 86 45 88 40 94 c 1
 39 99 39 103 39 108 c 0xee
 39 133 47 160 47 190 c 0
 47 196 47 202 46 208 c 1
 58 254 63 292 84 326 c 1
 90 329 96 330 103 330 c 0xde
EndSplineSet
Validated: 1
EndChar

StartChar: T
Encoding: 84 84 351
Width: 666
VWidth: 1080
Flags: W
HStem: 7 76<229.986 304.959> 7 66<419.564 468.098> 7 57<398.874 456.436> 366 94<207.042 272.121> 448 20G<271 284.5> 639 90<569.728 699.587> 647 82<559.06 661.595 663.703 699.895> 666 70<305.81 469.552> 738 20G<710.5 723>
VStem: 132 169<395.751 459.819> 132 71<463.572 559.992>
LayerCount: 2
Back
Fore
SplineSet
457 73 m 0x40a0
 467 73 476 63 476 52 c 0
 476 39 463 24 460 7 c 1
 443 7 l 2x40a0
 420 7 397 8 371 8 c 0
 359 8 347 8 334 7 c 1x20a0
 326 9 318 9 310 9 c 0
 295 9 281 7 265 7 c 0
 249 7 232 9 210 15 c 1
 208 36 195 54 195 70 c 0
 195 88 214 100 229 100 c 0
 250 100 273 84 300 83 c 1
 326 188 359 300 408 437 c 1
 431 492 452 521 465 579 c 0
 472 607 469 624 471 653 c 1
 440 661 416 666 391 666 c 0
 371 666 351 663 328 654 c 0
 287 639 271.099 614.918 243 581 c 0
 223.07 556.942 206 542 203 511 c 0
 203 509 203 507 203 505 c 0
 203 485 212 460 236 460 c 0x91a0
 250 460 265 468 277 468 c 0
 292 468 301 452 301 438 c 0x08c0
 301 401 252 366 215 366 c 0
 202 366 188 369 175 377 c 0
 140 397 139 431 134 471 c 0
 133 479 132 487 132 494 c 0
 132 517 138.045 534.982 148 560 c 0
 167.086 607.966 185 633 222 668 c 0
 253 697 273 713 313 725 c 0
 341 734 364 736 387 736 c 0x11a0
 415 736 442 733 475 733 c 2
 497 733 l 2
 538 733 568 729 603 729 c 0x04a0
 620 729 638 730 659 733 c 0
 685 736 700 758 721 758 c 0
 725 758 729 757 733 756 c 0
 757 747 774 728 774 704 c 0
 774 664 742 658 711 647 c 0x02a0
 693 641 678 639 663 639 c 0x04a0
 633 639 605 647 568 647 c 1
 537 585 543 512 513 429 c 1
 491 360 480 321 456 252 c 0
 435 192 404 162 399 98 c 0
 398.848 95.5693 398.742 93.0925 398.742 90.6397 c 0
 398.742 76.9464 402.038 64 419 64 c 0x22a0
 431 64 445 73 457 73 c 0x40a0
EndSplineSet
Validated: 1
EndChar

StartChar: U
Encoding: 85 85 352
Width: 753
VWidth: 1080
Flags: W
HStem: -3 66<286.029 438.634> 664 84<153.655 228 357.166 425.859 609.608 699.938>
VStem: 101 119<125.486 321.628>
LayerCount: 2
Fore
SplineSet
229 634 m 0
 229 654.226 215.404 664 198 664 c 0
 192 664 186 663 180 663 c 0
 169 663 159 665 153 674 c 0
 145 684 141 697 141 708 c 0
 141 719 144 729 153 737 c 1
 167 745 179 748 191 748 c 0
 216 748 239 735 268 735 c 2
 277 735 l 2
 323 735 300 747 392 747 c 0
 406 747 423 747 443 746 c 1
 450 738 453 728 453 718 c 0
 453 699 442 680 426 666 c 0
 423 664 420 663 417 663 c 0
 408 663 399 669 390 669 c 0
 387 669 384 668 381 666 c 0
 309 608 309 534 274 446 c 1
 249 377 236 337 229 264 c 0
 226 236 220 213 220 190 c 0
 220 173 224 157 234 138 c 1
 262 91 300 71 354 64 c 0
 360 63 366 63 372 63 c 0
 409 63 435 78 470 100 c 0
 519 131 541 159 571 209 c 0
 613 280 610 333 637 412 c 1
 660 494 688 545 711 617 c 1
 708.392 641.776 684.937 664 655 664 c 2
 639 664 l 2
 627 664 617 665 609 676 c 0
 601 686 597 698 597 709 c 0
 597 719 600 729 609 737 c 1
 622 740 633 741 642 741 c 0
 676 741 687 727 723 727 c 1
 755 728 775 740 804 740 c 0
 840.817 740 872 727.908 872 690 c 0
 872 675 865 661 854 648 c 0
 838 630 813 647 797 630 c 1
 752 542 754 467 711 368 c 1
 677 281 666 226 609 152 c 0
 568 99 535 75 478 41 c 0
 428.234 11.8686 401.269 -3 334 -3 c 0
 293 -3 262 6 221 28 c 0
 169 56 134.227 78.0876 113 133 c 0
 104.095 156.037 101 176 101 196 c 0
 101 237 115.071 275.987 124 326 c 0
 141.136 421.976 167 472 196 564 c 0
 205 592 229 611 229 634 c 0
EndSplineSet
Validated: 1
EndChar

StartChar: V
Encoding: 86 86 353
Width: 616
VWidth: 1080
Flags: W
HStem: 677 67<144 190.251 398.125 470 532.38 565.673> 684 71<168.612 235.589 377.7 468.829 538.936 584.895>
LayerCount: 2
Back
Fore
SplineSet
791 702 m 0x40
 791 682.069 769.557 670 753 670 c 0
 741 670 728 673 715 673 c 0
 711 673 706 673 702 672 c 1
 667 639 586 546 516 468 c 1
 425 372 368.011 322.991 282 222 c 0
 236.006 167.995 216 133 172 78 c 0
 147 47 144 13 107 0 c 0
 91 -6 69 -10 50 -10 c 0
 28 -10 9 -4 9 12 c 0
 9 14 9 16 10 18 c 0
 40 140 64 152 94 240 c 0
 124 328 132 381 165 468 c 0
 186 523 215 548 227 606 c 0
 231 622 237 638 237 652 c 0
 237 666.649 226.942 685 210 685 c 0
 197 685 181 677 168 677 c 0
 151.629 677 141 691.646 141 706 c 0
 141 716 144 727 144 739 c 2
 144 744 l 1
 160 748 175 748 191 748 c 0
 206 748 221 748 236 748 c 0
 255 748 274 749 294 754 c 1
 307 753 319 752 330 752 c 0
 354 752 375 754 397 754 c 0
 421 754 445 752 470 744 c 1x80
 470 730 476 717 476 706 c 0
 476 687.871 456.742 678 442 678 c 0
 427 678 409 684 391 684 c 2
 386 684 l 1
 355 603 341 559 308 480 c 1
 272 401 245 359 216 278 c 0
 210 260 181 222 181 210 c 0
 181 208 182 207 184 207 c 0
 187 207 191 208 198 212 c 1
 279 299 300 357 378 428 c 1
 451 502 496 554 564 618 c 0
 576.883 630.125 585 644 585 659 c 0
 585 671.502 579.293 685 566 685 c 0
 559 685 553 684 546 684 c 0x40
 535.215 684 528 692.611 528 704 c 0
 528 716 537 729 538 744 c 1x80
 558 752 576 755 593 755 c 0
 612 755 631 752 652 752 c 2
 666 752 l 1
 673 751 679 751 686 751 c 0
 706 751 725 755 745 755 c 0
 756 755 768 753 780 750 c 1
 781 732 791 717 791 702 c 0x40
EndSplineSet
Validated: 1
EndChar

StartChar: W
Encoding: 87 87 354
Width: 969
VWidth: 1080
Flags: W
HStem: 648 72<128.738 192.344> 658 66<378.264 447.577> 673 73<946.467 984.998> 687 65<560.297 612.996>
VStem: 985 151<649.995 704.5>
LayerCount: 2
Back
Fore
SplineSet
563 680 m 0x18
 553.118 680 546 688.028 546 698 c 0
 546 713 562 728 568 746 c 1x28
 579 751 590 752 602 752 c 0x18
 620 752 641 749 664 749 c 0
 679 749 694 750 711 754 c 1
 727 753 739 753 751 753 c 0
 776 753 798 755 854 758 c 1
 855 730 870 706 870 684 c 0
 870 674 867 665 860 656 c 0
 852 645 841 642 830 642 c 0
 816 642 801 646 786 646 c 0
 776 646 767 645 758 638 c 1
 693 550 681 459 618 348 c 1
 596 300 541 209 541 195 c 0
 541 194 541 193 542 193 c 0
 543 193 545 195 549 198 c 0
 589 235 620 246 660 282 c 0
 751 364 795.645 417.3 874 510 c 0
 896.896 537.088 907 554 928 582 c 0
 949 609 974 622 982 650 c 2
 982 650 985 655 985 661 c 0
 985 667 982 673 970 673 c 0
 964 673 956 671 946 668 c 1
 941 652 946 638 934 626 c 0
 929 621 923 622 916 620 c 1
 905 632 902 648 902 666 c 0
 902 687 907 710 910 734 c 1
 933 742 960 745 1012 746 c 1
 1021 745 1030 744 1039 744 c 0
 1059 744 1078 747 1094 747 c 0
 1099 747 1104 746 1108 746 c 1x28
 1128 728 1136 712 1136 697 c 0
 1136 675 1120 655 1102 637 c 1
 1030 631 l 1
 972 569 951 507 892 434 c 1
 750 286 l 1
 683 218 638 187 574 116 c 1
 535 66 504 41 490 8 c 1
 467 -4 440 -18 418 -18 c 0
 404 -18 391 -13 382 0 c 1
 385 69 446 122 466 200 c 1
 514 320 l 1
 537 384 554 400 574 476 c 1
 564 486 554 490 544 482 c 1
 510 439 472 395 430 338 c 1
 273 144 l 1
 225 102 214 87 164 12 c 1
 139 -1 114 -12 92 -12 c 0
 73 -12 56 -4 42 16 c 1
 42 108 88 161 112 254 c 1
 149 355 178 410 208 514 c 0
 218 547 233 570 233 600 c 0
 233 627.642 222.78 648.909 202 658 c 0x48
 199 659 196 660 193 660 c 0
 179 660 166 648 153 648 c 0
 134.825 648 125 674.337 125 688 c 0
 125 699 129 710 136 720 c 1x88
 163 740 191 743 220 743 c 2
 263 743 l 2
 272 743 282 743 292 744 c 1
 302 743 311 742 321 742 c 0
 340 742 359 744 377 744 c 0
 404 744 429 741 454 724 c 1
 460 717 462 709 462 701 c 0
 462 689 457 677 448 668 c 0
 439 658 429 658 417 658 c 2
 414 658 l 2x48
 408 658 401 658 394 656 c 1
 390 656 l 2
 327 656 313 460 286 420 c 1
 263 348 245 309 226 236 c 0
 225 233 225 231 225 229 c 0
 225 226 226 225 228 225 c 0
 245 225 343 354 400 416 c 0
 471.843 494.145 521 532 580 620 c 0
 592.047 637.969 613 651 613 668 c 0
 613 677.826 607.178 687 598 687 c 0
 587 687 574 680 563 680 c 0x18
EndSplineSet
Validated: 1
EndChar

